G04 ================== begin FILE IDENTIFICATION RECORD ==================*
G04 Layout Name:  CC3200-LAUNCHXL_BRD_Rev4p1_20140624.brd*
G04 Film Name:    L1.gbr*
G04 File Format:  Gerber RS274X*
G04 File Origin:  Cadence Allegro 16.6-P004*
G04 Origin Date:  Tue Jun 24 08:36:08 2014*
G04 *
G04 Layer:  VIA CLASS/TOP*
G04 Layer:  PIN/TOP*
G04 Layer:  ETCH/TOP*
G04 Layer:  DRAWING FORMAT/L1*
G04 Layer:  DRAWING FORMAT/FILM_LABEL_OUTLINE*
G04 *
G04 Offset:    (0.0000 0.0000)*
G04 Mirror:    No*
G04 Mode:      Positive*
G04 Rotation:  0*
G04 FullContactRelief:  No*
G04 UndefLineWidth:     6.0000*
G04 ================== end FILE IDENTIFICATION RECORD ====================*
%FSLAX25Y25*MOIN*%
%IR0*IPPOS*OFA0.00000B0.00000*MIA0B0*SFA1.00000B1.00000*%
%ADD73R,.07X.15*%
%ADD71R,.045276X.057087*%
%ADD59R,.057087X.045276*%
%AMMACRO44*
4,1,6,.004724,.021654,
-.01378,.021654,
-.01378,-.021654,
.004724,-.021654,
.01378,-.012598,
.01378,.012598,
.004724,.021654,
0.0*
%
%ADD44MACRO44*%
%ADD38C,.03*%
%ADD11C,.04*%
%ADD48C,.032*%
%ADD17C,.024*%
%AMMACRO47*
21,1,.074803,.043307,0.0,0.0,89.997*%
%ADD47MACRO47*%
%AMMACRO34*
4,1,24,.032382,-.010827,
.032382,.010827,
.032083,.014245,
.031195,.017559,
.029745,.020669,
.027776,.02348,
.02535,.025906,
.022539,.027875,
.01943,.029325,
.016115,.030213,
.012697,.030512,
.012697,.030512,
-.032382,.030512,
-.032382,-.030512,
.012697,-.030512,
.016115,-.030213,
.019429,-.029325,
.022539,-.027875,
.02535,-.025906,
.027776,-.02348,
.029745,-.020669,
.031195,-.017559,
.032083,-.014245,
.032382,-.010827,
.032382,-.010827,
0.0*
%
%ADD34MACRO34*%
%AMMACRO63*
21,1,.041339,.025,0.0,0.0,135.*%
%ADD63MACRO63*%
%ADD12C,.018*%
%ADD15C,.058*%
%AMMACRO45*
21,1,.03937,.017717,0.0,0.0,89.997*%
%ADD45MACRO45*%
%AMMACRO62*
21,1,.02598,.01417,0.0,0.0,135.*%
%ADD62MACRO62*%
%ADD26R,.011811X.011811*%
%ADD14R,.058X.058*%
%ADD79C,.03937*%
%ADD21C,.059055*%
%ADD10C,.098425*%
%ADD80C,.01378*%
%ADD19R,.059055X.059055*%
%AMMACRO61*
21,1,.086614,.041339,0.0,0.0,135.*%
%ADD61MACRO61*%
%ADD52R,.019685X.019685*%
%AMMACRO55*
21,1,.025984,.022835,0.0,0.0,135.*%
%ADD55MACRO55*%
%ADD54R,.01378X.01378*%
%ADD18R,.032X.03*%
%ADD60R,.03X.032*%
%ADD70R,.07X.03*%
%ADD68R,.04X.05*%
%ADD36R,.07X.012*%
%ADD41O,.012X.038*%
%ADD37R,.012X.07*%
%ADD35R,.009842X.064961*%
%ADD76R,.035X.031*%
%ADD40O,.038X.012*%
%ADD30R,.031X.035*%
%ADD69R,.063X.05*%
%ADD16R,.07X.016*%
%ADD39R,.04X.048*%
%AMMACRO53*
4,1,6,-.004724,-.021654,
.01378,-.021654,
.01378,.021654,
-.004724,.021654,
-.01378,.012598,
-.01378,-.012598,
-.004724,-.021654,
0.0*
%
%ADD53MACRO53*%
%ADD27R,.024X.039*%
%ADD72R,.024X.048*%
%ADD31R,.024X.085*%
%AMMACRO29*
4,1,24,-.032382,.010827,
-.032382,-.010827,
-.032083,-.014245,
-.031195,-.017559,
-.029745,-.020669,
-.027776,-.02348,
-.02535,-.025906,
-.022539,-.027875,
-.01943,-.029325,
-.016115,-.030213,
-.012697,-.030512,
-.012697,-.030512,
.032382,-.030512,
.032382,.030512,
-.012697,.030512,
-.016115,.030213,
-.019429,.029325,
-.022539,.027875,
-.02535,.025906,
-.027776,.02348,
-.029745,.020669,
-.031195,.017559,
-.032083,.014245,
-.032382,.010827,
-.032382,.010827,
0.0*
%
%ADD29MACRO29*%
%ADD74R,.068898X.159449*%
%ADD78R,.011024X.016142*%
%ADD77R,.016142X.011024*%
%ADD51R,.01417X.02598*%
%ADD46R,.043307X.074803*%
%ADD49R,.017X.066929*%
%ADD32R,.019685X.011811*%
%ADD24O,.049213X.037402*%
%ADD23R,.035433X.03937*%
%ADD58R,.03937X.035433*%
%ADD28R,.059055X.061024*%
%ADD64R,.037402X.03937*%
%ADD13R,.022441X.024409*%
%ADD56R,.03937X.037402*%
%ADD50R,.03937X.03937*%
%ADD20R,.024409X.022441*%
%ADD43R,.015748X.037402*%
%ADD75R,.031496X.03937*%
%ADD57R,.055118X.041339*%
%ADD67R,.049213X.086614*%
%ADD66R,.031496X.086614*%
%ADD65R,.086614X.049213*%
%ADD25R,.015748X.05315*%
%ADD42R,.275591X.275591*%
%ADD22R,.022835X.025984*%
%ADD33R,.025984X.022835*%
%ADD81C,.01*%
%ADD82C,.012*%
%ADD83C,.015*%
%ADD84C,.0199*%
%ADD85C,.015748*%
%ADD86C,.006*%
%ADD87C,.008*%
%ADD90C,.088*%
%ADD88C,.12*%
%ADD89R,.088X.088*%
G75*
%LPD*%
G75*
G36*
G01X14500Y2000D02*
X13824Y2676D01*
G02X13955Y4200I707J707D01*
G03X4200Y13955I-4034J5721D01*
G02X2676Y13824I-817J576D01*
G01X2000Y14500D01*
Y52583D01*
G02X3707Y53290I1000J0D01*
G01X14738Y42260D01*
X20600D01*
Y40600D01*
X29400D01*
Y49400D01*
X20600D01*
Y48260D01*
X17223D01*
X7000Y58483D01*
Y171757D01*
X13243Y178000D01*
X20600D01*
Y171050D01*
X15004D01*
X11675Y167720D01*
X10488D01*
Y162280D01*
X12820D01*
G02X13527Y160572I0J-1000D01*
G01X13227Y160273D01*
G03X12709Y158820I1273J-1273D01*
G02X11714Y157720I-995J-100D01*
G01X10488D01*
Y154924D01*
X8200Y152635D01*
Y140254D01*
X9727Y138727D01*
G03X10488Y138274I1273J1273D01*
G01Y137300D01*
X10000Y136809D01*
X9821Y136791D01*
G03Y133209I179J-1791D01*
G01X10000Y133191D01*
X10488Y132700D01*
Y132280D01*
X19512D01*
Y133200D01*
X20985D01*
G03X29018Y136793I4015J1800D01*
G02X29932Y138200I913J407D01*
G01X30068D01*
G02X30982Y136793I0J-1000D01*
G03X31707Y132082I4018J-1793D01*
G02X31675Y130721I-748J-663D01*
G01X29279Y128325D01*
G02X27918Y128293I-697J717D01*
G03X20985Y126800I-2918J-3293D01*
G01X19512D01*
Y127720D01*
X10488D01*
Y122079D01*
X10205Y121795D01*
G03X11114Y118709I1295J-1295D01*
G01X11509Y118624D01*
Y117720D01*
X10488D01*
Y112280D01*
X19512D01*
Y113200D01*
X20985D01*
G03X28282Y117931I4015J1800D01*
G01X28222Y117998D01*
X28031Y118485D01*
X31515Y121969D01*
X32002Y121778D01*
X32069Y121718D01*
G03X35130Y120602I2931J3282D01*
G01X35346Y120608D01*
X35714Y120240D01*
G02X35324Y119388I-354J-354D01*
G03X36566Y110888I-324J-4388D01*
G01X37937Y109517D01*
X37332Y108753D01*
X36969Y108935D01*
G03X36566Y100888I-1969J-3935D01*
G01X37937Y99517D01*
X37332Y98753D01*
X36969Y98935D01*
G03X39015Y93200I-1969J-3935D01*
G01X47488D01*
Y92280D01*
X56512D01*
Y92700D01*
X57000Y93191D01*
X57179Y93209D01*
G03Y96791I-179J1791D01*
G01X57000Y96809D01*
X56512Y97300D01*
Y98700D01*
X57000Y99191D01*
X57179Y99209D01*
G03X58790Y100807I-179J1791D01*
G02X59784Y101700I994J-107D01*
G01X66946D01*
X72196Y106950D01*
X75500D01*
Y89500D01*
X102500D01*
X103500Y90500D01*
Y101000D01*
X110000D01*
Y106787D01*
X110299D01*
Y109299D01*
X111308Y110308D01*
X111502Y110317D01*
G03X112015Y110398I-112J2397D01*
G01X112079Y110415D01*
X114395D01*
Y99200D01*
G03X114575Y98194I2900J0D01*
G01X114606Y98110D01*
Y94790D01*
X114575Y94706D01*
G03X114395Y93700I2720J-1006D01*
G01Y81985D01*
X114212D01*
Y81847D01*
X114075D01*
Y71823D01*
X114395D01*
Y58937D01*
G03X114485Y58222I2900J0D01*
G01X114500Y58161D01*
Y51200D01*
X114811D01*
Y48579D01*
X114895D01*
Y33671D01*
X114496D01*
Y28387D01*
X114500D01*
Y20535D01*
X112358D01*
Y6000D01*
X116295D01*
X118295Y6000D01*
X125381Y6000D01*
Y2000D01*
X14500D01*
G37*
G36*
G01X71746Y164800D02*
X60300Y176246D01*
Y176500D01*
G03X56700I-1800J0D01*
G01Y175980D01*
G02X55236Y175094I-1000J0D01*
G03X54400Y175300I-836J-1594D01*
G01X46754D01*
X42504Y171050D01*
X39523D01*
G02X38685Y172596I0J1000D01*
G03X35045Y179400I-3685J2404D01*
G01X34841Y179402D01*
X30243Y184000D01*
X10757D01*
X3707Y176950D01*
G02X2000Y177657I-707J707D01*
G01Y245540D01*
G02X3707Y246247I1000J0D01*
G01X6254Y243700D01*
X20754D01*
X48847Y215607D01*
G02X48140Y213900I-707J-707D01*
G01X43100D01*
Y205100D01*
X51900D01*
Y211347D01*
G02X52754Y211701I500J0D01*
G01X53100Y211354D01*
Y205100D01*
X61900D01*
Y213900D01*
X55646D01*
X22246Y247300D01*
X7746D01*
X4300Y250746D01*
Y282144D01*
X4935Y282780D01*
X6268D01*
Y281484D01*
X6232D01*
Y279516D01*
X6268D01*
Y277780D01*
X10878D01*
Y275582D01*
X20878D01*
Y280750D01*
X21500D01*
G03X21638Y280754I0J2250D01*
G02X22700Y279756I62J-998D01*
G01Y273746D01*
X22227Y273273D01*
G03X22556Y270468I1273J-1273D01*
G02X22664Y269707I-262J-426D01*
G03X22576Y269601I1336J-1207D01*
G02X21784Y269602I-396J306D01*
G03X17834Y268842I-1784J-1371D01*
G01X17732Y268477D01*
X10878D01*
Y266220D01*
X6268D01*
Y264484D01*
X6232D01*
Y262516D01*
X6268D01*
Y260780D01*
X10878D01*
Y256220D01*
X6268D01*
Y254484D01*
X6232D01*
Y252516D01*
X6268D01*
Y250780D01*
X11512D01*
Y251082D01*
X20878D01*
X21378Y251582D01*
X22127D01*
X24493Y253947D01*
G02X26200Y253240I707J-707D01*
G01Y252754D01*
X40754Y238200D01*
X46254D01*
X68847Y215607D01*
G02X68140Y213900I-707J-707D01*
G01X63100D01*
Y205100D01*
X71900D01*
Y211347D01*
G02X72754Y211701I500J0D01*
G01X73100Y211354D01*
Y205100D01*
X81900D01*
Y213900D01*
X75646D01*
X47746Y241800D01*
X42246D01*
X37230Y246816D01*
G02X37937Y248523I707J707D01*
G01X42488D01*
Y245780D01*
X51512D01*
Y246700D01*
X69254D01*
X73200Y242754D01*
Y240554D01*
X74688Y239066D01*
G02X74335Y238213I-354J-354D01*
G01X73033D01*
Y238287D01*
X70967D01*
Y238213D01*
X68911D01*
X68870Y238219D01*
G03X66909Y234409I-370J-2219D01*
G01X67997Y233321D01*
X69201D01*
Y232929D01*
X75154D01*
Y232299D01*
X79780D01*
Y222488D01*
X82576D01*
X87365Y217700D01*
X97985D01*
G03X98777Y216504I4015J1800D01*
G01X99106Y216151D01*
X83361Y200406D01*
G02X81699Y200814I-707J707D01*
G03X76186Y195301I-4199J-1314D01*
G02X76594Y193639I-299J-954D01*
G01X73254Y190300D01*
X69500D01*
G03Y186700I0J-1800D01*
G01X74746D01*
X97212Y209166D01*
X97669Y208709D01*
X97700Y208565D01*
G03X97792Y208213I4300J935D01*
G01X97880Y207926D01*
X93700Y203746D01*
Y182000D01*
X75500D01*
Y164800D01*
X71746D01*
G37*
G36*
G01X5768Y315516D02*
Y314412D01*
X5201D01*
X5136Y314430D01*
G03X3537Y314188I-526J-1930D01*
G02X2000Y315031I-537J844D01*
G01Y328042D01*
G02X3167Y329028I1000J0D01*
G03X3267Y329014I333J1972D01*
G02X4150Y328020I-117J-993D01*
G01Y328000D01*
X17079D01*
Y327531D01*
X24850D01*
Y323596D01*
X24731Y323477D01*
X20671D01*
X20171Y323977D01*
X10378D01*
Y319220D01*
X5768D01*
Y317484D01*
X5732D01*
Y315516D01*
X5768D01*
G37*
G36*
G01X15439Y300484D02*
G02X13935Y300587I-707J707D01*
G03X13773Y300773I-1435J-1087D01*
G01X10190Y304356D01*
Y306280D01*
X11012D01*
Y306582D01*
X19122D01*
G02X19829Y304875I0J-1000D01*
G01X15439Y300484D01*
G37*
G36*
G01X108928Y243473D02*
G02X107220Y244180I-707J707D01*
G01Y250512D01*
X106300D01*
Y265754D01*
X106902Y266356D01*
X107719Y265907D01*
X107702Y265594D01*
G03X110773Y264227I1798J-94D01*
G01X112800Y266254D01*
Y277746D01*
X111012Y279534D01*
Y280720D01*
X106410D01*
Y281135D01*
X105112Y282434D01*
G02X105465Y283287I354J354D01*
G01X106967D01*
Y283213D01*
X109033D01*
Y283287D01*
X110799D01*
Y285700D01*
X114311D01*
G03X119000Y285282I2524J1800D01*
G03X120879Y290587I2165J2218D01*
G01X120646Y290565D01*
X119211Y292000D01*
X110799D01*
Y292713D01*
X109033D01*
Y292787D01*
X106967D01*
Y292713D01*
X105201D01*
Y291871D01*
X104175D01*
X102178Y293867D01*
G02X102434Y295467I707J707D01*
G03X102810Y295701I-1126J2226D01*
G01X108713D01*
Y297467D01*
X108787D01*
Y300280D01*
X112512D01*
Y300470D01*
X112926Y300542D01*
G03Y305458I-426J2458D01*
G01X112512Y305530D01*
Y305720D01*
X103488D01*
Y301299D01*
X103429D01*
Y300995D01*
X101081D01*
X100857Y300771D01*
X100240Y301027D01*
Y302921D01*
X97040D01*
Y307379D01*
G02X98527Y308253I1000J0D01*
G03X101000Y308677I973J1747D01*
G02X102500I750J-661D01*
G03X105855Y309253I1500J1323D01*
G01X105893Y309348D01*
X107034Y310488D01*
X107720D01*
Y311338D01*
G02X109356Y312110I1000J0D01*
G03X111773Y312227I1144J1390D01*
G01X112410Y312865D01*
Y313780D01*
X117012D01*
Y313988D01*
X121720D01*
Y323052D01*
G02X121000Y324008I280J960D01*
G03X117000I-2000J-8D01*
G02X116280Y323052I-1000J4D01*
G01Y321180D01*
G02X114572Y320473I-1000J0D01*
G01X112689Y322357D01*
Y329579D01*
X100311D01*
Y319982D01*
X99842Y319512D01*
X97280D01*
Y318825D01*
X96439Y317984D01*
G02X94935Y318087I-707J707D01*
G03X92999Y318729I-1435J-1087D01*
G02X91720Y319689I-278J960D01*
G01Y322512D01*
X91041D01*
X90958Y322909D01*
G03X87042I-1958J-409D01*
G01X86959Y322512D01*
X86280D01*
Y321600D01*
X81720D01*
Y322512D01*
X81287D01*
Y322947D01*
X80117Y324117D01*
G03X77064Y324280I-1617J-1617D01*
G02X76436I-314J389D01*
G03X73383Y324117I-1436J-1780D01*
G01X73211Y323946D01*
G02X71669Y324102I-707J707D01*
G03X68008Y323182I-1669J-1102D01*
G01X67992Y323001D01*
X67500Y322512D01*
X67280D01*
Y313488D01*
X68200D01*
Y313254D01*
X68507Y312947D01*
G02X67800Y311240I-707J-707D01*
G01X66079D01*
Y309417D01*
G02X64559Y308563I-1000J0D01*
G03X60434Y304445I-1559J-2563D01*
G02X59579Y302927I-855J-518D01*
G01X57760D01*
Y302663D01*
X56928D01*
X56799Y302969D01*
G03X52736Y303764I-2299J-969D01*
G01X52365Y303394D01*
G02X52095Y303254I-354J354D01*
G01X52134Y303162D01*
X51934Y302963D01*
Y301799D01*
X51787D01*
Y300033D01*
X51713D01*
Y297967D01*
X51787D01*
Y296720D01*
X49500D01*
Y303046D01*
X49383Y303162D01*
X49639Y303780D01*
X51512D01*
Y304466D01*
X52773Y305727D01*
G03X51901Y308755I-1273J1273D01*
G01X51512Y308844D01*
Y309221D01*
G02X50596Y310538I33J999D01*
G03X50643Y310701I-1707J572D01*
G01X50679Y310859D01*
X51166Y311280D01*
X51512D01*
Y316720D01*
X42622D01*
Y318701D01*
X47713D01*
Y320467D01*
X47787D01*
Y322533D01*
X47713D01*
Y324299D01*
X47321D01*
Y325861D01*
X46591Y326591D01*
G03X42756Y324836I-1591J-1591D01*
G01X42757Y324817D01*
Y323977D01*
X32622D01*
Y320918D01*
X31127D01*
X28450Y323596D01*
Y327531D01*
X29921D01*
Y334469D01*
X17079D01*
Y334000D01*
X4150D01*
Y333980D01*
G02X3267Y332986I-1000J0D01*
G03X3167Y332972I233J-1986D01*
G02X2000Y333958I-167J986D01*
G01Y356067D01*
G02X3865Y356568I1000J0D01*
G03X13432Y366135I6056J3511D01*
G02X13933Y368000I502J865D01*
G01X214500D01*
X215612Y366888D01*
G02X215552Y365418I-707J-707D01*
G03X225418Y355552I4527J-5339D01*
G02X226888Y355612I763J-647D01*
G01X228000Y354500D01*
Y297960D01*
G02X226293Y297253I-1000J0D01*
G01X213246Y310300D01*
X187246D01*
X185098Y312448D01*
G02X185805Y314155I707J707D01*
G01X190240D01*
Y315824D01*
X205631D01*
X207727Y313727D01*
G03X210273Y316273I1273J1273D01*
G01X207122Y319424D01*
X190240D01*
Y320486D01*
X190616Y320582D01*
G03X190000Y325495I-616J2418D01*
G01X188512D01*
Y326700D01*
X192695D01*
X192763Y326281D01*
G03X198958Y331073I4394J719D01*
G01Y351088D01*
X192296Y357750D01*
X191800D01*
Y359200D01*
X185700D01*
Y352700D01*
X192254D01*
X195357Y349597D01*
Y331073D01*
G03X194168Y330300I1800J-4073D01*
G01X188512D01*
Y331220D01*
X179488D01*
Y330534D01*
X176700Y327746D01*
Y312246D01*
X174254Y309800D01*
X154754D01*
X125700Y280746D01*
Y260246D01*
X108928Y243473D01*
G37*
G36*
G01X40197Y165743D02*
X35754Y161300D01*
X29677D01*
G02X28811Y162800I0J1000D01*
G03X29238Y166181I-3811J2200D01*
G02X30202Y167450I963J269D01*
G01X39490D01*
G02X40197Y165743I0J-1000D01*
G37*
G36*
G01X72002Y259488D02*
X72720D01*
Y268760D01*
X77201D01*
Y263287D01*
X78967D01*
Y263213D01*
X81033D01*
Y263287D01*
X82799D01*
Y263434D01*
X84463D01*
X85264Y264236D01*
G03X85656Y267256I-1764J1764D01*
G02X86520Y268760I864J504D01*
G01X91921D01*
Y270583D01*
G02X93441Y271437I1000J0D01*
G03X97566Y275555I1559J2563D01*
G02X98421Y277073I855J518D01*
G01X100588D01*
Y274976D01*
X101988Y273576D01*
Y270780D01*
X103820D01*
G02X104527Y269072I0J-1000D01*
G01X102700Y267246D01*
Y252396D01*
G02X100993Y251689I-1000J0D01*
G01X100361Y252321D01*
X100299D01*
Y252713D01*
X98533D01*
Y252787D01*
X96467D01*
Y252713D01*
X93033D01*
Y252787D01*
X90967D01*
Y252713D01*
X89201D01*
Y252321D01*
X87639D01*
X86909Y251591D01*
G03X89060Y247821I1591J-1591D01*
G01X89201D01*
Y247429D01*
X91460D01*
X91654Y247235D01*
Y242300D01*
X87934D01*
G02X87004Y243668I0J1000D01*
G03X85343Y246131I-1674J663D01*
G01X84846Y246631D01*
Y247701D01*
X80213D01*
Y248967D01*
X80287D01*
Y251033D01*
X80213D01*
Y252799D01*
X74929D01*
Y252709D01*
G03X72295Y250947I-429J-2209D01*
G02X70780Y250300I-980J199D01*
G01X51512D01*
Y251220D01*
X47732D01*
Y252516D01*
X47768D01*
Y254484D01*
X47732D01*
Y255934D01*
X50800Y259002D01*
Y260500D01*
G03X47207Y260664I-1800J0D01*
G01X47191Y260484D01*
X44448Y257741D01*
X43122D01*
Y263287D01*
X43966D01*
Y263213D01*
X46034D01*
Y263287D01*
X47799D01*
Y268571D01*
X47250D01*
Y269500D01*
G03X42750I-2250J0D01*
G01Y268571D01*
X42201D01*
Y268477D01*
X33300D01*
Y270255D01*
G03X33755Y271101I-1300J1245D01*
G01X33787Y271242D01*
X35568Y273023D01*
X43122D01*
Y273703D01*
G02X44078Y274702I1000J0D01*
G03X45054Y275041I-78J1798D01*
G02X46346Y274937I585J-811D01*
G01X46583Y274700D01*
X47488D01*
Y273780D01*
X56360D01*
Y270720D01*
X53488D01*
Y269800D01*
X52254D01*
X51227Y268773D01*
G03X51279Y266178I1273J-1273D01*
G02X51457Y264928I-678J-735D01*
G03X51727Y262727I1543J-928D01*
G01X52754Y261700D01*
X53488D01*
Y260780D01*
X62512D01*
Y263576D01*
X64560Y265624D01*
Y277079D01*
X68041D01*
Y268512D01*
X67280D01*
Y259488D01*
X67998D01*
X68000Y258991D01*
G03X72000I2000J9D01*
G01X72002Y259488D01*
G37*
G36*
G01X29978Y289067D02*
X28690Y290356D01*
Y293780D01*
X29512D01*
Y299220D01*
X21680D01*
G02X20973Y300928I0J1000D01*
G01X27246Y307200D01*
X29000D01*
G03X29157Y307207I0J1800D01*
G02X29700Y306709I43J-498D01*
G01Y303254D01*
X32754Y300200D01*
X34787D01*
Y297533D01*
X34713D01*
Y295467D01*
X34787D01*
Y292977D01*
X33122D01*
Y289800D01*
X31500D01*
G03X30330Y289368I0J-1800D01*
G01X29978Y289067D01*
G37*
G36*
G01X55260Y127644D02*
Y135356D01*
X59740D01*
Y127644D01*
X55260D01*
G37*
G36*
G01X63700Y116205D02*
Y126457D01*
X64566D01*
X64674Y126401D01*
G03X65500Y126200I826J1599D01*
G01X66754D01*
X67554Y125401D01*
X72343D01*
X73268Y124476D01*
Y123484D01*
X73232D01*
Y120800D01*
X69754D01*
X65159Y116205D01*
X63700D01*
G37*
G36*
G01X75287Y138284D02*
Y136033D01*
X75213D01*
Y133967D01*
X75287D01*
Y132033D01*
X75213D01*
Y130401D01*
X71681D01*
X70300Y131782D01*
Y139754D01*
X71793Y141247D01*
G02X73214Y141240I707J-707D01*
G03X73823Y140832I1286J1260D01*
G02X74128Y140289I-188J-463D01*
G03X75030Y138427I1777J-289D01*
G01X75287Y138284D01*
G37*
G36*
G01X61787Y148300D02*
Y150033D01*
X61713D01*
Y152429D01*
X66618D01*
X68162Y150884D01*
Y150036D01*
X68988Y149210D01*
Y148300D01*
X61787D01*
G37*
G36*
G01X67760Y278760D02*
Y301240D01*
X81923D01*
Y300249D01*
X83586Y298586D01*
G03X86414I1414J1414D01*
G01X87891Y300062D01*
Y301240D01*
X90240D01*
Y291013D01*
X89185D01*
X88086Y289914D01*
G03X89327Y286508I1414J-1414D01*
G02X90240Y285511I-87J-996D01*
G01Y278760D01*
X67760D01*
G37*
G36*
G01X88856Y221300D02*
X85220Y224935D01*
Y231512D01*
X84846D01*
Y238700D01*
X91654D01*
Y235836D01*
X89909Y234091D01*
G03X93091Y230909I1591J-1591D01*
G01X94481Y232299D01*
X97259D01*
Y231695D01*
X103391Y225564D01*
G02X102557Y223865I-707J-707D01*
G03X97985Y221300I-557J-4365D01*
G01X88856D01*
G37*
G36*
G01X98700Y182000D02*
Y195100D01*
X106400D01*
Y202200D01*
X107600D01*
Y195100D01*
X116400D01*
Y203900D01*
X110153D01*
G02X109799Y204754I0J500D01*
G01X110426Y205380D01*
X110713Y205292D01*
G03X116018Y211293I1287J4208D01*
G02X116932Y212700I913J407D01*
G01X117746D01*
X149246Y244200D01*
X165746D01*
X170646Y249100D01*
X176900D01*
Y256700D01*
X182754D01*
X189560Y249894D01*
X189488Y249720D01*
Y246924D01*
X189007Y246442D01*
X188891Y246405D01*
G03X191282Y243591I609J-1905D01*
G01X191318Y243662D01*
X191935Y244280D01*
X193488D01*
Y240280D01*
X202512D01*
Y240600D01*
G02X203009Y241100I500J0D01*
G03X204709Y243465I-9J1800D01*
G02X205658Y244780I949J314D01*
G01X207512D01*
Y244787D01*
X209967D01*
Y244713D01*
X212033D01*
Y244787D01*
X213799D01*
Y245529D01*
X216216D01*
X220900Y250213D01*
Y254429D01*
X221799D01*
Y259713D01*
X220033D01*
Y259787D01*
X217967D01*
Y259713D01*
X216201D01*
X215687Y259500D01*
X214578Y260609D01*
X214504D01*
Y261016D01*
X214353D01*
Y262280D01*
X218512D01*
Y262959D01*
X218909Y263042D01*
G03Y266958I-409J1958D01*
G01X218512Y267041D01*
Y267720D01*
X209822D01*
G02X209115Y269428I0J1000D01*
G01X210401Y270714D01*
X211499D01*
Y274840D01*
G02X212962Y275726I1000J0D01*
G03X218171Y281223I1822J3490D01*
G02X219031Y282732I860J510D01*
G01X219321D01*
Y284498D01*
X219396D01*
Y287032D01*
X223700D01*
Y222268D01*
X221516D01*
Y222232D01*
X219780D01*
Y216988D01*
X220700D01*
Y214625D01*
G02X219385Y213676I-1000J0D01*
G03X216207Y213518I-1385J-4176D01*
G02X214800Y214432I-407J913D01*
G01Y216988D01*
X216220D01*
Y222232D01*
X214484D01*
Y222268D01*
X212516D01*
Y222232D01*
X210720D01*
Y226012D01*
X210530D01*
X210458Y226426D01*
G03X205542I-2458J-426D01*
G01X205470Y226012D01*
X205280D01*
Y216988D01*
X205505D01*
Y213124D01*
G03X204376Y211995I2495J-3624D01*
G01X201624D01*
G03X196207Y213518I-3624J-2495D01*
G02X194804Y214342I-407J913D01*
G01X188146Y221000D01*
X186520D01*
Y222032D01*
X184784D01*
Y222068D01*
X182816D01*
Y222032D01*
X180720D01*
Y226012D01*
X175280D01*
Y225193D01*
X173000Y222913D01*
Y213923D01*
X172551Y213877D01*
G03X169737Y212451I449J-4377D01*
G02X167995Y213122I-742J671D01*
G01Y217533D01*
X156495Y229033D01*
Y234500D01*
G03X151505I-2495J0D01*
G01Y226967D01*
X163005Y215467D01*
Y205000D01*
X141536D01*
G02X141182Y205854I0J500D01*
G01X141500Y206172D01*
Y213328D01*
X138828Y216000D01*
X122672D01*
X120000Y213328D01*
Y203828D01*
X119000Y202828D01*
Y193172D01*
X121172Y191000D01*
X128219D01*
X134415Y184804D01*
Y182000D01*
X98700D01*
G37*
G36*
G01X129300Y279254D02*
X150322Y300277D01*
G02X152001Y299807I707J-707D01*
G03X153481Y298090I2424J593D01*
G01X153960Y297612D01*
Y293157D01*
X159360D01*
Y300958D01*
X157671D01*
X155733Y302895D01*
X154425D01*
G03X154182Y302883I0J-2495D01*
G01X153947Y302860D01*
X153426Y303381D01*
X156246Y306200D01*
X175746D01*
X180300Y310754D01*
Y310947D01*
G02X181154Y311301I500J0D01*
G01X185754Y306700D01*
X211754D01*
X214235Y304219D01*
G02X213528Y302512I-707J-707D01*
G01X209058D01*
Y301400D01*
X205600D01*
Y298732D01*
X204780D01*
Y297201D01*
G02X203058Y296509I-1000J0D01*
G03X197983Y290542I-2841J-2725D01*
G01X198081Y290474D01*
X198381Y289923D01*
X197762Y289304D01*
X191080D01*
Y284060D01*
X192816D01*
Y284024D01*
X195106D01*
Y280280D01*
X195829D01*
Y279769D01*
G03X195833Y279509I1998J-96D01*
G02X195335Y278969I-498J-41D01*
G01X189577D01*
X187746Y280800D01*
X169254D01*
X165340Y276886D01*
X164998Y277122D01*
G03X163885Y269324I-2498J-3622D01*
G02X165200Y268375I315J-949D01*
G01Y267892D01*
G02X164585Y267406I-500J0D01*
G01X164477Y267431D01*
X164427Y267456D01*
G03X163885Y259324I-1927J-3956D01*
G02X165200Y258375I315J-949D01*
G01Y258254D01*
X165437Y258017D01*
X164832Y257253D01*
X164469Y257435D01*
G03Y249565I-1969J-3935D01*
G01X164832Y249747D01*
X165437Y248983D01*
X164254Y247800D01*
X147754D01*
X118064Y218109D01*
G02X116365Y218943I-707J707D01*
G03X110434Y223612I-4365J557D01*
G01X104265Y229781D01*
G02X104972Y231488I707J707D01*
G01X107220D01*
Y231615D01*
G03X107849Y236625I390J2495D01*
G01X107665Y236642D01*
X107220Y237103D01*
Y238700D01*
X109246D01*
X129300Y258754D01*
Y279254D01*
G37*
G36*
G01X182464Y106980D02*
G02X181979Y107600I0J500D01*
G01X182006Y107709D01*
X182029Y107757D01*
G03X180689Y110189I-1529J743D01*
G02X179800Y111183I111J994D01*
G01Y112280D01*
X188512D01*
Y113200D01*
X190985D01*
G03Y116800I4015J1800D01*
G01X188512D01*
Y117720D01*
X181935D01*
X181300Y118356D01*
Y122280D01*
X188512D01*
Y123200D01*
X190985D01*
G03Y126800I4015J1800D01*
G01X188512D01*
Y133200D01*
X190985D01*
G03X199018Y136793I4015J1800D01*
G02X199932Y138200I913J407D01*
G01X200068D01*
G02X200982Y136793I0J-1000D01*
G03X206793Y130982I4018J-1793D01*
G02X208201Y130044I408J-913D01*
G03Y129956I1799J-44D01*
G02X206793Y129018I-1000J-25D01*
G03X209015Y123200I-1793J-4018D01*
G01X211488D01*
Y116800D01*
X209015D01*
G03Y113200I-4015J-1800D01*
G01X211488D01*
Y112280D01*
X220512D01*
Y113200D01*
X221746D01*
X222793Y114247D01*
G02X224500Y113540I707J-707D01*
G01Y111546D01*
X220675Y107720D01*
X211488D01*
Y106800D01*
X209015D01*
G03Y103200I-4015J-1800D01*
G01X211488D01*
Y102280D01*
X220512D01*
Y103200D01*
X221246D01*
X224193Y106147D01*
G02X225900Y105440I707J-707D01*
G01Y102946D01*
X220675Y97720D01*
X211488D01*
Y96800D01*
X209015D01*
G03Y93200I-4015J-1800D01*
G01X211488D01*
Y92280D01*
X220512D01*
Y93200D01*
X221246D01*
X226293Y98247D01*
G02X228000Y97540I707J-707D01*
G01Y32000D01*
X228000Y12500D01*
X227166Y11666D01*
X226732Y12101D01*
X226694Y12210D01*
G03X217790Y3306I-6615J-2289D01*
G01X217899Y3268D01*
X218334Y2834D01*
X217500Y2000D01*
X134000D01*
Y6000D01*
X135980D01*
Y20535D01*
X120100D01*
Y29200D01*
X120094D01*
Y33671D01*
X119695D01*
Y48579D01*
X119779D01*
Y51200D01*
X120200D01*
Y59100D01*
X120195D01*
Y71823D01*
X120515D01*
Y75544D01*
X122590D01*
Y75465D01*
X128873D01*
X129373Y75965D01*
X132231D01*
Y76355D01*
X132732D01*
G02X136959Y75228I-12J-8535D01*
G01X140876Y71311D01*
X141094Y71529D01*
X142475Y70148D01*
X142234Y69907D01*
X146218Y65923D01*
X145518Y65223D01*
X151364Y59377D01*
X156653Y64666D01*
X150807Y70512D01*
X150107Y69812D01*
X146123Y73796D01*
X145876Y73549D01*
X145159Y74266D01*
X145146D01*
X144489Y74923D01*
X144707Y75141D01*
X140041Y79807D01*
X139541Y79306D01*
X139211Y79489D01*
G03X132231Y81164I-6491J-11669D01*
G01Y81563D01*
X129166D01*
X128666Y82063D01*
X122590D01*
Y81985D01*
X120195D01*
Y93700D01*
G03X120015Y94706I-2900J0D01*
G01X119984Y94790D01*
Y98110D01*
X120015Y98194D01*
G03X120195Y99200I-2720J1006D01*
G01Y109992D01*
G02X121902Y110699I1000J0D01*
G01X122354Y110247D01*
X122407D01*
X123200Y109454D01*
Y104825D01*
X124929Y103096D01*
Y100201D01*
X125271D01*
Y97587D01*
X125310Y97547D01*
Y92687D01*
X126014Y91983D01*
G03X129910Y94729I2111J1142D01*
G01Y99453D01*
X129871Y99492D01*
Y100201D01*
X130213D01*
Y101967D01*
X130287D01*
Y104033D01*
X130213D01*
Y106000D01*
X135328D01*
X142008Y106000D01*
G03X145000Y106006I1492J2000D01*
G03X147992Y106000I1500J1994D01*
G01X168000D01*
Y153917D01*
G02X169707Y154624I1000J0D01*
G01X172186Y152145D01*
G02X172201Y150746I-707J-707D01*
G03X171700Y149500I1299J-1246D01*
G01Y84246D01*
X170227Y82773D01*
G03X172773Y80227I1273J-1273D01*
G01X172846Y80301D01*
G02X173700Y79947I354J-354D01*
G01Y76254D01*
X175454Y74500D01*
X169200Y68246D01*
Y10754D01*
X171644Y8310D01*
X171780D01*
Y7488D01*
X177220D01*
Y8357D01*
X189547D01*
Y5705D01*
X198453D01*
Y14610D01*
X189547D01*
Y11958D01*
X177220D01*
Y12732D01*
X175484D01*
Y12768D01*
X172800D01*
Y26988D01*
X177220D01*
Y28043D01*
X189927D01*
G03Y31643I4073J1800D01*
G01X177220D01*
Y36012D01*
X176344D01*
X176255Y36401D01*
G03X174050Y37743I-1755J-401D01*
G02X172800Y38711I-250J968D01*
G01Y66754D01*
X178746Y72700D01*
X210635D01*
X219690Y81754D01*
Y82280D01*
X220512D01*
Y87720D01*
X211488D01*
Y86800D01*
X209015D01*
G03Y83200I-4015J-1800D01*
G01X211488D01*
Y82280D01*
X212709D01*
G02X213417Y80572I0J-1000D01*
G01X209144Y76300D01*
X178746D01*
X178484Y76561D01*
G02X178587Y78065I707J707D01*
G03X178800Y80745I-1087J1435D01*
G01Y82280D01*
X188512D01*
Y83200D01*
X190985D01*
G03Y86800I4015J1800D01*
G01X188512D01*
Y87720D01*
X178800D01*
Y89207D01*
G02X179568Y90180I1000J0D01*
G03X181863Y91826I432J1820D01*
G01X181899Y92213D01*
X181966Y92280D01*
X188512D01*
Y93200D01*
X190985D01*
G03Y96800I4015J1800D01*
G01X188512D01*
Y97720D01*
X179800D01*
Y103020D01*
X183268D01*
Y102280D01*
X188512D01*
Y103200D01*
X190985D01*
G03Y106800I4015J1800D01*
G01X188512D01*
Y107720D01*
X183268D01*
Y106980D01*
X182464D01*
G37*
G36*
G01X135102Y115666D02*
G02X136000Y114672I-102J-995D01*
G01Y109500D01*
X134500Y108000D01*
X131299D01*
Y113713D01*
X130500D01*
Y116000D01*
X131000Y116500D01*
X133234D01*
X133336Y116398D01*
G03X135102Y115666I1767J1767D01*
G37*
G36*
G01X144172Y193000D02*
X122000D01*
X121000Y194000D01*
Y202000D01*
X122000Y203000D01*
X123039D01*
Y202827D01*
X127961D01*
Y203000D01*
X162500D01*
X163005Y202495D01*
Y198728D01*
X160005Y195728D01*
Y193720D01*
X153488D01*
Y193495D01*
X144667D01*
X144172Y193000D01*
G37*
G36*
G01X123039Y206000D02*
X122000D01*
Y212500D01*
X123500Y214000D01*
X138000D01*
X139500Y212500D01*
Y207000D01*
X138500Y206000D01*
X127961D01*
Y206173D01*
X123039D01*
Y206000D01*
G37*
G36*
G01X175623Y153800D02*
X168000Y161423D01*
Y182000D01*
X143185D01*
Y184956D01*
X146733Y188505D01*
X153488D01*
Y188280D01*
X162548D01*
X164362Y190093D01*
X165433Y189022D01*
X165132Y188670D01*
G03X166500Y185700I1368J-1170D01*
G01X171754D01*
X172427Y185028D01*
G02X172454Y184350I-354J-354D01*
G03X173719Y181550I1296J-1100D01*
G02X174700Y180550I-19J-1000D01*
G01Y177254D01*
X178754Y173200D01*
X179488D01*
Y172280D01*
X180310D01*
Y170800D01*
X175246D01*
X174773Y171273D01*
G03X172227Y168727I-1273J-1273D01*
G01X173754Y167200D01*
X176470D01*
G02X177374Y165771I0J-1000D01*
G03X177929Y163554I1626J-771D01*
G02Y161946I-595J-804D01*
G03X178991Y158700I1071J-1446D01*
G02X179488Y158200I-3J-500D01*
G01Y157300D01*
G02X178991Y156800I-500J0D01*
G03X177205Y154871I9J-1800D01*
G02X176207Y153800I-997J-71D01*
G01X175623D01*
G37*
G36*
G01X225046Y143499D02*
X224746Y143800D01*
X220512D01*
Y147720D01*
X219690D01*
Y147856D01*
X216973Y150572D01*
G02X217680Y152280I707J707D01*
G01X220620D01*
Y152700D01*
G02X221117Y153200I500J0D01*
G03Y156800I-9J1800D01*
G02X220620Y157300I3J500D01*
G01Y157720D01*
X211596D01*
Y156800D01*
X209015D01*
G03X201189Y152800I-4015J-1800D01*
G02X200323Y151300I-866J-500D01*
G01X199677D01*
G02X198811Y152800I0J1000D01*
G03X190985Y156800I-3811J2200D01*
G01X188512D01*
Y163200D01*
X190985D01*
G03X199290Y165978I4015J1800D01*
G02X200265Y167200I975J222D01*
G01X200904D01*
Y166610D01*
X200873Y166527D01*
G03X209015Y163200I4127J-1527D01*
G01X211488D01*
Y162280D01*
X220512D01*
Y167720D01*
X219690D01*
Y168356D01*
X217246Y170800D01*
X199400D01*
Y179400D01*
X190600D01*
Y176800D01*
X188512D01*
Y181720D01*
X179488D01*
Y181300D01*
G02X178991Y180800I-500J0D01*
G03X178843Y180793I9J-1800D01*
G02X178300Y181291I-43J498D01*
G01Y183792D01*
X178618Y183916D01*
G03X179321Y186570I-618J1584D01*
G02X180098Y188200I777J630D01*
G01X208754D01*
X225900Y171054D01*
Y143853D01*
G02X225046Y143499I-500J0D01*
G37*
G36*
G01X197414Y249921D02*
X196035Y251300D01*
X193246D01*
X184246Y260300D01*
X176900D01*
Y261700D01*
X187254D01*
X188754Y260200D01*
X194488D01*
Y254280D01*
X198268D01*
Y252984D01*
X198232D01*
Y251016D01*
X198268D01*
Y250275D01*
G02X197414Y249921I-500J0D01*
G37*
G36*
G01X208598Y254598D02*
Y258535D01*
Y261016D01*
X206561D01*
Y262280D01*
X210553D01*
Y261016D01*
X210402D01*
Y258535D01*
Y254598D01*
X208598D01*
G37*
G36*
G01X210562Y286432D02*
X210456Y286485D01*
G03X210210Y286591I-987J-1954D01*
G02X209593Y287826I339J941D01*
G03X209454Y289456I-2093J643D01*
G01X209400Y289562D01*
Y293488D01*
X214499D01*
Y293586D01*
G03X216603Y294299I518J1932D01*
G02X217500Y293996I397J-305D01*
G03X217531Y293649I2000J4D01*
G02X216547Y292473I-984J-176D01*
G01X214057D01*
Y288331D01*
X214038D01*
Y287432D01*
X212744D01*
X211744Y286432D01*
X210562D01*
G37*
%LPC*%
G75*
G36*
G01X91250Y6750D02*
Y7500D01*
X91150D01*
Y13500D01*
X98650D01*
Y18031D01*
X91079D01*
Y24969D01*
X92550D01*
Y25596D01*
X95450Y28496D01*
Y30300D01*
X101550D01*
Y24969D01*
X103921D01*
Y18031D01*
X102650D01*
Y13500D01*
X103850D01*
Y7500D01*
X97250D01*
Y6750D01*
G02X91250I-3000J0D01*
G37*
G36*
G01X62264Y7042D02*
X62225Y7500D01*
X55150D01*
Y13500D01*
X56250D01*
Y18031D01*
X55079D01*
Y24969D01*
X58450D01*
Y30300D01*
X64550D01*
Y26546D01*
X66127Y24969D01*
X67921D01*
Y18031D01*
X60250D01*
Y13500D01*
X67850D01*
Y7500D01*
X67275D01*
X67236Y7042D01*
G02X62264I-2486J208D01*
G37*
G36*
G01X80264D02*
X80225Y7500D01*
X73150D01*
Y13500D01*
X74250D01*
Y18031D01*
X73079D01*
Y24969D01*
X76950D01*
Y30300D01*
X83050D01*
Y26546D01*
X84627Y24969D01*
X85921D01*
Y18031D01*
X78250D01*
Y13500D01*
X85850D01*
Y7500D01*
X85275D01*
X85236Y7042D01*
G02X80264I-2486J208D01*
G37*
G36*
G01X44300Y51500D02*
Y42732D01*
X45516D01*
Y42768D01*
X47484D01*
Y42732D01*
X49220D01*
Y37488D01*
X48300D01*
Y19412D01*
X40953Y12065D01*
Y5705D01*
X32047D01*
Y14610D01*
X38407D01*
X44700Y20903D01*
Y37488D01*
X43780D01*
Y38310D01*
X42644D01*
X40700Y40254D01*
Y51500D01*
G02X44300I1800J0D01*
G37*
G36*
G01X34700Y33915D02*
Y37488D01*
X33780D01*
Y46512D01*
X34656D01*
X34745Y46901D01*
G02X38255I1755J-401D01*
G01X38344Y46512D01*
X39220D01*
Y37488D01*
X38300D01*
Y33915D01*
G02X34700I-1800J-4073D01*
G37*
G36*
G01X39015Y86800D02*
X47488D01*
Y87720D01*
X56512D01*
Y86800D01*
X71746D01*
X74273Y84273D01*
G02X71727Y81727I-1273J-1273D01*
G01X70254Y83200D01*
X56512D01*
Y82280D01*
X47488D01*
Y83200D01*
X39015D01*
G02Y86800I-4015J1800D01*
G37*
G36*
G01X20985Y93200D02*
X19512D01*
Y92280D01*
X10488D01*
Y97720D01*
X11175D01*
X13254Y99800D01*
X16000D01*
G02X17792Y98173I0J-1800D01*
G01X17835Y97720D01*
X19512D01*
Y96800D01*
X20985D01*
G02Y93200I4015J-1800D01*
G37*
G36*
G01Y103200D02*
X19512D01*
Y102280D01*
X10488D01*
Y102700D01*
G03X9991Y103200I-500J0D01*
G02Y106800I9J1800D01*
G03X10488Y107300I-3J500D01*
G01Y107720D01*
X19512D01*
Y106800D01*
X20985D01*
G02Y103200I4015J-1800D01*
G37*
G36*
G01X19699Y82346D02*
X37746Y64300D01*
X54746D01*
X59300Y59746D01*
Y46885D01*
X60674Y45512D01*
X67970D01*
Y38200D01*
X68300D01*
Y31700D01*
X62200D01*
Y38200D01*
X62530D01*
Y40268D01*
X61734D01*
Y40232D01*
X59766D01*
Y40268D01*
X58030D01*
Y43065D01*
X55700Y45394D01*
Y58254D01*
X53254Y60700D01*
X36254D01*
X18254Y78700D01*
X15000D01*
G02X13727Y79227I0J1800D01*
G01X11310Y81644D01*
Y82280D01*
X10488D01*
Y87720D01*
X19512D01*
Y86800D01*
X20985D01*
G02Y83200I4015J-1800D01*
G01X20053D01*
G03X19699Y82346I0J-500D01*
G37*
G36*
G01X77200Y46508D02*
G02X80273Y47773I1800J-8D01*
G01X81050Y46996D01*
Y45512D01*
X86470D01*
Y38200D01*
X86800D01*
Y31700D01*
X80700D01*
Y38200D01*
X81030D01*
Y40268D01*
X80234D01*
Y40232D01*
X78266D01*
Y40268D01*
X76530D01*
Y45568D01*
G03X77200Y46508I-330J944D01*
G37*
G36*
G01X99300Y46009D02*
X99303Y45512D01*
X104720D01*
Y38200D01*
X105300D01*
Y31700D01*
X99200D01*
Y38200D01*
X99280D01*
Y40268D01*
X98484D01*
Y40232D01*
X96516D01*
Y40268D01*
X94780D01*
Y45512D01*
X95697D01*
X95700Y46009D01*
G02X99300I1800J-9D01*
G37*
G36*
G01X169625Y351166D02*
X170000Y351262D01*
Y351850D01*
X176000D01*
Y345969D01*
X181950D01*
Y351300D01*
X188050D01*
Y345969D01*
X188421D01*
Y339031D01*
X175579D01*
Y339150D01*
X170000D01*
Y346238D01*
X169625Y346334D01*
G02Y351166I625J2416D01*
G37*
G36*
G01X93281Y337870D02*
X93287Y337911D01*
Y339967D01*
X93213D01*
Y342033D01*
X93287D01*
Y343799D01*
X98571D01*
Y343518D01*
X100311D01*
Y346114D01*
X110130D01*
Y336421D01*
X100311D01*
Y339018D01*
X98571D01*
Y338201D01*
X98179D01*
Y336997D01*
X97091Y335909D01*
G02X93281Y337870I-1591J1591D01*
G37*
G36*
G01X53535Y346000D02*
X56550D01*
X67050Y356500D01*
X116950D01*
X127450Y346000D01*
X130744D01*
Y352567D01*
X132505D01*
Y354000D01*
G02X137495I2495J0D01*
G01Y352567D01*
X139256D01*
Y351495D01*
X141500D01*
G02X143995Y349000I0J-2495D01*
G01Y348500D01*
X147328D01*
X149000Y346828D01*
Y343961D01*
X149236D01*
Y339039D01*
X149000D01*
Y337800D01*
X151028D01*
X152600Y336228D01*
Y325772D01*
X151028Y324200D01*
X142272D01*
X140700Y325772D01*
Y328200D01*
X135128D01*
X134128Y327200D01*
X127472D01*
X123000Y331672D01*
Y340550D01*
X114050Y349500D01*
X69950D01*
X59450Y339000D01*
X53535D01*
G02X52984Y339044I0J3500D01*
G01X52945Y339050D01*
X50078D01*
X48928Y337900D01*
X43272D01*
X43064Y338107D01*
X42447Y337852D01*
Y337088D01*
X42617Y336917D01*
G02X39383Y333683I-1617J-1617D01*
G01X38750Y334315D01*
X38117Y333683D01*
G02X34883Y336917I-1617J1617D01*
G01X35116Y337151D01*
Y338665D01*
X34504Y339277D01*
X33956Y339050D01*
X28556D01*
Y340925D01*
X26965D01*
Y344075D01*
X28556D01*
Y345950D01*
X28761D01*
Y348789D01*
X30736Y350764D01*
G02X31147Y351097I1764J-1764D01*
G01X31376Y351244D01*
Y357917D01*
X41589D01*
X42272Y358600D01*
X45828D01*
X47300Y357128D01*
Y352328D01*
X50700Y348928D01*
Y345950D01*
X52945D01*
X52984Y345956D01*
G02X53535Y346000I552J-3456D01*
G37*
G36*
G01X218643Y343780D02*
Y331453D01*
X221295D01*
Y322547D01*
X212390D01*
Y331453D01*
X215043D01*
Y343780D01*
X214488D01*
Y349220D01*
X219732D01*
Y347484D01*
X219768D01*
Y345516D01*
X219732D01*
Y343780D01*
X218643D01*
G37*
G36*
G01X129000Y311456D02*
Y305650D01*
X122969D01*
Y299228D01*
X122010D01*
X121911Y298857D01*
G02X117089I-2411J643D01*
G01X116990Y299228D01*
X116031D01*
Y312071D01*
X122969D01*
Y311850D01*
X126393D01*
G03X127282Y313308I0J1000D01*
G02X127005Y314451I2218J1143D01*
G01Y316533D01*
X127222Y316750D01*
X125736Y318236D01*
G02X128998Y321995I1764J1764D01*
G01X130539D01*
Y322780D01*
X135461D01*
Y321720D01*
X137354D01*
Y320495D01*
X141655D01*
Y321000D01*
X151655D01*
Y310000D01*
X146732D01*
Y308484D01*
X146768D01*
Y306516D01*
X146732D01*
Y304780D01*
X133988D01*
Y309201D01*
X133858D01*
Y309504D01*
G03X133387Y310003I-500J0D01*
G02X131584Y311428I113J1997D01*
G03X130303Y312089I-958J-286D01*
G02X129500Y311956I-803J2362D01*
G03X129000Y311456I0J-500D01*
G37*
G36*
G01X151500Y279505D02*
X150500D01*
G02X148736Y280236I0J2495D01*
G01X147005Y281967D01*
Y282880D01*
X146031D01*
Y289620D01*
X147925D01*
Y290680D01*
X151075D01*
Y289620D01*
X153960D01*
Y290643D01*
X159360D01*
Y282842D01*
X154991D01*
G03X153992Y281888I0J-1000D01*
G02X151500Y279505I-2492J112D01*
G37*
G36*
G01X183551Y290127D02*
G03X183534Y289476I371J-335D01*
G02X181600Y285405I-1934J-1576D01*
G01X181009D01*
Y282469D01*
X174859D01*
Y284757D01*
X172741D01*
Y282469D01*
X166591D01*
Y282842D01*
X161440D01*
Y290643D01*
X165614D01*
X165767Y290795D01*
X166591D01*
Y293157D01*
X161440D01*
Y300958D01*
X166840D01*
Y299295D01*
X171131D01*
Y299920D01*
X173025D01*
Y300980D01*
X176175D01*
Y299920D01*
X178069D01*
Y297060D01*
X180429Y294700D01*
Y294194D01*
X180994D01*
X181058Y294211D01*
G02X183551Y290127I642J-2411D01*
G37*
G36*
G01X224220Y43200D02*
Y38768D01*
X222484D01*
Y38732D01*
X220516D01*
Y38768D01*
X218780D01*
Y43200D01*
X218167D01*
Y49300D01*
X224667D01*
Y43200D01*
X224220D01*
G37*
G36*
G01X222750Y65250D02*
Y64669D01*
X223021D01*
Y62171D01*
X224417Y60776D01*
Y56800D01*
X224667D01*
Y50700D01*
X218167D01*
Y57731D01*
X216450D01*
Y53050D01*
X216767D01*
Y46950D01*
X215193D01*
X210243Y42000D01*
X209400D01*
Y40600D01*
X200600D01*
Y49400D01*
X209157D01*
X210267Y50509D01*
Y53050D01*
X210450D01*
Y57731D01*
X210179D01*
Y64669D01*
X216750D01*
Y65250D01*
G02X222750I3000J0D01*
G37*
G54D90*
X12000Y209500D03*
Y219500D03*
Y229500D03*
X57500Y199500D03*
X47500D03*
X67500D03*
G54D88*
X10000Y24500D03*
X205500Y360500D03*
X219500Y28000D03*
G54D89*
X12000Y199500D03*
%LPD*%
G75*
G36*
G01X45300Y351685D02*
Y351500D01*
X48700Y348100D01*
Y344075D01*
X48465D01*
Y340265D01*
X48100Y339900D01*
X44311D01*
Y347924D01*
X43628Y348607D01*
Y356600D01*
X45000D01*
X45300Y356300D01*
Y355638D01*
X45218Y355513D01*
G03Y351810I2816J-1851D01*
G01X45300Y351685D01*
G37*
G36*
G01X150200Y326200D02*
X143100D01*
X142700Y326600D01*
Y329200D01*
X141700Y330200D01*
X134300D01*
X133300Y329200D01*
X128300D01*
X125000Y332500D01*
Y343000D01*
X126000Y344000D01*
X132539D01*
Y343587D01*
X137461D01*
Y344000D01*
X138000D01*
X140500Y346500D01*
X146500D01*
X147000Y346000D01*
Y343961D01*
X146677D01*
Y339039D01*
X147000D01*
Y336800D01*
X148000Y335800D01*
X150200D01*
X150600Y335400D01*
Y326600D01*
X150200Y326200D01*
G37*
G54D10*
X9921Y9921D03*
Y360079D03*
X220079Y9921D03*
Y360079D03*
G54D20*
X36500Y43890D03*
Y40110D03*
X46500D03*
Y43890D03*
X44000Y122110D03*
Y125890D03*
X65250Y42890D03*
Y39110D03*
X60750Y42890D03*
Y39110D03*
X70000Y262110D03*
Y265890D03*
X74500Y316110D03*
X70000D03*
X74500Y319890D03*
X70000D03*
X83750Y42890D03*
Y39110D03*
X79250Y42890D03*
Y39110D03*
X82500Y225110D03*
Y228890D03*
X79000Y316110D03*
X89000D03*
X79000Y319890D03*
X89000D03*
X102000Y42890D03*
Y39110D03*
X97500Y42890D03*
Y39110D03*
X100000Y98890D03*
Y95110D03*
X104500Y234110D03*
Y237890D03*
Y244110D03*
Y247890D03*
X100000Y313110D03*
Y316890D03*
X105000Y313110D03*
Y316890D03*
X117295Y78725D03*
Y74945D03*
X119000Y316610D03*
Y320390D03*
X174500Y10110D03*
Y13890D03*
Y33390D03*
Y29610D03*
X159000Y175110D03*
Y178890D03*
X183800Y219410D03*
X178000Y219610D03*
X183800Y223190D03*
X178000Y223390D03*
X193800Y282902D03*
Y286682D03*
X213500Y219610D03*
X208000D03*
X213500Y223390D03*
X208000D03*
X208779Y273336D03*
Y277116D03*
X204279Y273336D03*
Y277116D03*
X211779Y296110D03*
X207500D03*
X197827Y286682D03*
Y282902D03*
X211779Y299890D03*
X207500D03*
X221500Y37610D03*
Y41390D03*
X222500Y219610D03*
Y223390D03*
G54D11*
G01X129500Y339000D02*
X115500Y353000D01*
X68500D01*
X58000Y342500D01*
X53535D01*
X10000Y24500D03*
X205500Y360500D03*
X219500Y28000D03*
G54D30*
X57750Y34950D03*
X65250D03*
X61500Y27050D03*
X76250Y34950D03*
X83750D03*
X80000Y27050D03*
X94750Y34950D03*
X102250D03*
X98500Y27050D03*
X188750Y355950D03*
X181250D03*
X185000Y348050D03*
G54D21*
X36500Y29843D03*
X194000D03*
X197157Y327000D03*
G54D12*
G01X117295Y4114D02*
Y22900D01*
G01D02*
Y27171D01*
G01Y51063D02*
Y31029D01*
G01Y74945D02*
Y58937D01*
G01X121114Y78764D02*
X125731D01*
G01X129590D02*
X132720D01*
G02X140459Y75559I0J-10944D01*
G01X117295Y93700D02*
Y78725D01*
G01Y115200D02*
Y99200D01*
G01X146701Y69329D02*
X144165Y71865D01*
X144152D01*
X140459Y75559D01*
X15000Y80500D03*
X16000Y98000D03*
X11500Y120500D03*
X10000Y105000D03*
X11000Y140000D03*
X10000Y135000D03*
X14000Y142000D03*
X14500Y159000D03*
X12500Y299500D03*
X35000Y58000D03*
Y53000D03*
X36500Y46500D03*
X35000Y78000D03*
Y68000D03*
X22000Y259500D03*
X33500Y263618D03*
X32664Y279336D03*
X32000Y271500D03*
X23500Y272000D03*
X24000Y268500D03*
X31500Y288000D03*
X21000Y316000D03*
X31500D03*
X29000Y309000D03*
X24000Y310500D03*
X20882Y319118D03*
X36500Y335300D03*
X51500Y46000D03*
X55000Y58000D03*
X50000D03*
X45000D03*
X40000D03*
X55000Y53000D03*
X50000D03*
X45000D03*
X40000D03*
X55000Y48000D03*
X46500Y46200D03*
X42500Y51500D03*
X40000Y78000D03*
X45000D03*
X50000D03*
X55000D03*
Y68000D03*
X50000D03*
X45000D03*
X40000D03*
X57000Y95000D03*
Y101000D03*
X45000Y103500D03*
X57000Y105500D03*
X47000Y115500D03*
X54586Y116086D03*
X45000Y110000D03*
X57000Y111000D03*
X55500Y129500D03*
X55600Y135000D03*
X50000Y130000D03*
X49500Y133000D03*
Y150080D03*
X56112Y158000D03*
X48900Y168000D03*
X54400Y173500D03*
X49500Y171500D03*
X58500Y176500D03*
X57000Y163000D03*
X49000Y260500D03*
X53000Y264000D03*
X52500Y267500D03*
X44000Y276500D03*
X45578Y281078D03*
X45000Y285500D03*
X51500Y307000D03*
X48890Y311110D03*
X43500Y310000D03*
X42500Y304000D03*
X41000Y335300D03*
X39000Y345200D03*
X64750Y7250D03*
X60000Y58000D03*
Y53000D03*
X65000D03*
Y58000D03*
X70000Y53000D03*
Y58000D03*
X75000Y53000D03*
Y58000D03*
Y48000D03*
X70000D03*
X65000D03*
X60000D03*
Y78000D03*
Y68000D03*
X65000D03*
X70000D03*
X75000D03*
X73000Y83000D03*
X68500Y121500D03*
X61000Y116500D03*
X75500Y115500D03*
X59500Y109500D03*
X73500Y138000D03*
X71500Y131000D03*
X70000Y125000D03*
X78000Y128500D03*
X64972Y133445D03*
X78000Y137500D03*
X74500Y142500D03*
X75905Y140000D03*
X65500Y128000D03*
X66163Y135756D03*
X78000Y145500D03*
X66500Y150000D03*
X59071Y152000D03*
X71962Y151610D03*
X66000Y164000D03*
X69500Y188500D03*
X75000Y322500D03*
X94250Y6750D03*
X82750Y7250D03*
X80000Y53000D03*
Y58000D03*
X85000Y53000D03*
Y58000D03*
X90000Y53000D03*
Y58000D03*
X95000Y53000D03*
Y58000D03*
X90000Y48000D03*
X85000D03*
X97500Y46000D03*
X79000Y46500D03*
X80000Y68000D03*
X85000D03*
X90000D03*
X95000D03*
X96000Y109000D03*
X87000Y116000D03*
X96633Y114000D03*
X83000Y141000D03*
X85000Y155400D03*
X81164Y152664D03*
X85000Y171500D03*
X86154Y168154D03*
X86000Y174500D03*
X93500Y175950D03*
Y179000D03*
X85331Y244331D03*
X81500Y317000D03*
X89000Y312500D03*
X93500Y317000D03*
X89000Y322500D03*
X78500D03*
X110700Y3200D03*
X113000Y24700D03*
X110700Y21100D03*
X110800Y16700D03*
X110900Y12100D03*
X110700Y7300D03*
X113000Y29000D03*
Y33500D03*
Y39000D03*
X113500Y44000D03*
X109500Y46500D03*
X108500Y50000D03*
Y54000D03*
Y57500D03*
X109000Y61000D03*
X113000Y62500D03*
X100000Y53000D03*
Y58000D03*
Y63000D03*
X105000Y53000D03*
Y58000D03*
Y63000D03*
X113000Y80500D03*
Y66000D03*
Y70000D03*
Y75000D03*
X100000Y68000D03*
X105000D03*
X110000Y73000D03*
Y68000D03*
X112600Y94400D03*
X112800Y98900D03*
X100500Y102000D03*
X107500Y103100D03*
X113000Y85500D03*
Y90000D03*
X113600Y109100D03*
X113300Y104300D03*
X104339Y106833D03*
X109500Y114500D03*
X111390Y112715D03*
X100784Y162750D03*
X111621Y159501D03*
X99500Y170329D03*
X101000Y166000D03*
X109004Y169271D03*
X107610Y234110D03*
X109500Y265500D03*
X110500Y313500D03*
X107500Y316500D03*
X128500Y22000D03*
X133500D03*
X122900Y22200D03*
X121500Y43500D03*
Y38500D03*
Y34000D03*
X122000Y29500D03*
X133500Y42000D03*
Y37000D03*
Y32000D03*
X128500D03*
Y37000D03*
Y42000D03*
Y27000D03*
X133500D03*
X121500Y61500D03*
X125500Y58500D03*
Y55000D03*
Y52000D03*
Y48000D03*
X133500Y52000D03*
Y47000D03*
X129000Y64000D03*
X134000D03*
X133500Y57000D03*
X129000Y82500D03*
X133500Y82000D03*
X136000Y74000D03*
X133000Y75000D03*
X130000Y74500D03*
X126500D03*
X123000D03*
X121500Y71500D03*
Y68000D03*
Y64500D03*
X125500Y82500D03*
X129000Y69000D03*
X134000D03*
X121400Y103600D03*
X122200Y94700D03*
X121800Y99200D03*
X135000Y98500D03*
X121500Y85000D03*
Y90000D03*
X128125Y93125D03*
X121400Y109400D03*
X135000Y104000D03*
X126500Y121500D03*
X126553Y124553D03*
X129000Y162000D03*
X118000Y170000D03*
X126500Y169071D03*
X125300Y174900D03*
X123500Y168652D03*
X118000Y165500D03*
X126005Y298000D03*
X119500Y299500D03*
X138500Y22000D03*
X143500D03*
X148500D03*
X153500D03*
X138500Y17000D03*
X143500D03*
X148500D03*
X153500D03*
Y12000D03*
X148500D03*
X143500D03*
X138500D03*
X143500Y7000D03*
X148500D03*
X153500D03*
Y42000D03*
Y37000D03*
Y32000D03*
X148500Y42000D03*
Y37000D03*
Y32000D03*
X143500D03*
Y37000D03*
Y42000D03*
X138500D03*
Y37000D03*
Y32000D03*
Y27000D03*
X143500D03*
X148500D03*
X153500D03*
X157000Y63000D03*
X154000Y60500D03*
X151000Y57000D03*
X146500Y56000D03*
X143500Y58500D03*
X141000Y61500D03*
X153500Y52000D03*
Y47000D03*
X148500Y52000D03*
Y47000D03*
X143500D03*
Y52000D03*
X138500D03*
Y47000D03*
X143500Y80500D03*
X138500Y81000D03*
X146000Y77000D03*
X148000Y74500D03*
X151500Y74000D03*
X155500D03*
X143000Y65500D03*
X141500Y69000D03*
X139000Y71500D03*
X155000Y148000D03*
Y150500D03*
X154000Y234500D03*
X163500Y22000D03*
X168500D03*
X158500D03*
X163500Y17000D03*
X168500D03*
X158500D03*
Y12000D03*
X168500D03*
X163500D03*
Y7000D03*
X168500D03*
X158500D03*
X174500Y16500D03*
X158500Y42000D03*
Y37000D03*
Y32000D03*
X168500Y42000D03*
Y37000D03*
Y32000D03*
X163500Y42000D03*
Y37000D03*
Y32000D03*
Y27000D03*
X168500D03*
X158500D03*
X173500Y42000D03*
X174500Y36000D03*
X158500Y52000D03*
Y47000D03*
X168500Y52000D03*
Y47000D03*
X163500Y52000D03*
Y47000D03*
X173500D03*
Y52000D03*
Y57000D03*
X168500D03*
X173500Y62000D03*
X168500D03*
X163500Y57000D03*
X158500D03*
X163500Y62000D03*
X158000Y71500D03*
X161000Y69000D03*
X160000Y65500D03*
X173500Y67000D03*
X168500D03*
Y72000D03*
X163500D03*
Y77000D03*
X168500D03*
X158500D03*
X171500Y81500D03*
X175500Y99000D03*
Y123600D03*
X173500Y149500D03*
X173000Y175500D03*
X173500Y170000D03*
X168000Y192000D03*
X173750Y183250D03*
X166500Y187500D03*
X165894Y194213D03*
X170250Y348750D03*
X178500Y42000D03*
X183500D03*
X188500D03*
X193500D03*
X194000Y35000D03*
X188500D03*
X183500D03*
X178500Y52000D03*
Y47000D03*
X183500D03*
Y52000D03*
X188500Y47000D03*
Y52000D03*
X193500Y47000D03*
Y52000D03*
Y57000D03*
X188500D03*
X183500D03*
X178500D03*
X193500Y62000D03*
X188500D03*
X183500D03*
X178500D03*
X193500Y67000D03*
X188500D03*
X183500D03*
X178500D03*
X177500Y79500D03*
X180000Y92000D03*
X179000Y85000D03*
X180500Y108500D03*
X179000Y132500D03*
Y141000D03*
Y128500D03*
Y136000D03*
Y160500D03*
Y155000D03*
Y179000D03*
X186000Y171000D03*
X179000Y165000D03*
X178000Y185500D03*
X183800Y226000D03*
X194500Y252500D03*
X178550Y355950D03*
X210000Y130000D03*
X213500Y226000D03*
X208000D03*
X207800Y249600D03*
X203000Y242900D03*
X216000Y254000D03*
X209500Y261500D03*
X200890Y265110D03*
X209000Y315000D03*
X224500Y37500D03*
X222000Y139500D03*
X221000Y125000D03*
Y135000D03*
X221108Y155000D03*
X222500Y226000D03*
X223500Y346500D03*
G54D22*
X33571Y296500D03*
X37429D03*
X50571Y299000D03*
X54429D03*
X48929Y321500D03*
X45071D03*
X74071Y135000D03*
Y131000D03*
X62929Y149000D03*
X59071D03*
X77571Y250000D03*
X90571Y92500D03*
X94429D03*
X77929Y135000D03*
Y131000D03*
X81429Y250000D03*
X92071Y341000D03*
X95929D03*
X109929Y298500D03*
X106071D03*
X129590Y78764D03*
X125731D03*
X131429Y103000D03*
X127571D03*
X134929Y122000D03*
X131071D03*
X134929Y128500D03*
X131071D03*
X134929Y133500D03*
X131071D03*
X136500Y312000D03*
X140358D03*
X220538Y285532D03*
X216680D03*
G54D13*
X13110Y95000D03*
X16890D03*
X13110Y85000D03*
X16890D03*
X13110Y105000D03*
X16890D03*
X13110Y115000D03*
X16890D03*
X13110Y125000D03*
X16890D03*
X13110Y135000D03*
X16890D03*
X13110Y155000D03*
X16890D03*
X13110Y145000D03*
X16890D03*
X13110Y165000D03*
X16890D03*
X8890Y253500D03*
X5110D03*
X8890Y263500D03*
X5110D03*
X8890Y280500D03*
X5110D03*
X8890Y285500D03*
X5110D03*
X8390Y316500D03*
X4610D03*
Y309000D03*
X8390D03*
X26890Y296500D03*
X23110D03*
X50110Y95000D03*
X53890D03*
X50110Y85000D03*
X53890D03*
X50110Y101000D03*
X53890D03*
X50110Y111000D03*
X53890D03*
X50110Y106000D03*
X53890D03*
X50110Y158000D03*
X53890D03*
X50110Y153000D03*
X53890D03*
X50110Y163000D03*
X53890D03*
X45110Y253500D03*
X48890D03*
X45110Y248500D03*
X48890D03*
X56110Y263500D03*
Y268000D03*
X53890Y276500D03*
X50110D03*
X53890Y280500D03*
X50110D03*
X55390Y289500D03*
X51610D03*
Y285500D03*
X55390D03*
X41610Y299000D03*
X45390D03*
X55390Y294000D03*
X51610D03*
X45110Y306500D03*
X48890D03*
X45110Y314000D03*
X48890D03*
X75890Y122500D03*
X72110D03*
X71610Y146500D03*
X75390D03*
X59890Y263500D03*
Y268000D03*
X104610Y278000D03*
X108390D03*
X104610Y273500D03*
X108390D03*
X106110Y303000D03*
X109890D03*
X114390Y316500D03*
X110610D03*
X117334Y78764D03*
X121114D03*
X136610Y307500D03*
X140690Y179100D03*
X136910D03*
X156110Y191000D03*
X147890Y307500D03*
X144110D03*
X140390D03*
X159890Y191000D03*
X182110Y95000D03*
X185890D03*
X182110Y85000D03*
X185890D03*
X182110Y115000D03*
X185890D03*
X182110Y105000D03*
X185890D03*
X182110Y125000D03*
X185890D03*
X182110Y141000D03*
X185890D03*
X182110Y131000D03*
X185890D03*
X182110Y135000D03*
X185890D03*
X182110Y145000D03*
X185890D03*
X182110Y149000D03*
X185890D03*
X182110Y160500D03*
X185890D03*
X182110Y155000D03*
X185890D03*
X182110Y165000D03*
X185890D03*
X182110Y175000D03*
X185890D03*
X182110Y179000D03*
X185890D03*
X192110Y247000D03*
X185890Y323000D03*
X182110D03*
Y328500D03*
X185890D03*
X214110Y85000D03*
Y95000D03*
Y115000D03*
Y105000D03*
Y120000D03*
Y135000D03*
Y125000D03*
Y130000D03*
Y139500D03*
Y145000D03*
X214218Y155000D03*
X214110Y165000D03*
X197110Y252000D03*
X200890D03*
X196110Y243000D03*
X199890D03*
X197110Y257000D03*
X200890D03*
X195890Y247000D03*
X204890Y247500D03*
X201110D03*
X208390Y265000D03*
X204610D03*
X212110D03*
X200890Y262000D03*
X197110D03*
X217890Y85000D03*
Y95000D03*
Y115000D03*
Y105000D03*
Y120000D03*
Y135000D03*
Y125000D03*
Y130000D03*
Y139500D03*
Y145000D03*
X217998Y155000D03*
X217890Y165000D03*
X215890Y265000D03*
X216680Y289753D03*
X220459D03*
X220890Y346500D03*
X217110D03*
G54D31*
X56000Y121894D03*
X51000D03*
X56000Y141106D03*
X51000D03*
X66000Y121894D03*
X61000D03*
X66000Y141106D03*
X61000D03*
G54D40*
X86783Y121236D03*
Y140921D03*
Y138953D03*
Y136984D03*
Y135016D03*
Y133047D03*
Y131079D03*
Y129110D03*
Y127142D03*
Y125173D03*
Y123205D03*
Y150764D03*
Y148795D03*
Y146827D03*
Y144858D03*
Y142890D03*
X122217Y121236D03*
Y123205D03*
Y125173D03*
Y127142D03*
Y129110D03*
Y131079D03*
Y133047D03*
Y135016D03*
Y136984D03*
Y138953D03*
Y140921D03*
Y142890D03*
Y144858D03*
Y146827D03*
Y148795D03*
Y150764D03*
G54D50*
X135980Y4000D03*
X123382D03*
G54D23*
X26650Y331000D03*
X20350D03*
X58350Y21500D03*
X64650D03*
X76350D03*
X82650D03*
X94350D03*
X100650D03*
X190500Y275500D03*
X185150Y342500D03*
X178850D03*
X213450Y61200D03*
X196799Y275500D03*
X219750Y61200D03*
G54D32*
X52776Y128547D03*
Y130516D03*
Y132484D03*
Y134453D03*
X62224D03*
Y132484D03*
Y130516D03*
Y128547D03*
G54D41*
X89736Y118283D03*
X91705D03*
X93673D03*
X95642D03*
Y153717D03*
X93673D03*
X91705D03*
X89736D03*
X97610Y118283D03*
X99579D03*
X101547D03*
X103516D03*
X105484D03*
X107453D03*
X109421D03*
X111390D03*
X113358D03*
X115327D03*
Y153717D03*
X113358D03*
X111390D03*
X109421D03*
X107453D03*
X105484D03*
X103516D03*
X101547D03*
X99579D03*
X97610D03*
X117295Y118283D03*
X119264D03*
Y153717D03*
X117295D03*
G54D14*
X12000Y199500D03*
X25000Y45000D03*
Y175000D03*
X57500Y209500D03*
X47500D03*
X67500D03*
X77500D03*
X102000Y199500D03*
X112000D03*
X136000D03*
X173000D03*
X172500Y263500D03*
Y253500D03*
Y273500D03*
X195000Y175000D03*
X198000Y199500D03*
X183000D03*
X205000Y45000D03*
X218000Y199500D03*
X208000D03*
G54D33*
X45000Y262071D03*
Y265929D03*
X72000Y239429D03*
Y235571D03*
X84000Y98571D03*
Y102429D03*
X92000Y253929D03*
Y250071D03*
X80000Y262071D03*
Y265929D03*
X84500Y316071D03*
Y319929D03*
X107500Y105571D03*
Y109429D03*
X101000Y105571D03*
Y109429D03*
X103800Y166429D03*
Y162571D03*
X108800Y166429D03*
Y162571D03*
X99500Y172571D03*
Y176429D03*
X97500Y253929D03*
Y250071D03*
X108000Y293929D03*
Y290071D03*
Y282071D03*
Y285929D03*
X117295Y27171D03*
Y31029D03*
X128500Y111071D03*
Y114929D03*
X126000Y166429D03*
Y162571D03*
X122000Y166429D03*
Y162571D03*
X120500Y173071D03*
Y176929D03*
X211000Y243571D03*
Y247429D03*
X219000Y257071D03*
Y260929D03*
G54D42*
X104500Y136000D03*
G54D24*
X28939Y353661D03*
X48624D03*
G54D51*
X120523Y22900D03*
X117295D03*
G54D60*
X126000Y308750D03*
Y302250D03*
X173000Y348750D03*
Y342250D03*
G54D15*
X12000Y209500D03*
Y219500D03*
Y239500D03*
Y229500D03*
X25000Y55000D03*
Y65000D03*
Y85000D03*
X35000D03*
X25000Y95000D03*
X35000D03*
X25000Y105000D03*
X35000D03*
X25000Y115000D03*
X35000D03*
X25000Y125000D03*
X35000D03*
X25000Y135000D03*
X35000D03*
X25000Y145000D03*
X35000D03*
X25000Y155000D03*
X35000D03*
X25000Y165000D03*
X35000D03*
Y175000D03*
X57500Y199500D03*
X47500D03*
X67500D03*
X77500D03*
X102000Y209500D03*
Y219500D03*
X112000Y209500D03*
Y219500D03*
X136000Y209500D03*
X173000D03*
X162500Y263500D03*
Y253500D03*
Y273500D03*
X195000Y85000D03*
Y95000D03*
Y105000D03*
Y115000D03*
Y125000D03*
Y135000D03*
Y145000D03*
Y155000D03*
Y165000D03*
X198000Y209500D03*
X183000D03*
X205000Y55000D03*
Y65000D03*
Y85000D03*
Y95000D03*
Y105000D03*
Y115000D03*
Y125000D03*
Y135000D03*
Y145000D03*
Y155000D03*
Y165000D03*
Y175000D03*
X218000Y209500D03*
X208000D03*
G54D25*
X33664Y353760D03*
X36223D03*
X38782D03*
X41341D03*
X43900D03*
G54D43*
X96500Y235669D03*
X93941D03*
X82559D03*
X80000D03*
X77441D03*
X93941Y244331D03*
X96500D03*
X82559D03*
X77441D03*
X80000D03*
X99059Y235669D03*
Y244331D03*
G54D16*
X15878Y250823D03*
Y253382D03*
Y255941D03*
Y258500D03*
Y261059D03*
Y263618D03*
Y266177D03*
Y275323D03*
Y277882D03*
Y280441D03*
Y283000D03*
Y285559D03*
Y288118D03*
Y290677D03*
X15378Y306323D03*
Y308882D03*
Y311441D03*
Y314000D03*
Y316559D03*
Y319118D03*
Y321677D03*
X38122Y250823D03*
Y253382D03*
Y255941D03*
Y258500D03*
Y261059D03*
Y263618D03*
Y266177D03*
Y275323D03*
Y277882D03*
Y280441D03*
Y283000D03*
Y285559D03*
Y288118D03*
Y290677D03*
X37622Y306323D03*
Y308882D03*
Y311441D03*
Y314000D03*
Y316559D03*
Y319118D03*
Y321677D03*
G54D70*
X146655Y313000D03*
Y318000D03*
Y323000D03*
Y328000D03*
Y333000D03*
G54D52*
X117295Y58937D03*
Y51063D03*
G54D61*
X146840Y60978D03*
X155053Y69190D03*
G54D34*
X51075Y364291D03*
G54D53*
X120445Y55000D03*
G54D35*
X57500Y131500D03*
G54D80*
X205532Y284532D03*
Y286500D03*
Y288468D03*
X207500Y284532D03*
Y288468D03*
X209468Y284532D03*
Y286500D03*
Y288468D03*
G54D26*
X37404Y339612D03*
X40160D03*
X38782Y342959D03*
G54D62*
X142741Y77841D03*
X140459Y75559D03*
G54D17*
X5000Y256500D03*
Y267000D03*
Y277000D03*
X15378Y303500D03*
X4500Y320000D03*
X4610Y312500D03*
X3500Y331000D03*
X21500Y250500D03*
X22000Y275500D03*
X20000Y268231D03*
X33500Y299500D03*
X21500Y283000D03*
X38000Y299500D03*
X25744Y338744D03*
X23000Y342500D03*
X45000Y259000D03*
X52000Y251500D03*
X45000Y269500D03*
X48500Y285500D03*
X42500Y295500D03*
X50000Y302000D03*
X54500D03*
X52000Y321500D03*
X45000Y325000D03*
X77500Y230000D03*
X68500Y236000D03*
X72000Y242500D03*
X70000Y259000D03*
X74500Y250500D03*
X72000Y280760D03*
X74000Y300500D03*
X69500Y291000D03*
X70000Y323000D03*
X84000Y94500D03*
X96500Y140000D03*
X92500D03*
X96500Y136000D03*
X92500D03*
X96500Y132000D03*
X92500D03*
X96500Y128000D03*
X92500D03*
Y124000D03*
X96500D03*
Y148000D03*
X92500D03*
X96500Y144000D03*
X92500D03*
X80000Y241000D03*
X96500Y232000D03*
X91500Y232500D03*
X80000Y259000D03*
X97500Y257000D03*
X84000Y250000D03*
X92000Y257000D03*
X88500Y250000D03*
X86000Y280000D03*
X83500Y266000D03*
X88500Y294000D03*
X89000Y299000D03*
X85000Y300000D03*
X89500Y288500D03*
X83500Y323500D03*
X95500Y337500D03*
X88500Y341000D03*
X116500Y136000D03*
X112500Y140000D03*
X108500D03*
X116500D03*
X112500Y136000D03*
X108500D03*
X112500Y132000D03*
X108500D03*
X116500D03*
X112500Y128000D03*
X108500D03*
X116500D03*
X108500Y124000D03*
X112500D03*
X116500D03*
X104500Y140000D03*
X100500D03*
X104500Y136000D03*
X100500D03*
X104500Y132000D03*
X100500D03*
X104500Y128000D03*
X100500D03*
Y124000D03*
X104500D03*
X112500Y148000D03*
X108500D03*
X116500D03*
X112500Y144000D03*
X108500D03*
X116500D03*
X104500Y148000D03*
X100500D03*
X104500Y144000D03*
X100500D03*
X111700Y162700D03*
X101000Y248500D03*
X111000Y294000D03*
X113000Y298500D03*
X111000Y282000D03*
X104000Y310000D03*
X99500D03*
X112500Y303000D03*
X110500Y347500D03*
X134000Y137000D03*
X132500Y125500D03*
X136000Y148000D03*
X133500Y312000D03*
X129500Y314451D03*
X127500Y320000D03*
X127543Y325043D03*
X119000Y324000D03*
X135000Y333500D03*
X128500Y334000D03*
X135000Y354000D03*
X143500Y108000D03*
X146500D03*
X150900Y217100D03*
X156600Y217800D03*
X153200Y221200D03*
X147000Y220000D03*
X148500Y226100D03*
X154425Y300400D03*
X151500Y282000D03*
Y309500D03*
X141000Y323000D03*
X140000Y335000D03*
X157000Y340000D03*
X151500Y347000D03*
X141500Y349000D03*
X160400Y293000D03*
X171200Y312300D03*
X166100Y312100D03*
X160700Y312000D03*
X175500Y317500D03*
X171700Y332800D03*
X165900Y332900D03*
X160700Y333000D03*
X176000Y326500D03*
X189500Y244500D03*
X190580Y283000D03*
X181600Y287900D03*
X181700Y291800D03*
X190000Y323000D03*
X211000Y241029D03*
X197827Y279673D03*
X212000Y291000D03*
X215017Y295517D03*
X206000Y302500D03*
X221788Y261000D03*
X218500Y265000D03*
X220538Y281538D03*
X219500Y294000D03*
G54D44*
X114145Y55000D03*
G54D71*
X151500Y341500D03*
X144413D03*
G54D81*
G01X57500Y131500D02*
X56000D01*
X55500Y131000D01*
Y129500D01*
G01X55600Y135000D02*
X56500D01*
X57500Y134000D01*
Y131500D01*
G01X52776Y128547D02*
X54547D01*
X55500Y129500D01*
G01X52776Y130516D02*
X50516D01*
X50000Y130000D01*
G01X57500Y298859D02*
X62760D01*
G01X38782Y342959D02*
Y344982D01*
X39000Y345200D01*
G01X58250Y10500D02*
Y21400D01*
X58350Y21500D01*
G01X76250Y10500D02*
Y21400D01*
X76350Y21500D01*
G01X62224Y132484D02*
X63984D01*
X64945Y133445D01*
X64972D01*
G01X62224Y134453D02*
X64047D01*
X64972Y133528D01*
Y133445D01*
G01X68173Y273760D02*
Y279173D01*
G01D02*
X70000Y281000D01*
X71760D01*
G01X69500Y291000D02*
X69487Y290987D01*
G01D02*
X62760D01*
G01X74000Y300500D02*
X74083Y300583D01*
G01D02*
Y306240D01*
G01X76051D02*
Y312449D01*
X74500Y314000D01*
G01X82153Y132700D02*
X82500Y133047D01*
X86783D01*
G01X78000Y128500D02*
X77929Y128571D01*
Y131000D01*
G01X81500Y135016D02*
X86783D01*
G01X85885Y279885D02*
Y273760D01*
G01X79981Y268519D02*
Y273760D01*
G01X86000Y280000D02*
X85885Y279885D01*
G01X89000Y299000D02*
X89147Y298853D01*
G01X88500Y294000D02*
X89417Y294917D01*
G01X89147Y298853D02*
X95240D01*
G01X89417Y294917D02*
X95240D01*
G01Y289013D02*
X90013D01*
X89500Y288500D01*
G01X101308Y297693D02*
X100500Y296885D01*
X95240D01*
G01X85000Y300000D02*
X83923Y301077D01*
Y306240D01*
G01X85891D02*
Y300891D01*
X85000Y300000D01*
G01X79000Y316110D02*
X80610D01*
X81500Y317000D01*
G01X78019Y306240D02*
Y312671D01*
X79000Y313652D01*
Y314000D01*
G01X81000Y312000D02*
X79987Y310987D01*
Y306240D01*
G01X89000Y319890D02*
Y322500D01*
G01X100650Y21500D02*
Y10600D01*
X100750Y10500D01*
G01X103516Y118283D02*
Y112516D01*
X103500Y112500D01*
G01X105566Y114418D02*
X105484Y114500D01*
Y118283D01*
G01X109421Y153717D02*
Y158579D01*
X108800Y159200D01*
Y162571D01*
G01X105484Y153717D02*
Y156566D01*
X103805Y158245D01*
Y160000D01*
G01X117295Y118283D02*
Y115200D01*
G01X122217Y119783D02*
Y121236D01*
G01X129248Y123823D02*
Y125669D01*
X127844Y127073D01*
X122286D01*
X122217Y127142D01*
G01X131071Y133500D02*
X131642Y134071D01*
Y135028D01*
X133613Y137000D01*
X134000D01*
G01X122217Y129110D02*
X122285Y129042D01*
X130529D01*
X131071Y128500D01*
G01X122217Y133047D02*
X130618D01*
X131071Y133500D01*
G01X132500Y125500D02*
X132403D01*
X131071Y126832D01*
Y128500D01*
G01X139300Y146800D02*
X138000Y145500D01*
X131155D01*
X126576Y140921D01*
X122217D01*
G01X136380Y139500D02*
X132791D01*
X128307Y135016D01*
X122217D01*
G01Y138953D02*
X127153D01*
X131900Y143700D01*
X139453D01*
X142236Y146483D01*
Y147385D01*
X144350Y149500D01*
G01X122217Y136984D02*
X127730D01*
X132646Y141900D01*
X140199D01*
X144035Y145736D01*
X148000D01*
G01X133136Y149136D02*
X132245D01*
X125999Y142890D01*
X122217D01*
G01Y148795D02*
X124000D01*
X124069Y148864D01*
X124304D01*
X125417Y149977D01*
Y151551D01*
X125000Y151968D01*
Y154111D01*
X126000Y155111D01*
G01X122217Y146827D02*
X124813D01*
X127500Y149514D01*
Y152399D01*
G01X122000Y159875D02*
Y159309D01*
X119264Y156564D01*
Y153717D01*
G01X130100Y152600D02*
X129550Y152050D01*
Y148987D01*
X125421Y144858D01*
X122217D01*
G01Y152500D02*
Y150764D01*
G01X209500Y261500D02*
X208516Y260516D01*
Y258709D01*
G01X210484D02*
Y259500D01*
X210484Y260516D01*
X209500Y261500D01*
G54D72*
X156660Y286743D03*
X164140D03*
X156660Y297058D03*
X160400D03*
X164140D03*
G54D27*
X25744Y342500D03*
X31256D03*
X47244D03*
X52756D03*
G54D36*
X62760Y279179D03*
Y281147D03*
Y283115D03*
Y285083D03*
Y287051D03*
Y289019D03*
Y290987D03*
Y292955D03*
Y294923D03*
Y296891D03*
Y298859D03*
Y300827D03*
X95240Y279173D03*
Y298853D03*
Y296885D03*
Y294917D03*
Y292949D03*
Y290981D03*
Y289013D03*
Y287045D03*
Y285077D03*
Y283109D03*
Y281141D03*
Y300821D03*
G54D18*
X7250Y331000D03*
X13750D03*
X58250Y10500D03*
X64750D03*
X76250D03*
X82750D03*
X94250D03*
X100750D03*
G54D54*
X117295Y95120D03*
Y97680D03*
G54D45*
X114736Y96400D03*
X119854D03*
G54D63*
X146701Y69329D03*
G54D82*
G01X71760Y281000D02*
X72000Y280760D01*
G01X114736Y96400D02*
X112800Y98336D01*
G01X112600Y94400D02*
X112736D01*
G01X112800Y98336D02*
Y98900D01*
G01X112736Y94400D02*
X114736Y96400D01*
G01X120523Y22900D02*
X122200D01*
X122900Y22200D01*
G01X117295Y95120D02*
Y93700D01*
G01X119854Y96400D02*
X121800Y98346D01*
G01X122200Y94700D02*
X121554D01*
G01X121800Y98346D02*
Y99200D01*
G01X121554Y94700D02*
X119854Y96400D01*
G01X117295Y99200D02*
Y97680D01*
G54D64*
X151150Y112500D03*
X144850D03*
X150650Y149500D03*
X144350D03*
G54D28*
X34845Y364291D03*
X42719D03*
G54D46*
X105079Y176000D03*
G54D37*
X68173Y273760D03*
X76045D03*
X74077D03*
X72109D03*
X70141D03*
X76051Y306240D03*
X74083D03*
X72115D03*
X70147D03*
X68179D03*
X89821Y273760D03*
X87853D03*
X85885D03*
X83917D03*
X81949D03*
X79981D03*
X78013D03*
X89827Y306240D03*
X87859D03*
X85891D03*
X83923D03*
X81955D03*
X79987D03*
X78019D03*
G54D55*
X135864Y151864D03*
X133136Y149136D03*
G54D19*
X36500Y10157D03*
X194000D03*
X216843Y327000D03*
G54D73*
X168255Y323000D03*
G54D83*
G01X-77102Y-80133D02*
X395398D01*
Y-180133D01*
X-79602D01*
Y-80133D01*
X-77102D01*
G01X-79602Y-160133D02*
X395398D01*
G01X-79602Y-140133D02*
X395398D01*
G01X-79602Y-120133D02*
X395398D01*
G01X-79602Y-100133D02*
X395398D01*
G01X15878Y250823D02*
X21177D01*
X21500Y250500D01*
G01X15878Y275323D02*
X21823D01*
X22000Y275500D01*
G01X15878Y266177D02*
X18677D01*
X20000Y267500D01*
Y268231D01*
G01X15878Y283000D02*
X21500D01*
G01X15378Y306323D02*
Y303500D01*
G01X33571Y296500D02*
Y299429D01*
X33500Y299500D01*
G01X37429Y296500D02*
Y298929D01*
X38000Y299500D01*
G01X38122Y290677D02*
Y295807D01*
X37429Y296500D01*
G01X37622Y321677D02*
X44894D01*
X45071Y321500D01*
G01X32500Y349000D02*
X33664Y350164D01*
Y353760D01*
G01X45000Y262071D02*
Y259000D01*
G01Y265929D02*
Y269500D01*
G01X38122Y266177D02*
X44752D01*
X45000Y265929D01*
G01X48929Y321500D02*
X52000D01*
G01X45071D02*
Y324929D01*
X45000Y325000D01*
G01Y349500D02*
X43900Y350600D01*
Y353760D01*
G01X72000Y239429D02*
Y242500D01*
G01Y235571D02*
X68929D01*
X68500Y236000D01*
G01X77441Y235669D02*
X72098D01*
X72000Y235571D01*
G01X77441Y244331D02*
Y249870D01*
X77571Y250000D01*
G01D02*
X75000D01*
X74500Y250500D01*
G01X77929Y131000D02*
X80158D01*
X81858Y132700D01*
X82153D01*
G01X77929Y135000D02*
X81484D01*
X81500Y135016D01*
G01X77929Y135000D02*
Y137429D01*
X78000Y137500D01*
G01X96500Y235669D02*
Y232000D01*
G01X77500Y230000D02*
X78000D01*
G01D02*
X80000Y232000D01*
Y235669D01*
G01X93941D02*
Y234941D01*
X91500Y232500D01*
G01X84000Y250000D02*
X81429D01*
G01X92000Y253929D02*
Y257000D01*
G01X80000Y244331D02*
Y241000D01*
G01X93941Y244331D02*
Y248130D01*
X92000Y250071D01*
G01D02*
X88571D01*
X88500Y250000D01*
G01X96500Y244331D02*
Y249071D01*
X97500Y250071D01*
G01X95929Y341000D02*
Y337929D01*
X95500Y337500D01*
G01X92071Y341000D02*
X88500D01*
G01X102661Y341268D02*
X96197D01*
X95929Y341000D01*
G01X114736Y96400D02*
X113400D01*
G01X100500Y102000D02*
X101000Y102500D01*
Y105571D01*
G01X103500Y112500D02*
Y111929D01*
X102000Y110429D01*
X101000Y109429D01*
G01X107500Y112484D02*
X105566Y114418D01*
G01X97500Y253929D02*
Y257000D01*
G01Y250071D02*
X99429D01*
X101000Y248500D01*
G01X110339Y341268D02*
Y347339D01*
X110500Y347500D01*
G01X119854Y96400D02*
X121200D01*
G01X126000Y155111D02*
X131750Y160861D01*
Y165300D01*
X132500Y166050D01*
G01X127500Y152399D02*
Y153358D01*
X136200Y162058D01*
Y164267D01*
X139733Y167800D01*
X139800D01*
X142000Y170000D01*
G01X150000D02*
X150061Y169939D01*
Y166561D01*
X149000Y165500D01*
X140686D01*
X138500Y163314D01*
Y161000D01*
X130100Y152600D01*
G01X155000Y150500D02*
X154790Y150710D01*
X151710D01*
X150650Y149650D01*
Y149500D01*
G01X155000Y148000D02*
X154500Y148500D01*
X151650D01*
X150650Y149500D01*
G01X160400Y297058D02*
Y300400D01*
X162850Y302850D01*
X174600D01*
G54D65*
X147000Y119669D03*
Y128331D03*
G54D56*
X132500Y172350D03*
Y166050D03*
X149500Y292550D03*
Y286250D03*
X159400Y145850D03*
Y152150D03*
X159500Y159350D03*
Y165650D03*
X174600Y296550D03*
Y302850D03*
G54D74*
X160500Y356000D03*
G54D29*
X26489Y364291D03*
G54D47*
X114921Y176000D03*
G54D38*
G01X35000Y175000D02*
X29000Y181000D01*
X12000D01*
X4000Y173000D01*
Y57240D01*
X15980Y45260D01*
X24740D01*
X25000Y45000D01*
G01X94250Y10500D02*
Y6750D01*
G01X213517Y50000D02*
Y49517D01*
X209000Y45000D01*
X205000D01*
G01X213450Y61200D02*
Y50066D01*
X213517Y50000D01*
G01X221417Y53750D02*
Y59533D01*
X219750Y61200D01*
G01D02*
Y65250D01*
X63000Y306000D03*
X95000Y274000D03*
X135103Y118165D03*
X127600Y108000D03*
X133140Y114200D03*
X133000Y109000D03*
X129000Y118900D03*
X137500Y126000D03*
X138000Y134500D03*
X137083Y155083D03*
X127874Y194874D03*
X122700Y195000D03*
X154500Y109000D03*
X155500Y115500D03*
X159400Y142000D03*
X163500Y145500D03*
X163700Y159500D03*
X163993Y150593D03*
X162900Y155000D03*
X159500Y170500D03*
X163169Y165500D03*
X219750Y65250D03*
G54D84*
G01X25744Y342500D02*
Y338744D01*
G01Y342500D02*
X23000D01*
G01X31256D02*
Y347756D01*
X32500Y349000D01*
G01X54968Y147005D02*
X52468D01*
X51000Y145537D01*
Y141106D01*
G01X56000D02*
Y145973D01*
X54968Y147005D01*
G01X50000Y130000D02*
X45500D01*
X44000Y128500D01*
Y125890D01*
G01X59071Y149000D02*
X56963D01*
X54968Y147005D01*
G01X50000Y302000D02*
X50571Y301429D01*
Y299000D01*
G01X54429D02*
X54570Y298859D01*
X57500D01*
G01X54429Y299000D02*
Y301929D01*
X54500Y302000D01*
G01X53535Y342500D02*
X52756D01*
G01X64750Y10500D02*
Y7250D01*
G01X70000Y125000D02*
X72110Y122890D01*
Y122500D01*
G01X68500Y121500D02*
X68106Y121894D01*
X66000D01*
G01X61000Y116500D02*
Y121894D01*
G01X73500Y138000D02*
X74071Y137429D01*
Y136034D01*
Y135000D01*
G01Y131000D02*
X71500D01*
G01X75390Y146500D02*
X77000D01*
X78000Y145500D01*
G01X66500Y150000D02*
X65500Y149000D01*
X62929D01*
G01X59071D02*
Y152000D01*
G01X82750Y10500D02*
Y7250D01*
G01X80000Y262071D02*
Y259000D01*
G01Y265929D02*
X83429D01*
X83500Y266000D01*
G01X80000Y265929D02*
X79981Y265948D01*
Y268519D01*
G01X106071Y298500D02*
X102115D01*
X101308Y297693D01*
G01X84500Y316071D02*
Y315689D01*
X83500Y314689D01*
Y314500D01*
X81000Y312000D01*
G01X84500Y319929D02*
Y322500D01*
G01D02*
X83500Y323500D01*
G01X107500Y103100D02*
Y105571D01*
G01Y109429D02*
Y112484D01*
G01X104339Y106833D02*
X104406Y106900D01*
Y107456D01*
X104506Y107556D01*
Y107734D01*
X106054Y109282D01*
X107353D01*
X107500Y109429D01*
G01X103805Y160000D02*
Y162566D01*
X103800Y162571D01*
G01X99500Y170329D02*
Y172571D01*
G01X101000Y166000D02*
X101139Y166139D01*
X101236D01*
X101526Y166429D01*
X103800D01*
G01X108800D02*
Y169067D01*
X109004Y169271D01*
G01X108800Y162571D02*
X111571D01*
X111700Y162700D01*
G01X100784Y162750D02*
X100750D01*
X100929Y162571D01*
X103800D01*
G01X104500Y234110D02*
X107610D01*
G01X108000Y293929D02*
X110929D01*
X111000Y294000D01*
G01X109929Y298500D02*
X113000D01*
G01X108000Y282071D02*
X110929D01*
X111000Y282000D01*
G01X106110Y303000D02*
Y298539D01*
X106071Y298500D01*
G01X109890Y303000D02*
X112500D01*
G01X135000Y104000D02*
X134000Y103000D01*
X131429D01*
G01X134929Y122000D02*
Y118339D01*
X135103Y118165D01*
G01X128500Y111071D02*
X127600Y110171D01*
Y108000D01*
G01X128500Y114929D02*
X125071D01*
X122217Y117783D01*
Y119783D01*
G01X128500Y114929D02*
X132929D01*
G01D02*
Y114411D01*
X133140Y114200D01*
G01X131071Y122000D02*
X129248Y123823D01*
G01X129000Y118900D02*
Y120189D01*
X130811Y122000D01*
X131071D01*
G01X134929Y128500D02*
X135000D01*
X137500Y126000D01*
G01X134929Y133500D02*
X135929Y134500D01*
X138000D01*
G01X143669Y159500D02*
Y156669D01*
X139500Y152500D01*
Y147000D01*
X139300Y146800D01*
G01X145866Y139500D02*
X136380D01*
G01X147000Y128331D02*
X141669D01*
X138999Y131001D01*
X137499D01*
G01X148000Y145736D02*
X153452D01*
X154134Y145055D01*
Y139500D01*
G01X137083Y155083D02*
X135864Y153864D01*
Y151864D01*
G01X136000Y148000D02*
X134272D01*
X133136Y149136D01*
G01X122000Y162571D02*
Y159875D01*
G01X126000Y162571D02*
Y159500D01*
X122217Y155717D01*
Y152500D01*
G01X126000Y162571D02*
X128429D01*
X129000Y162000D01*
G01X126500Y169071D02*
Y166929D01*
X126000Y166429D01*
G01X132500Y172350D02*
X127850D01*
X125300Y174900D01*
G01X123500Y168652D02*
Y167929D01*
X122000Y166429D01*
G01X132500Y166050D02*
X133375Y166925D01*
X135260D01*
X137500Y169166D01*
Y173495D01*
X140690Y176685D01*
Y179100D01*
G01X127874Y194874D02*
X136910Y185837D01*
Y179100D01*
G01X126005Y298000D02*
Y298798D01*
X126000Y298803D01*
Y302250D01*
G01X119500Y302500D02*
Y299500D01*
G01X129500Y314451D02*
Y315500D01*
X131957Y317957D01*
X133000D01*
G01X146655Y318000D02*
X133043D01*
X133000Y317957D01*
G01D02*
X131731Y319225D01*
X130127D01*
X129853Y319500D01*
X128000D01*
X127500Y320000D01*
G01X119500Y308799D02*
X125951D01*
X126000Y308750D01*
G01X133000Y325043D02*
X127543D01*
G01X135000Y349000D02*
X141500D01*
G01X135000D02*
Y354000D01*
G01X155500Y115500D02*
X154150D01*
X151150Y112500D01*
G01X154500Y109000D02*
X151150Y112350D01*
Y112500D01*
G01X147000Y119669D02*
X145500Y118169D01*
Y113150D01*
X144850Y112500D01*
G01X146500Y108000D02*
Y109225D01*
X145725Y110000D01*
Y111625D01*
X144850Y112500D01*
G01X143500Y108000D02*
X143295Y108205D01*
Y111295D01*
X144500Y112500D01*
X144850D01*
G01X159500Y159350D02*
X159350Y159500D01*
X152331D01*
G01X144350Y149500D02*
X144500Y149650D01*
Y152500D01*
X145369Y153369D01*
X158180D01*
X159400Y152150D01*
G01X156110Y191000D02*
X145700D01*
X140690Y185990D01*
Y179100D01*
G01X159890Y191000D02*
X161740D01*
X162500Y191760D01*
Y194695D01*
X165500Y197695D01*
Y216500D01*
X154000Y228000D01*
Y234500D01*
G01X149500Y292550D02*
X150050Y292000D01*
X159400D01*
X160400Y293000D01*
G01X154425Y300400D02*
X154700D01*
X156660Y298440D01*
Y297058D01*
G01X149500Y286250D02*
X156168D01*
X156660Y286743D01*
G01X151500Y282000D02*
X150500D01*
X149500Y283000D01*
Y286250D01*
G01X146655Y323000D02*
X141000D01*
G01X151500Y341500D02*
Y347000D01*
G01Y341500D02*
X155500D01*
X157000Y340000D01*
G01X159400Y145850D02*
Y142000D01*
G01X163500Y145500D02*
X162900D01*
X162550Y145850D01*
X159400D01*
G01X163700Y159500D02*
X159650D01*
X159500Y159350D01*
G01X162900Y155000D02*
X161900D01*
X159400Y152500D01*
Y152150D01*
G01X163993Y150593D02*
X163086Y151500D01*
X160050D01*
X159400Y152150D01*
G01X159500Y165650D02*
Y170500D01*
G01Y165650D02*
X162850D01*
X163000Y165500D01*
X163169D01*
G01X160400Y297058D02*
Y293000D01*
G01X164140Y297058D02*
X164398Y296800D01*
X174350D01*
X174600Y296550D01*
G01D02*
X175050D01*
X177934Y293666D01*
Y290434D01*
G01X169666Y288300D02*
X166800D01*
X166000Y287500D01*
X164898D01*
X164140Y286743D01*
G01X168255Y323000D02*
Y319745D01*
X170500Y317500D01*
X175500D01*
G01X168255Y323000D02*
Y324755D01*
X170000Y326500D01*
X176000D01*
G01X173000Y348750D02*
X170250D01*
G01X177934Y288300D02*
X178334Y287900D01*
X181600D01*
G01X181700Y291800D02*
X181100Y291200D01*
X178700D01*
X177934Y290434D01*
G01D02*
Y288300D01*
G01X185890Y323000D02*
X190000D01*
G01X208000Y209500D02*
X198000D01*
G01X208000D02*
Y219610D01*
G01Y223390D02*
Y226000D01*
G01X224500Y37500D02*
X221610D01*
X221500Y37610D01*
G01X221417Y46250D02*
Y41473D01*
X221500Y41390D01*
G01X217890Y139500D02*
X222000D01*
G54D66*
X145866D03*
X154134D03*
X169666Y288300D03*
X177934D03*
G54D57*
X125500Y200760D03*
Y208240D03*
X135000Y349000D03*
Y341520D03*
G54D75*
X182244Y317624D03*
X187165D03*
G54D39*
X94559Y98654D03*
X89441D03*
X94559Y105346D03*
X89441D03*
G54D48*
X116835Y287500D03*
X121165D03*
G54D85*
G01X37404Y339612D02*
Y336204D01*
X36500Y335300D01*
G01X37404Y339612D02*
X36500Y340516D01*
Y346153D01*
X36513Y346165D01*
Y346230D01*
X37970Y347687D01*
X38035D01*
X38782Y348435D01*
Y353760D01*
G01X40160Y339612D02*
X40159Y339612D01*
Y336141D01*
X41000Y335300D01*
G01X40160Y339612D02*
X42024Y341476D01*
Y346976D01*
X41341Y347659D01*
Y353760D01*
G01X74500Y314000D02*
Y316110D01*
G01X75000Y322500D02*
X74500Y322000D01*
Y319890D01*
G01X79000Y314000D02*
Y316110D01*
G01X78500Y322500D02*
X79000Y322000D01*
Y319890D01*
G54D67*
X143669Y159500D03*
X152331D03*
G54D58*
X119500Y308799D03*
Y302500D03*
G54D49*
X102661Y341268D03*
X105220D03*
X107780D03*
X110339D03*
X102661Y324732D03*
X105220D03*
X107780D03*
X110339D03*
G54D76*
X213517Y50000D03*
X221417Y46250D03*
Y53750D03*
G54D86*
G01X15000Y80500D02*
X19000D01*
X37000Y62500D01*
X54000D01*
X57500Y59000D01*
Y46140D01*
X60750Y42890D01*
G01X13110Y85000D02*
Y82390D01*
X15000Y80500D01*
G01X16000Y98000D02*
X14000D01*
X13110Y97110D01*
Y95000D01*
G01X25000Y85000D02*
X16890D01*
G01X25000Y95000D02*
X16890D01*
G01X13110Y125000D02*
Y122110D01*
X11500Y120500D01*
G01X13110Y105000D02*
X10000D01*
G01X86783Y142890D02*
X83767D01*
X77047Y149610D01*
X71134D01*
X69962Y150781D01*
Y151630D01*
X67363Y154229D01*
X57229D01*
X56112Y153112D01*
Y151324D01*
X53888Y149100D01*
X51600D01*
X50500Y148000D01*
X45000D01*
X42400Y145400D01*
Y140420D01*
X41500Y139520D01*
Y133000D01*
X38000Y129500D01*
X33000D01*
X30000Y126500D01*
Y123000D01*
X27000Y120000D01*
X16500D01*
X13110Y116610D01*
Y115000D01*
G01X25000Y105000D02*
X16890D01*
G01X25000Y115000D02*
X16890D01*
G01X11000Y140000D02*
X37500D01*
X39500Y142000D01*
Y147000D01*
X48129Y155629D01*
X67943D01*
X71962Y151610D01*
G01X13110Y155000D02*
X10000Y151890D01*
Y141000D01*
X11000Y140000D01*
G01X13110Y135000D02*
X10000D01*
G01X25000Y125000D02*
X16890D01*
G01X25000Y135000D02*
X16890D01*
G01X13110Y145000D02*
X13000Y145110D01*
Y147000D01*
X16000Y150000D01*
X36500D01*
X47000Y160500D01*
X61520D01*
X64720Y157300D01*
X73700D01*
X84173Y146827D01*
X86783D01*
G01X85000Y155400D02*
X78368D01*
X75068Y158700D01*
X65300D01*
X58000Y166000D01*
X43000D01*
X36500Y159500D01*
X15000D01*
X14500Y159000D01*
G01X25000Y155000D02*
X16890D01*
G01X25000Y145000D02*
X16890D01*
G01X54400Y173500D02*
X47500D01*
X43250Y169250D01*
X15750D01*
X13110Y166610D01*
Y165000D01*
G01X25000D02*
X16890D01*
G01X5110Y253500D02*
Y256390D01*
X5000Y256500D01*
G01X57500Y209500D02*
X21500Y245500D01*
X7000D01*
X2500Y250000D01*
Y282890D01*
X5110Y285500D01*
G01X22000Y259500D02*
X21000Y258500D01*
X15878D01*
G01Y253382D02*
X21382D01*
X26500Y258500D01*
Y284000D01*
X19823Y290677D01*
X15878D01*
G01Y253382D02*
X9008D01*
X8890Y253500D01*
G01X24000Y268500D02*
Y258500D01*
X21441Y255941D01*
X15878D01*
G01X5110Y263500D02*
Y266890D01*
X5000Y267000D01*
G01X5110Y280500D02*
Y277110D01*
X5000Y277000D01*
G01X15878Y263618D02*
X9008D01*
X8890Y263500D01*
G01X23500Y272000D02*
X24500Y273000D01*
Y283253D01*
X22194Y285559D01*
X15878D01*
G01D02*
X8949D01*
X8890Y285500D01*
G01X15878Y280441D02*
X8949D01*
X8890Y280500D01*
G01X15878Y288118D02*
X11600D01*
X11000Y288718D01*
Y293500D01*
X26500Y309000D01*
X29000D01*
G01X4610Y316500D02*
Y319890D01*
X4500Y320000D01*
G01X4610Y309000D02*
Y312500D01*
G01X12500Y299500D02*
X8390Y303610D01*
Y309000D01*
G01X15378Y308882D02*
X8508D01*
X8390Y309000D01*
G01X15378Y316559D02*
X8449D01*
X8390Y316500D01*
G01X15378Y316559D02*
X20441D01*
X21000Y316000D01*
G01X15378Y311441D02*
X23059D01*
X24000Y310500D01*
G01X25264Y314000D02*
X15378D01*
G01X7250Y331000D02*
X3500D01*
G01X13750D02*
X20350D01*
G01X15378Y319118D02*
X20882D01*
G01X15378Y321677D02*
X25476D01*
X26650Y322850D01*
G01X46500Y40110D02*
Y20157D01*
X36500Y10157D01*
G01Y40110D02*
Y29843D01*
G01Y43890D02*
Y46500D01*
G01X50110Y95000D02*
X35000D01*
G01X50110Y85000D02*
X35000D01*
G01X50110Y111000D02*
X47500D01*
X35000Y123500D01*
Y125000D01*
G01X50110Y106000D02*
X44000D01*
X35000Y115000D01*
G01X50110Y101000D02*
X39000D01*
X35000Y105000D01*
G01Y135000D02*
X41000Y141000D01*
Y146500D01*
X47500Y153000D01*
X50110D01*
G01Y163000D02*
X43000D01*
X35000Y155000D01*
G01X50110Y158000D02*
X48000D01*
X35000Y145000D01*
G01X77500Y209500D02*
X47000Y240000D01*
X41500D01*
X28000Y253500D01*
Y284500D01*
X23110Y289390D01*
Y296500D01*
G01X38122Y258500D02*
X33000D01*
X29500Y262000D01*
Y279000D01*
X33500Y283000D01*
X38122D01*
G01Y263618D02*
X33500D01*
G01X32664Y279336D02*
X33769Y280441D01*
X38122D01*
G01X32000Y271500D02*
X31500Y271000D01*
Y262500D01*
X32941Y261059D01*
X38122D01*
G01Y275323D02*
X35323D01*
X32000Y272000D01*
Y271500D01*
G01X31500Y288000D02*
X38004D01*
X38122Y288118D01*
G01Y285559D02*
X30941D01*
X26890Y289610D01*
Y296500D01*
G01X37622Y316559D02*
X32059D01*
X31500Y316000D01*
G01X32500Y311441D02*
X37622D01*
G01X32500D02*
X31500Y312441D01*
X26823D01*
X25264Y314000D01*
G01X45390Y299000D02*
Y300610D01*
X44000Y302000D01*
X33500D01*
X31500Y304000D01*
Y310500D01*
X32441Y311441D01*
X32500D01*
G01X25264Y314000D02*
X30382Y319118D01*
G01X37622D02*
X30382D01*
G01X26650Y322850D02*
Y331000D01*
G01X30382Y319118D02*
X26650Y322850D01*
G01X46500Y40110D02*
X43390D01*
X42500Y41000D01*
Y51500D01*
G01X46500Y43890D02*
Y46200D01*
G01X53890Y95000D02*
X57000D01*
G01X53890Y85000D02*
X71000D01*
X73000Y83000D01*
G01X53890Y101000D02*
X57000D01*
G01X53890Y106000D02*
X56500D01*
X57000Y105500D01*
G01X47000Y115500D02*
X50020D01*
X53068Y112452D01*
Y111822D01*
X53890Y111000D01*
G01X86783Y127142D02*
X84662D01*
X76520Y119000D01*
X70500D01*
X65905Y114405D01*
X56363D01*
X54682Y116086D01*
G01X86783Y125173D02*
X84673D01*
X77000Y117500D01*
X71000D01*
X66505Y113005D01*
X55783D01*
X54788Y114000D01*
X53500D01*
X51000Y116500D01*
Y121894D01*
G01D02*
X47606D01*
X47390Y122110D01*
X44000D01*
G01X95642Y118283D02*
Y116182D01*
X89670Y110210D01*
X82240D01*
X80780Y108750D01*
X71450D01*
X66200Y103500D01*
X45000D01*
G01Y110000D02*
X46500Y108500D01*
X57671D01*
X58671Y107500D01*
X67560D01*
X70210Y110150D01*
X80200D01*
X81660Y111610D01*
X89090D01*
X93673Y116193D01*
Y118283D01*
G01X86783Y121236D02*
X85236D01*
X77400Y113400D01*
X69500D01*
X67600Y111500D01*
X57500D01*
X57000Y111000D01*
G01X49500Y150080D02*
X49920Y150500D01*
X52468D01*
X53068Y151100D01*
Y152178D01*
X53890Y153000D01*
G01Y158000D02*
X56112D01*
G01X89736Y153717D02*
Y155264D01*
X87600Y157400D01*
X78348D01*
X75648Y160100D01*
X65900D01*
X58000Y168000D01*
X48900D01*
G01X53890Y163000D02*
X57000D01*
G01X52000Y251500D02*
Y252000D01*
X50500Y253500D01*
X48890D01*
G01X45110D02*
X38240D01*
X38122Y253382D01*
G01Y250823D02*
X42787D01*
X45110Y248500D01*
G01X38122Y255941D02*
X45194D01*
X49000Y259747D01*
Y260500D01*
G01X182110Y328500D02*
X180000D01*
X178500Y327000D01*
Y311500D01*
X175000Y308000D01*
X155500D01*
X127500Y280000D01*
Y259500D01*
X108500Y240500D01*
X82753D01*
X80953Y238700D01*
X77600D01*
X75000Y241300D01*
Y243500D01*
X70000Y248500D01*
X48890D01*
G01X53890Y276500D02*
X56000D01*
X56634Y277134D01*
Y280866D01*
X58883Y283115D01*
X62760D01*
G01X56110Y263500D02*
X53500D01*
X53000Y264000D01*
G01X56110Y268000D02*
X53000D01*
X52500Y267500D01*
G01X38122Y283000D02*
X42500D01*
X43500Y282000D01*
Y280328D01*
X47329Y276500D01*
X50110D01*
G01X44000D02*
Y277000D01*
X43118Y277882D01*
X38122D01*
G01X51610Y285500D02*
X48500D01*
G01X41610Y299000D02*
Y296390D01*
X42500Y295500D01*
G01X53890Y280500D02*
X55496Y282106D01*
X55894D01*
X58871Y285083D01*
X62760D01*
G01Y292955D02*
X58845D01*
X55390Y289500D01*
G01X62760Y294923D02*
X56313D01*
X55390Y294000D01*
G01X45578Y281078D02*
X46157Y280500D01*
X50110D01*
G01X42500Y304000D02*
X46000D01*
X47700Y302300D01*
Y295300D01*
X49000Y294000D01*
X51610D01*
G01X45390Y299000D02*
Y293110D01*
X49000Y289500D01*
X51610D01*
G01X45000Y285500D02*
X47455Y283045D01*
X54455D01*
X55390Y283980D01*
Y285500D01*
G01X62760Y289019D02*
X58909D01*
X55390Y285500D01*
G01X48890Y306500D02*
X51000D01*
X51500Y307000D01*
G01X48890Y314000D02*
Y311110D01*
G01X45110Y314000D02*
X37622D01*
G01X45110Y306500D02*
X37799D01*
X37622Y306323D01*
G01X43500Y310000D02*
X42382Y308882D01*
X37622D01*
G01X61500Y27050D02*
X64650Y23900D01*
Y21500D01*
G01X60750Y42890D02*
X65250D01*
G01Y34950D02*
Y39110D01*
G01X75500Y115500D02*
X77000D01*
X84705Y123205D01*
X86783D01*
G01X89736Y118283D02*
X85283D01*
X78550Y111550D01*
X69630D01*
X67580Y109500D01*
X59500D01*
G01X75905Y140000D02*
X79000D01*
X82016Y136984D01*
X86783D01*
G01X62224Y128547D02*
X64953D01*
X65500Y128000D01*
G01X66163Y135756D02*
X66000Y135919D01*
Y141106D01*
G01X75890Y122500D02*
X77480D01*
X84090Y129110D01*
X86783D01*
G01X65500Y128000D02*
X67500D01*
X68299Y127201D01*
X73089D01*
X75890Y124400D01*
Y122500D01*
G01X86783Y131079D02*
X84079D01*
X79400Y126400D01*
X76600D01*
X74399Y128601D01*
X70936D01*
X69021Y130516D01*
X67016D01*
G01X71610Y146500D02*
Y143610D01*
X68500Y140500D01*
Y132000D01*
X67016Y130516D01*
G01X61000Y141106D02*
Y145900D01*
X61600Y146500D01*
X71610D01*
G01X67016Y130516D02*
X62224D01*
G01X71962Y151610D02*
X77390D01*
X84142Y144858D01*
X86783D01*
G01X74500Y142500D02*
X78500D01*
X82047Y138953D01*
X86783D01*
G01X91705Y153717D02*
Y156204D01*
X88909Y159000D01*
X79500D01*
X77000Y161500D01*
X68500D01*
X66000Y164000D01*
G01X58500Y176500D02*
Y175500D01*
X71000Y163000D01*
X77500D01*
G01X172500Y253500D02*
X165000Y246000D01*
X148500D01*
X117000Y214500D01*
X100000D01*
X74000Y188500D01*
X69500D01*
G01X70000Y262110D02*
Y259000D01*
G01X70141Y273760D02*
Y266031D01*
X70000Y265890D01*
G01X62760Y281147D02*
X59072D01*
X58160Y280235D01*
Y271730D01*
X59890Y270000D01*
Y268000D01*
G01Y263500D02*
X62760Y266370D01*
Y279179D01*
G01X70000Y316110D02*
Y314000D01*
X72115Y311885D01*
Y306240D01*
G01X70000Y319890D02*
Y323000D01*
G01X94350Y21500D02*
Y24850D01*
X96550Y27050D01*
X98500D01*
G01X80000D02*
X82650Y24400D01*
Y21500D01*
G01X79250Y42890D02*
Y46250D01*
X79000Y46500D01*
G01X79250Y42890D02*
X83750D01*
G01Y39110D02*
Y34950D01*
G01X100000Y95110D02*
X98102D01*
X94559Y98654D01*
G01D02*
X94429Y98524D01*
Y92500D01*
G01X89441Y105346D02*
X91000Y106906D01*
Y108500D01*
X94500Y112000D01*
X97461D01*
X99579Y114118D01*
Y118283D01*
G01X89441Y105346D02*
X86917D01*
X84000Y102429D01*
G01X91705Y118283D02*
Y116205D01*
X90783Y115283D01*
X87717D01*
X87000Y116000D01*
G01X83000Y141000D02*
X83079Y140921D01*
X86783D01*
G01X86154Y168154D02*
X86308Y168000D01*
X88272D01*
X99010Y157262D01*
Y156490D01*
X99579Y155921D01*
Y153717D01*
G01X86000Y174500D02*
X85000D01*
X83000Y172500D01*
Y168480D01*
X85480Y166000D01*
X87849D01*
X97610Y156239D01*
Y153717D01*
G01X93500Y175950D02*
X92950Y176500D01*
X85000D01*
X81000Y172500D01*
Y167000D01*
X83500Y164500D01*
X87369D01*
X95642Y156227D01*
Y153717D01*
G01X93673D02*
Y156216D01*
X89489Y160400D01*
X80100D01*
X77500Y163000D01*
G01X85000Y155400D02*
Y151364D01*
X85600Y150764D01*
X86783D01*
G01X81164Y152664D02*
Y152604D01*
X84973Y148795D01*
X86783D01*
G01X102000Y209500D02*
X95500Y203000D01*
Y164732D01*
X101900Y158332D01*
Y157687D01*
X103516Y156071D01*
Y153717D01*
G01X85000Y171500D02*
X86752D01*
X100500Y157752D01*
Y157107D01*
X101547Y156060D01*
Y153717D01*
G01X93500Y179000D02*
X92500Y178000D01*
X82500D01*
X78750Y174250D01*
Y164250D01*
X77500Y163000D01*
G01X102000Y219500D02*
X88110D01*
X82500Y225110D01*
G01X82559Y235669D02*
Y228949D01*
X82500Y228890D01*
G01X82559Y244331D02*
X85331D01*
G01X104610Y278000D02*
Y280390D01*
X99923Y285077D01*
X95240D01*
G01Y283109D02*
X99391D01*
X102388Y280112D01*
Y275722D01*
X104610Y273500D01*
G01X95240Y290981D02*
X99519D01*
X104571Y285929D01*
X108000D01*
G01X95240Y292949D02*
X95291Y293000D01*
X100500D01*
X103429Y290071D01*
X108000D01*
G01X95240Y300821D02*
Y314240D01*
X97890Y316890D01*
X100000D01*
G01X89000Y316110D02*
X83890Y311000D01*
X83027D01*
X81955Y309928D01*
Y306240D01*
G01X87859D02*
Y311359D01*
X89000Y312500D01*
G01X93500Y317000D02*
X91500Y315000D01*
Y311000D01*
X89827Y309327D01*
Y306240D01*
G01X97500Y42890D02*
Y46000D01*
G01X102000Y39110D02*
Y35200D01*
X102250Y34950D01*
G01X100000Y98890D02*
X98500Y100390D01*
Y110926D01*
X101547Y113973D01*
Y118283D01*
G01X96633Y114000D02*
X97610Y114977D01*
Y118283D01*
G01X113358D02*
Y115883D01*
X112190Y114715D01*
X109715D01*
X109500Y114500D01*
G01X111390Y112715D02*
X112790D01*
X115295Y115220D01*
Y115851D01*
X115327Y115883D01*
Y118283D01*
G01X114921Y176000D02*
X115400Y175521D01*
Y153790D01*
X115327Y153717D01*
G01X105079Y176000D02*
Y171966D01*
X105679Y171366D01*
X109871D01*
X114000Y167237D01*
Y158500D01*
X113358Y157858D01*
Y153717D01*
G01X112000Y209500D02*
X106500Y204000D01*
X99000D01*
X96900Y201900D01*
Y169966D01*
X98632Y168234D01*
X100368D01*
X100805Y168671D01*
X105555D01*
X106399Y167826D01*
Y158901D01*
X107453Y157847D01*
Y153717D01*
G01X111621Y159501D02*
X111390Y159270D01*
Y153717D01*
G01X120500Y176929D02*
X115850D01*
X114921Y176000D01*
G01X105079D02*
X104650Y176429D01*
X99500D01*
G01X99059Y235669D02*
Y232441D01*
X112000Y219500D01*
G01X104500Y237890D02*
X104390Y238000D01*
X102500D01*
X100169Y235669D01*
X99059D01*
G01X108390Y273500D02*
Y270390D01*
X104500Y266500D01*
Y247890D01*
G01Y244110D02*
X99280D01*
X99059Y244331D01*
G01X109500Y265500D02*
X111000Y267000D01*
Y277000D01*
X110000Y278000D01*
X108390D01*
G01X116835Y287500D02*
X109571D01*
X108000Y285929D01*
G01X121165Y287500D02*
X118465Y290200D01*
X108129D01*
X108000Y290071D01*
G01X105000Y313110D02*
Y311000D01*
X104000Y310000D01*
G01X100000Y313110D02*
Y310500D01*
X99500Y310000D01*
G01X102661Y324732D02*
Y319551D01*
X100000Y316890D01*
G01X110610Y316500D02*
X107780Y319331D01*
Y324732D01*
G01X110610Y316500D02*
Y313610D01*
X110500Y313500D01*
G01X105220Y324732D02*
Y317110D01*
X105000Y316890D01*
G01D02*
X107110D01*
X107500Y316500D01*
G01X114390D02*
X118890D01*
X119000Y316610D01*
G01X110339Y324732D02*
Y322161D01*
X114390Y318110D01*
Y316500D01*
G01X128125Y93125D02*
X127610Y93639D01*
Y98500D01*
X127571Y98539D01*
Y103000D01*
G01D02*
X125000Y105571D01*
Y110200D01*
X123153Y112047D01*
X123100D01*
X119264Y115883D01*
Y118283D01*
G01X126500Y121500D02*
X124795Y123205D01*
X122217D01*
G01X126553Y124553D02*
X126106Y125000D01*
X126000D01*
X125827Y125173D01*
X122217D01*
G01X117295Y153717D02*
Y164795D01*
X118000Y165500D01*
G01Y170000D02*
Y170571D01*
X120500Y173071D01*
G01X136500Y312000D02*
X133500D01*
G01X119000Y320390D02*
Y324000D01*
G01X147890Y307500D02*
X149500D01*
X151500Y309500D01*
G01X140390Y307500D02*
Y311968D01*
X140358Y312000D01*
G01X144110Y307500D02*
X140390D01*
G01X140358Y312000D02*
X145655D01*
X146655Y313000D01*
G01X136500Y312000D02*
Y307610D01*
X136610Y307500D01*
G01X174500Y13890D02*
Y16500D01*
G01X178000Y74500D02*
X171000Y67500D01*
Y11500D01*
X172390Y10110D01*
X174500D01*
G01X194000Y10157D02*
X174547D01*
X174500Y10110D01*
G01Y33390D02*
Y36000D01*
G01X194000Y29843D02*
X174732D01*
X174500Y29610D01*
G01X171500Y81500D02*
X173500Y83500D01*
Y149500D01*
G01D02*
X174000Y149000D01*
X182110D01*
G01X159000Y178890D02*
X163110D01*
X165769Y176231D01*
Y161109D01*
X174877Y152000D01*
X189000D01*
X191500Y149500D01*
X215500D01*
X217890Y147110D01*
Y145000D01*
G01X173500Y170000D02*
X174500Y169000D01*
X216500D01*
X217890Y167610D01*
Y165000D01*
G01X182244Y317624D02*
Y312756D01*
X186500Y308500D01*
X212500D01*
X225500Y295500D01*
Y197000D01*
X222500Y194000D01*
X170000D01*
X168000Y192000D01*
G01X166500Y187500D02*
X172500D01*
X176500Y183500D01*
Y178000D01*
X179500Y175000D01*
X182110D01*
G01X217890Y95000D02*
X220500D01*
X227700Y102200D01*
Y171800D01*
X209500Y190000D01*
X167000D01*
X165894Y191106D01*
Y194213D01*
G01X183000Y209500D02*
X178700D01*
X174800Y213400D01*
Y222168D01*
X176022Y223390D01*
X178000D01*
G01X172500Y253500D02*
X167000Y259000D01*
Y276000D01*
X170000Y279000D01*
X187000D01*
X190500Y275500D01*
G01X195890Y247000D02*
Y248900D01*
X195290Y249500D01*
X192500D01*
X183500Y258500D01*
X170144D01*
X168500Y260144D01*
Y269500D01*
X172500Y273500D01*
G01Y263500D02*
X188000D01*
X189500Y262000D01*
X197110D01*
G01X172500Y273500D02*
X184500D01*
X187000Y271000D01*
X199000D01*
X201336Y273336D01*
X204279D01*
G01X178850Y342500D02*
X173250D01*
X173000Y342250D01*
G01X177500Y79500D02*
X177000Y80000D01*
Y92500D01*
X178000Y93500D01*
Y124692D01*
X175600Y127092D01*
Y140600D01*
X180000Y145000D01*
X182110D01*
G01X217890Y85000D02*
Y82500D01*
X209890Y74500D01*
X178000D01*
G01D02*
X175500Y77000D01*
Y99000D01*
G01X195000Y85000D02*
X185890D01*
G01X195000Y95000D02*
X185890D01*
G01X182110D02*
X180000Y92890D01*
Y92000D01*
G01X182110Y85000D02*
X179000D01*
G01X182110Y105000D02*
X180500Y106610D01*
Y108500D01*
G01X182110Y115000D02*
X179500Y117610D01*
Y125171D01*
X177000Y127671D01*
Y139000D01*
X179000Y141000D01*
G01X195000Y115000D02*
X185890D01*
G01Y105000D02*
X195000D01*
G01X179000Y132500D02*
X180500Y131000D01*
X182110D01*
G01Y141000D02*
X179000D01*
G01Y128500D02*
X181000D01*
X182110Y127390D01*
Y125000D01*
G01X185890D02*
X195000D01*
G01X185890Y141000D02*
Y145000D01*
G01Y135000D02*
Y131000D01*
G01X195000Y135000D02*
X185890D01*
G01X217890Y105000D02*
X220500D01*
X226300Y110800D01*
Y139700D01*
X224000Y142000D01*
X209500D01*
X207500Y140000D01*
X192000D01*
X190000Y138000D01*
X183000D01*
X182110Y137110D01*
Y135000D01*
G01D02*
X180000D01*
X179000Y136000D01*
G01X182110Y160500D02*
X179000D01*
G01X195000Y155000D02*
X185890D01*
G01Y149000D02*
Y145000D01*
G01X195000D02*
X185890D01*
G01Y165000D02*
Y160500D01*
G01X182110Y155000D02*
X179000D01*
G01X182110Y179000D02*
X179000D01*
G01X186000Y171000D02*
X183110D01*
X182110Y172000D01*
Y175000D01*
G01Y165000D02*
X179000D01*
G01X185890D02*
X195000D01*
G01X185890Y175000D02*
Y179000D01*
G01X195000Y175000D02*
X185890D01*
G01X183800Y219410D02*
X184010Y219200D01*
X187400D01*
X193000Y213600D01*
Y204500D01*
X198000Y199500D01*
G01X178000Y219610D02*
X183600D01*
X183800Y219410D01*
G01Y223190D02*
Y226000D01*
G01X189500Y244500D02*
X189610D01*
X192110Y247000D01*
G01X193800Y282902D02*
X190677D01*
X190580Y283000D01*
G01X193800Y286682D02*
X197827D01*
G01X182244Y317624D02*
Y322867D01*
X182110Y323000D01*
G01X209000Y315000D02*
X206376Y317624D01*
X187165D01*
G01X185890Y328500D02*
Y326790D01*
X185000Y325900D01*
X183400D01*
X182110Y324610D01*
Y323000D01*
G01X185890Y328500D02*
X195657D01*
X197157Y327000D01*
G01X181250Y355950D02*
X178550D01*
G01X188750D02*
X191550D01*
X197157Y350343D01*
Y327000D01*
G01X185150Y342500D02*
Y347900D01*
X185000Y348050D01*
G01X205000Y85000D02*
X214110D01*
G01Y95000D02*
X205000D01*
G01Y105000D02*
X214110D01*
G01X205000Y115000D02*
X214110D01*
G01Y120000D02*
Y115000D01*
G01X210000Y130000D02*
X212500Y132500D01*
X217000D01*
X217890Y131610D01*
Y130000D01*
G01X221000Y135000D02*
Y136400D01*
X220220Y137180D01*
X216312D01*
X216171Y137320D01*
X214890D01*
X214110Y138100D01*
Y139500D01*
G01X205000Y135000D02*
X214110D01*
G01Y125000D02*
Y130000D01*
G01X205000Y125000D02*
X214110D01*
G01Y145000D02*
X205000D01*
G01X214218Y155000D02*
X205000D01*
G01Y165000D02*
X214110D01*
G01X208000Y199500D02*
X213000Y204500D01*
Y219110D01*
X213500Y219610D01*
G01Y223390D02*
Y226000D01*
G01X204890Y247500D02*
X204961Y247429D01*
X207135D01*
X211000Y247429D01*
G01X201110Y247500D02*
Y251780D01*
X200890Y252000D01*
G01X199890Y243000D02*
X202900D01*
X203000Y242900D01*
G01X208516Y252291D02*
Y250416D01*
X207800Y249700D01*
Y249600D01*
G01X196110Y243000D02*
Y246780D01*
X195890Y247000D01*
G01X212709Y254516D02*
X215484D01*
X216000Y254000D01*
G01X197827Y282902D02*
Y279673D01*
G01X207500Y299890D02*
X206000Y301390D01*
Y302500D01*
G01X211779Y299890D02*
X214110D01*
X215000Y299000D01*
Y295535D01*
X215017Y295517D01*
G01X217890Y115000D02*
X221000D01*
X223000Y117000D01*
Y128000D01*
X221000Y130000D01*
X217890D01*
G01Y125000D02*
Y120000D01*
G01Y125000D02*
X221000D01*
G01X217890Y135000D02*
X221000D01*
G01X217998Y155000D02*
X221108D01*
G01X222500Y219610D02*
Y204000D01*
X218000Y199500D01*
G01X222500Y223390D02*
Y226000D01*
G01X220538Y285532D02*
Y281538D01*
G01X220459Y289753D02*
Y293041D01*
X219500Y294000D01*
G01X217110Y346500D02*
X216843Y346453D01*
Y327000D01*
G01X220890Y346500D02*
X223500D01*
G01X-70227Y-174333D02*
Y-164333D01*
X-65477D01*
G01X-67227Y-169166D02*
X-70227D01*
G01X-59352Y-164333D02*
X-56352D01*
G01X-57852D02*
Y-174333D01*
G01X-59352D02*
X-56352D01*
G01X-50352Y-164333D02*
Y-174333D01*
X-45352D01*
G01X-41102D02*
Y-164333D01*
X-37852Y-172666D01*
X-34602Y-164333D01*
Y-174333D01*
G01X-20352Y-164333D02*
Y-174333D01*
X-15352D01*
G01X-10977D02*
X-7852Y-164333D01*
X-4727Y-174333D01*
G01X-5852Y-170833D02*
X-9852D01*
G01X2148Y-174333D02*
Y-169833D01*
X-352Y-164333D01*
G01X4648D02*
X2148Y-169833D01*
G01X14648Y-174333D02*
X9648D01*
Y-164333D01*
X14648D01*
G01X12648Y-169166D02*
X9648D01*
G01X19648Y-174333D02*
Y-164333D01*
X22773D01*
X23773Y-164833D01*
X24398Y-165500D01*
X24648Y-166833D01*
X24398Y-168166D01*
X23648Y-169000D01*
X22773Y-169500D01*
X19648D01*
G01X22773D02*
X24648Y-174333D01*
G01X32148Y-174666D02*
X31898Y-174500D01*
Y-174166D01*
X32148Y-174000D01*
X32398Y-174166D01*
Y-174500D01*
X32148Y-174666D01*
G01Y-170167D02*
X31898Y-170000D01*
Y-169666D01*
X32148Y-169500D01*
X32398Y-169666D01*
Y-170000D01*
X32148Y-170167D01*
G01X-70352Y-154333D02*
Y-144333D01*
X-67352D01*
X-66352Y-144833D01*
X-65602Y-146000D01*
X-65352Y-147333D01*
X-65602Y-148666D01*
X-66227Y-149666D01*
X-67352Y-150167D01*
X-70352D01*
G01X-60977Y-154333D02*
X-57852Y-144333D01*
X-54727Y-154333D01*
G01X-55852Y-150833D02*
X-59852D01*
G01X-50352Y-154333D02*
Y-144333D01*
X-47227D01*
X-46227Y-144833D01*
X-45602Y-145500D01*
X-45352Y-146833D01*
X-45602Y-148166D01*
X-46352Y-149000D01*
X-47227Y-149500D01*
X-50352D01*
G01X-47227D02*
X-45352Y-154333D01*
G01X-37852Y-144333D02*
Y-154333D01*
G01X-40727Y-144333D02*
X-34977D01*
G01X-20727Y-154333D02*
Y-144333D01*
X-14977Y-154333D01*
Y-144333D01*
G01X-7852Y-154333D02*
X-8852Y-154166D01*
X-9727Y-153500D01*
X-10477Y-152500D01*
X-10977Y-151333D01*
X-11227Y-150000D01*
Y-148666D01*
X-10977Y-147333D01*
X-10477Y-146166D01*
X-9727Y-145166D01*
X-8852Y-144500D01*
X-7852Y-144333D01*
X-6852Y-144500D01*
X-5977Y-145166D01*
X-5227Y-146166D01*
X-4727Y-147333D01*
X-4477Y-148666D01*
Y-150000D01*
X-4727Y-151333D01*
X-5227Y-152500D01*
X-5977Y-153500D01*
X-6852Y-154166D01*
X-7852Y-154333D01*
G01X-102Y-154666D02*
X4398Y-144333D01*
G01X14898Y-145166D02*
X14148Y-144666D01*
X13273Y-144333D01*
X12273D01*
X11148Y-144833D01*
X10273Y-145666D01*
X9648Y-146666D01*
X9148Y-148333D01*
X9023Y-149833D01*
X9273Y-151333D01*
X9648Y-152333D01*
X10398Y-153333D01*
X11273Y-154000D01*
X12148Y-154333D01*
X13023D01*
X13898Y-154000D01*
X14648Y-153500D01*
X15273Y-152833D01*
G01X19023Y-154333D02*
X22148Y-144333D01*
X25273Y-154333D01*
G01X24148Y-150833D02*
X20148D01*
G01X29648Y-154333D02*
Y-144333D01*
X32773D01*
X33773Y-144833D01*
X34398Y-145500D01*
X34648Y-146833D01*
X34398Y-148166D01*
X33648Y-149000D01*
X32773Y-149500D01*
X29648D01*
G01X32773D02*
X34648Y-154333D01*
G01X39398D02*
Y-144333D01*
X41898D01*
X42898Y-144833D01*
X43648Y-145500D01*
X44273Y-146500D01*
X44773Y-147667D01*
X44898Y-149333D01*
X44773Y-151000D01*
X44273Y-152166D01*
X43648Y-153167D01*
X42898Y-153833D01*
X41898Y-154333D01*
X39398D01*
G01X59648D02*
Y-144333D01*
X62773D01*
X63773Y-144833D01*
X64398Y-145500D01*
X64648Y-146833D01*
X64398Y-148166D01*
X63648Y-149000D01*
X62773Y-149500D01*
X59648D01*
G01X62773D02*
X64648Y-154333D01*
G01X74648D02*
X69648D01*
Y-144333D01*
X74648D01*
G01X72648Y-149166D02*
X69648D01*
G01X79773Y-154333D02*
Y-144333D01*
X84523D01*
G01X82773Y-149166D02*
X79773D01*
G01X92148Y-154666D02*
X91898Y-154500D01*
Y-154166D01*
X92148Y-154000D01*
X92398Y-154166D01*
Y-154500D01*
X92148Y-154666D01*
G01Y-150167D02*
X91898Y-150000D01*
Y-149666D01*
X92148Y-149500D01*
X92398Y-149666D01*
Y-150000D01*
X92148Y-150167D01*
G01X-71352Y-134463D02*
Y-124463D01*
X-68852D01*
X-67852Y-124963D01*
X-67102Y-125630D01*
X-66477Y-126630D01*
X-65977Y-127797D01*
X-65852Y-129463D01*
X-65977Y-131130D01*
X-66477Y-132296D01*
X-67102Y-133297D01*
X-67852Y-133963D01*
X-68852Y-134463D01*
X-71352D01*
G01X-56102D02*
X-61102D01*
Y-124463D01*
X-56102D01*
G01X-58102Y-129296D02*
X-61102D01*
G01X-51227Y-133130D02*
X-50227Y-133963D01*
X-49102Y-134463D01*
X-48102D01*
X-47102Y-133963D01*
X-46352Y-133130D01*
X-45977Y-131963D01*
X-46227Y-130797D01*
X-46852Y-129796D01*
X-47977Y-129130D01*
X-49477Y-128796D01*
X-50352Y-128130D01*
X-50727Y-126963D01*
X-50477Y-125796D01*
X-49852Y-124963D01*
X-48977Y-124463D01*
X-48102D01*
X-47227Y-124796D01*
X-46477Y-125630D01*
G01X-40102Y-124463D02*
X-37102D01*
G01X-38602D02*
Y-134463D01*
G01X-40102D02*
X-37102D01*
G01X-27852Y-129463D02*
X-25352D01*
Y-132463D01*
X-26102Y-133463D01*
X-26977Y-134130D01*
X-28227Y-134463D01*
X-29477Y-134130D01*
X-30352Y-133463D01*
X-31102Y-132463D01*
X-31602Y-131296D01*
X-31852Y-129963D01*
Y-128796D01*
X-31602Y-127797D01*
X-31102Y-126630D01*
X-30352Y-125630D01*
X-29602Y-124963D01*
X-28602Y-124463D01*
X-27727D01*
X-26727Y-124796D01*
X-25977Y-125463D01*
G01X-21477Y-134463D02*
Y-124463D01*
X-15727Y-134463D01*
Y-124463D01*
G01X-6102Y-134463D02*
X-11102D01*
Y-124463D01*
X-6102D01*
G01X-8102Y-129296D02*
X-11102D01*
G01X-1352Y-134463D02*
Y-124463D01*
X1148D01*
X2148Y-124963D01*
X2898Y-125630D01*
X3523Y-126630D01*
X4023Y-127797D01*
X4148Y-129463D01*
X4023Y-131130D01*
X3523Y-132296D01*
X2898Y-133297D01*
X2148Y-133963D01*
X1148Y-134463D01*
X-1352D01*
G01X22398Y-129130D02*
X22898Y-128630D01*
X23273Y-127797D01*
X23523Y-126630D01*
X23273Y-125630D01*
X22773Y-124963D01*
X21898Y-124463D01*
X18523D01*
Y-134463D01*
X22648D01*
X23523Y-133796D01*
X24023Y-132796D01*
X24273Y-131630D01*
X24023Y-130463D01*
X23273Y-129463D01*
X22398Y-129130D01*
X18523D01*
G01X31398Y-134463D02*
Y-129963D01*
X28898Y-124463D01*
G01X33898D02*
X31398Y-129963D01*
G01X41398Y-134796D02*
X41148Y-134630D01*
Y-134296D01*
X41398Y-134130D01*
X41648Y-134296D01*
Y-134630D01*
X41398Y-134796D01*
G01Y-130297D02*
X41148Y-130130D01*
Y-129796D01*
X41398Y-129630D01*
X41648Y-129796D01*
Y-130130D01*
X41398Y-130297D01*
G01X-70602Y-114333D02*
Y-104333D01*
X-68102D01*
X-67102Y-104833D01*
X-66352Y-105500D01*
X-65727Y-106500D01*
X-65227Y-107667D01*
X-65102Y-109333D01*
X-65227Y-111000D01*
X-65727Y-112166D01*
X-66352Y-113167D01*
X-67102Y-113833D01*
X-68102Y-114333D01*
X-70602D01*
G01X-60977D02*
X-57852Y-104333D01*
X-54727Y-114333D01*
G01X-55852Y-110833D02*
X-59852D01*
G01X-47852Y-104333D02*
Y-114333D01*
G01X-50727Y-104333D02*
X-44977D01*
G01X-35352Y-114333D02*
X-40352D01*
Y-104333D01*
X-35352D01*
G01X-37352Y-109166D02*
X-40352D01*
G01X-27852Y-114666D02*
X-28102Y-114500D01*
Y-114166D01*
X-27852Y-114000D01*
X-27602Y-114166D01*
Y-114500D01*
X-27852Y-114666D01*
G01Y-110167D02*
X-28102Y-110000D01*
Y-109666D01*
X-27852Y-109500D01*
X-27602Y-109666D01*
Y-110000D01*
X-27852Y-110167D01*
G01X-20352Y-112333D02*
X-19727Y-113333D01*
X-18977Y-114000D01*
X-18102Y-114333D01*
X-17102Y-114000D01*
X-16352Y-113333D01*
X-15602Y-112333D01*
X-15352Y-111000D01*
Y-104333D01*
G01X-10602D02*
Y-111500D01*
X-10102Y-113000D01*
X-9102Y-114000D01*
X-7852Y-114333D01*
X-6602Y-114000D01*
X-5602Y-113000D01*
X-5102Y-111500D01*
Y-104333D01*
G01X-727Y-114333D02*
Y-104333D01*
X5023Y-114333D01*
Y-104333D01*
G01X14648Y-114333D02*
X9648D01*
Y-104333D01*
X14648D01*
G01X12648Y-109166D02*
X9648D01*
G01X29773Y-106000D02*
X30523Y-105000D01*
X31398Y-104500D01*
X32398Y-104333D01*
X33648Y-104666D01*
X34523Y-105500D01*
X34773Y-106500D01*
X34648Y-107500D01*
X34148Y-108333D01*
X31648Y-110000D01*
X30523Y-111166D01*
X29773Y-112833D01*
X29523Y-114333D01*
X34773D01*
G01X43648D02*
Y-104333D01*
X39023Y-111500D01*
X45273D01*
G01X59773Y-106000D02*
X60523Y-105000D01*
X61398Y-104500D01*
X62398Y-104333D01*
X63648Y-104666D01*
X64523Y-105500D01*
X64773Y-106500D01*
X64648Y-107500D01*
X64148Y-108333D01*
X61648Y-110000D01*
X60523Y-111166D01*
X59773Y-112833D01*
X59523Y-114333D01*
X64773D01*
G01X72148Y-104333D02*
X71148Y-104666D01*
X70398Y-105500D01*
X69898Y-106500D01*
X69523Y-107833D01*
X69398Y-109333D01*
X69523Y-110833D01*
X69898Y-112166D01*
X70398Y-113167D01*
X71148Y-114000D01*
X72148Y-114333D01*
X73148Y-114000D01*
X73898Y-113167D01*
X74398Y-112166D01*
X74773Y-110833D01*
X74898Y-109333D01*
X74773Y-107833D01*
X74398Y-106500D01*
X73898Y-105500D01*
X73148Y-104666D01*
X72148Y-104333D01*
G01X82148Y-114333D02*
Y-104333D01*
X80648Y-106333D01*
G01Y-114333D02*
X83648D01*
G01X93648D02*
Y-104333D01*
X89023Y-111500D01*
X95273D01*
G01X-51852Y-86296D02*
X-52602Y-85796D01*
X-53477Y-85463D01*
X-54477D01*
X-55602Y-85963D01*
X-56477Y-86796D01*
X-57102Y-87796D01*
X-57602Y-89463D01*
X-57727Y-90963D01*
X-57477Y-92463D01*
X-57102Y-93463D01*
X-56352Y-94463D01*
X-55477Y-95130D01*
X-54602Y-95463D01*
X-53727D01*
X-52852Y-95130D01*
X-52102Y-94630D01*
X-51477Y-93963D01*
G01X-44602Y-95463D02*
X-45602Y-95296D01*
X-46477Y-94630D01*
X-47227Y-93630D01*
X-47727Y-92463D01*
X-47977Y-91130D01*
Y-89796D01*
X-47727Y-88463D01*
X-47227Y-87296D01*
X-46477Y-86296D01*
X-45602Y-85630D01*
X-44602Y-85463D01*
X-43602Y-85630D01*
X-42727Y-86296D01*
X-41977Y-87296D01*
X-41477Y-88463D01*
X-41227Y-89796D01*
Y-91130D01*
X-41477Y-92463D01*
X-41977Y-93630D01*
X-42727Y-94630D01*
X-43602Y-95296D01*
X-44602Y-95463D01*
G01X-37852D02*
Y-85463D01*
X-34602Y-93796D01*
X-31352Y-85463D01*
Y-95463D01*
G01X-27102D02*
Y-85463D01*
X-24102D01*
X-23102Y-85963D01*
X-22352Y-87130D01*
X-22102Y-88463D01*
X-22352Y-89796D01*
X-22977Y-90796D01*
X-24102Y-91297D01*
X-27102D01*
G01X-17727Y-95463D02*
X-14602Y-85463D01*
X-11477Y-95463D01*
G01X-12602Y-91963D02*
X-16602D01*
G01X-7477Y-95463D02*
Y-85463D01*
X-1727Y-95463D01*
Y-85463D01*
G01X5398Y-95463D02*
Y-90963D01*
X2898Y-85463D01*
G01X7898D02*
X5398Y-90963D01*
G01X22523Y-95463D02*
Y-85463D01*
X28273Y-95463D01*
Y-85463D01*
G01X32273Y-95463D02*
X35398Y-85463D01*
X38523Y-95463D01*
G01X37398Y-91963D02*
X33398D01*
G01X42148Y-95463D02*
Y-85463D01*
X45398Y-93796D01*
X48648Y-85463D01*
Y-95463D01*
G01X57898D02*
X52898D01*
Y-85463D01*
X57898D01*
G01X55898Y-90296D02*
X52898D01*
G01X75398Y-95796D02*
X75148Y-95630D01*
Y-95296D01*
X75398Y-95130D01*
X75648Y-95296D01*
Y-95630D01*
X75398Y-95796D01*
G01Y-91297D02*
X75148Y-91130D01*
Y-90796D01*
X75398Y-90630D01*
X75648Y-90796D01*
Y-91130D01*
X75398Y-91297D01*
G01X95398Y-85463D02*
Y-95463D01*
G01X92523Y-85463D02*
X98273D01*
G01X107898Y-95463D02*
X102898D01*
Y-85463D01*
X107898D01*
G01X105898Y-90296D02*
X102898D01*
G01X112773Y-95463D02*
X118023Y-85463D01*
G01X112773D02*
X118023Y-95463D01*
G01X122273D02*
X125398Y-85463D01*
X128523Y-95463D01*
G01X127398Y-91963D02*
X123398D01*
G01X132773Y-94130D02*
X133773Y-94963D01*
X134898Y-95463D01*
X135898D01*
X136898Y-94963D01*
X137648Y-94130D01*
X138023Y-92963D01*
X137773Y-91797D01*
X137148Y-90796D01*
X136023Y-90130D01*
X134523Y-89796D01*
X133648Y-89130D01*
X133273Y-87963D01*
X133523Y-86796D01*
X134148Y-85963D01*
X135023Y-85463D01*
X135898D01*
X136773Y-85796D01*
X137523Y-86630D01*
G01X153898Y-85463D02*
X156898D01*
G01X155398D02*
Y-95463D01*
G01X153898D02*
X156898D01*
G01X162523D02*
Y-85463D01*
X168273Y-95463D01*
Y-85463D01*
G01X172773Y-94130D02*
X173773Y-94963D01*
X174898Y-95463D01*
X175898D01*
X176898Y-94963D01*
X177648Y-94130D01*
X178023Y-92963D01*
X177773Y-91797D01*
X177148Y-90796D01*
X176023Y-90130D01*
X174523Y-89796D01*
X173648Y-89130D01*
X173273Y-87963D01*
X173523Y-86796D01*
X174148Y-85963D01*
X175023Y-85463D01*
X175898D01*
X176773Y-85796D01*
X177523Y-86630D01*
G01X185398Y-85463D02*
Y-95463D01*
G01X182523Y-85463D02*
X188273D01*
G01X192898Y-95463D02*
Y-85463D01*
X196023D01*
X197023Y-85963D01*
X197648Y-86630D01*
X197898Y-87963D01*
X197648Y-89296D01*
X196898Y-90130D01*
X196023Y-90630D01*
X192898D01*
G01X196023D02*
X197898Y-95463D01*
G01X202648Y-85463D02*
Y-92630D01*
X203148Y-94130D01*
X204148Y-95130D01*
X205398Y-95463D01*
X206648Y-95130D01*
X207648Y-94130D01*
X208148Y-92630D01*
Y-85463D01*
G01X212148Y-95463D02*
Y-85463D01*
X215398Y-93796D01*
X218648Y-85463D01*
Y-95463D01*
G01X227898D02*
X222898D01*
Y-85463D01*
X227898D01*
G01X225898Y-90296D02*
X222898D01*
G01X232523Y-95463D02*
Y-85463D01*
X238273Y-95463D01*
Y-85463D01*
G01X245398D02*
Y-95463D01*
G01X242523Y-85463D02*
X248273D01*
G01X252773Y-94130D02*
X253773Y-94963D01*
X254898Y-95463D01*
X255898D01*
X256898Y-94963D01*
X257648Y-94130D01*
X258023Y-92963D01*
X257773Y-91797D01*
X257148Y-90796D01*
X256023Y-90130D01*
X254523Y-89796D01*
X253648Y-89130D01*
X253273Y-87963D01*
X253523Y-86796D01*
X254148Y-85963D01*
X255023Y-85463D01*
X255898D01*
X256773Y-85796D01*
X257523Y-86630D01*
G01X40000Y-164333D02*
Y-174333D01*
X45000D01*
G01X49375D02*
X52500Y-164333D01*
X55625Y-174333D01*
G01X54500Y-170833D02*
X50500D01*
G01X62500Y-174333D02*
Y-169833D01*
X60000Y-164333D01*
G01X65000D02*
X62500Y-169833D01*
G01X75000Y-174333D02*
X70000D01*
Y-164333D01*
X75000D01*
G01X73000Y-169167D02*
X70000D01*
G01X80000Y-174333D02*
Y-164333D01*
X83125D01*
X84125Y-164834D01*
X84750Y-165500D01*
X85000Y-166833D01*
X84750Y-168167D01*
X84000Y-169000D01*
X83125Y-169500D01*
X80000D01*
G01X83125D02*
X85000Y-174333D01*
G01X102500D02*
Y-164333D01*
X101000Y-166333D01*
G01Y-174333D02*
X104000D01*
G01X121875Y-177667D02*
X120625Y-176000D01*
X120000Y-174333D01*
Y-167667D01*
X120625Y-166000D01*
X121875Y-164333D01*
G01X132500D02*
Y-174333D01*
G01X129625Y-164333D02*
X135375D01*
G01X142500Y-174333D02*
X141500Y-174167D01*
X140625Y-173500D01*
X139875Y-172500D01*
X139375Y-171333D01*
X139125Y-170000D01*
Y-168667D01*
X139375Y-167333D01*
X139875Y-166167D01*
X140625Y-165167D01*
X141500Y-164500D01*
X142500Y-164333D01*
X143500Y-164500D01*
X144375Y-165167D01*
X145125Y-166167D01*
X145625Y-167333D01*
X145875Y-168667D01*
Y-170000D01*
X145625Y-171333D01*
X145125Y-172500D01*
X144375Y-173500D01*
X143500Y-174167D01*
X142500Y-174333D01*
G01X150000D02*
Y-164333D01*
X153000D01*
X154000Y-164834D01*
X154750Y-166000D01*
X155000Y-167333D01*
X154750Y-168667D01*
X154125Y-169667D01*
X153000Y-170167D01*
X150000D01*
G01X169875Y-173000D02*
X170875Y-173833D01*
X172000Y-174333D01*
X173000D01*
X174000Y-173833D01*
X174750Y-173000D01*
X175125Y-171833D01*
X174875Y-170667D01*
X174250Y-169667D01*
X173125Y-169000D01*
X171625Y-168667D01*
X170750Y-168000D01*
X170375Y-166833D01*
X170625Y-165667D01*
X171250Y-164834D01*
X172125Y-164333D01*
X173000D01*
X173875Y-164667D01*
X174625Y-165500D01*
G01X181000Y-164333D02*
X184000D01*
G01X182500D02*
Y-174333D01*
G01X181000D02*
X184000D01*
G01X189750D02*
Y-164333D01*
X192250D01*
X193250Y-164834D01*
X194000Y-165500D01*
X194625Y-166500D01*
X195125Y-167667D01*
X195250Y-169333D01*
X195125Y-171000D01*
X194625Y-172167D01*
X194000Y-173167D01*
X193250Y-173833D01*
X192250Y-174333D01*
X189750D01*
G01X205000D02*
X200000D01*
Y-164333D01*
X205000D01*
G01X203000Y-169167D02*
X200000D01*
G01X213125Y-177667D02*
X214375Y-176000D01*
X215000Y-174333D01*
Y-167667D01*
X214375Y-166000D01*
X213125Y-164333D01*
G01X101250Y-145667D02*
X100500Y-145167D01*
X99625Y-144833D01*
X98625D01*
X97500Y-145334D01*
X96625Y-146167D01*
X96000Y-147167D01*
X95500Y-148833D01*
X95375Y-150333D01*
X95625Y-151833D01*
X96000Y-152833D01*
X96750Y-153834D01*
X97625Y-154500D01*
X98500Y-154833D01*
X99375D01*
X100250Y-154500D01*
X101000Y-154000D01*
X101625Y-153334D01*
G01X111250Y-145667D02*
X110500Y-145167D01*
X109625Y-144833D01*
X108625D01*
X107500Y-145334D01*
X106625Y-146167D01*
X106000Y-147167D01*
X105500Y-148833D01*
X105375Y-150333D01*
X105625Y-151833D01*
X106000Y-152833D01*
X106750Y-153834D01*
X107625Y-154500D01*
X108500Y-154833D01*
X109375D01*
X110250Y-154500D01*
X111000Y-154000D01*
X111625Y-153334D01*
G01X115750Y-152833D02*
X116500Y-154000D01*
X117500Y-154667D01*
X118625Y-154833D01*
X119625Y-154667D01*
X120625Y-153834D01*
X121250Y-152833D01*
X121375Y-151833D01*
X121125Y-150667D01*
X120250Y-149833D01*
X119375Y-149500D01*
X118250D01*
G01X119375D02*
X120125Y-149000D01*
X120750Y-148167D01*
X121000Y-147167D01*
X120750Y-146167D01*
X120125Y-145334D01*
X119000Y-144833D01*
X117875Y-145000D01*
X116750Y-145667D01*
G01X126125Y-146500D02*
X126875Y-145500D01*
X127750Y-145000D01*
X128750Y-144833D01*
X130000Y-145167D01*
X130875Y-146000D01*
X131125Y-147000D01*
X131000Y-148000D01*
X130500Y-148833D01*
X128000Y-150500D01*
X126875Y-151667D01*
X126125Y-153334D01*
X125875Y-154833D01*
X131125D01*
G01X138500Y-144833D02*
X137500Y-145167D01*
X136750Y-146000D01*
X136250Y-147000D01*
X135875Y-148334D01*
X135750Y-149833D01*
X135875Y-151333D01*
X136250Y-152667D01*
X136750Y-153667D01*
X137500Y-154500D01*
X138500Y-154833D01*
X139500Y-154500D01*
X140250Y-153667D01*
X140750Y-152667D01*
X141125Y-151333D01*
X141250Y-149833D01*
X141125Y-148334D01*
X140750Y-147000D01*
X140250Y-146000D01*
X139500Y-145167D01*
X138500Y-144833D01*
G01X148500D02*
X147500Y-145167D01*
X146750Y-146000D01*
X146250Y-147000D01*
X145875Y-148334D01*
X145750Y-149833D01*
X145875Y-151333D01*
X146250Y-152667D01*
X146750Y-153667D01*
X147500Y-154500D01*
X148500Y-154833D01*
X149500Y-154500D01*
X150250Y-153667D01*
X150750Y-152667D01*
X151125Y-151333D01*
X151250Y-149833D01*
X151125Y-148334D01*
X150750Y-147000D01*
X150250Y-146000D01*
X149500Y-145167D01*
X148500Y-144833D01*
G01X156000D02*
Y-154833D01*
X161000D01*
G01X166000D02*
Y-144833D01*
X169000D01*
X170000Y-145334D01*
X170750Y-146500D01*
X171000Y-147833D01*
X170750Y-149167D01*
X170125Y-150167D01*
X169000Y-150667D01*
X166000D01*
G01X190000Y-154833D02*
Y-144833D01*
X185375Y-152000D01*
X191625D01*
G01X198500Y-155167D02*
X198250Y-155000D01*
Y-154667D01*
X198500Y-154500D01*
X198750Y-154667D01*
Y-155000D01*
X198500Y-155167D01*
G01X208500Y-154833D02*
Y-144833D01*
X207000Y-146833D01*
G01Y-154833D02*
X210000D01*
G01X183550Y-113400D02*
X184175Y-114400D01*
X184925Y-115067D01*
X185800Y-115400D01*
X186800Y-115067D01*
X187550Y-114400D01*
X188300Y-113400D01*
X188550Y-112067D01*
Y-105400D01*
G01X196050Y-115400D02*
X195050Y-115233D01*
X194175Y-114567D01*
X193425Y-113567D01*
X192925Y-112400D01*
X192675Y-111067D01*
Y-109733D01*
X192925Y-108400D01*
X193425Y-107233D01*
X194175Y-106233D01*
X195050Y-105567D01*
X196050Y-105400D01*
X197050Y-105567D01*
X197925Y-106233D01*
X198675Y-107233D01*
X199175Y-108400D01*
X199425Y-109733D01*
Y-111067D01*
X199175Y-112400D01*
X198675Y-113567D01*
X197925Y-114567D01*
X197050Y-115233D01*
X196050Y-115400D01*
G01X207050Y-110067D02*
X207550Y-109567D01*
X207925Y-108734D01*
X208175Y-107567D01*
X207925Y-106567D01*
X207425Y-105900D01*
X206550Y-105400D01*
X203175D01*
Y-115400D01*
X207300D01*
X208175Y-114733D01*
X208675Y-113733D01*
X208925Y-112567D01*
X208675Y-111400D01*
X207925Y-110400D01*
X207050Y-110067D01*
X203175D01*
G01X223175Y-115400D02*
Y-105400D01*
X228925Y-115400D01*
Y-105400D01*
G01X233300D02*
Y-112567D01*
X233800Y-114067D01*
X234800Y-115067D01*
X236050Y-115400D01*
X237300Y-115067D01*
X238300Y-114067D01*
X238800Y-112567D01*
Y-105400D01*
G01X242800Y-115400D02*
Y-105400D01*
X246050Y-113733D01*
X249300Y-105400D01*
Y-115400D01*
G01X257050Y-110067D02*
X257550Y-109567D01*
X257925Y-108734D01*
X258175Y-107567D01*
X257925Y-106567D01*
X257425Y-105900D01*
X256550Y-105400D01*
X253175D01*
Y-115400D01*
X257300D01*
X258175Y-114733D01*
X258675Y-113733D01*
X258925Y-112567D01*
X258675Y-111400D01*
X257925Y-110400D01*
X257050Y-110067D01*
X253175D01*
G01X268550Y-115400D02*
X263550D01*
Y-105400D01*
X268550D01*
G01X266550Y-110233D02*
X263550D01*
G01X273550Y-115400D02*
Y-105400D01*
X276675D01*
X277675Y-105900D01*
X278300Y-106567D01*
X278550Y-107900D01*
X278300Y-109233D01*
X277550Y-110067D01*
X276675Y-110567D01*
X273550D01*
G01X276675D02*
X278550Y-115400D01*
G01X286050Y-115733D02*
X285800Y-115567D01*
Y-115233D01*
X286050Y-115067D01*
X286300Y-115233D01*
Y-115567D01*
X286050Y-115733D01*
G01Y-111234D02*
X285800Y-111067D01*
Y-110733D01*
X286050Y-110567D01*
X286300Y-110733D01*
Y-111067D01*
X286050Y-111234D01*
G01X296050Y-105400D02*
Y-115400D01*
G01X293175Y-105400D02*
X298925D01*
G01X303425Y-114067D02*
X304425Y-114900D01*
X305550Y-115400D01*
X306550D01*
X307550Y-114900D01*
X308300Y-114067D01*
X308675Y-112900D01*
X308425Y-111734D01*
X307800Y-110733D01*
X306675Y-110067D01*
X305175Y-109733D01*
X304300Y-109067D01*
X303925Y-107900D01*
X304175Y-106733D01*
X304800Y-105900D01*
X305675Y-105400D01*
X306550D01*
X307425Y-105733D01*
X308175Y-106567D01*
G01X316050Y-115400D02*
Y-105400D01*
X314550Y-107400D01*
G01Y-115400D02*
X317550D01*
G01X326050Y-105400D02*
X325050Y-105733D01*
X324300Y-106567D01*
X323800Y-107567D01*
X323425Y-108900D01*
X323300Y-110400D01*
X323425Y-111900D01*
X323800Y-113233D01*
X324300Y-114234D01*
X325050Y-115067D01*
X326050Y-115400D01*
X327050Y-115067D01*
X327800Y-114234D01*
X328300Y-113233D01*
X328675Y-111900D01*
X328800Y-110400D01*
X328675Y-108900D01*
X328300Y-107567D01*
X327800Y-106567D01*
X327050Y-105733D01*
X326050Y-105400D01*
G01X336050Y-115400D02*
Y-105400D01*
X334550Y-107400D01*
G01Y-115400D02*
X337550D01*
G01X346050D02*
Y-105400D01*
X344550Y-107400D01*
G01Y-115400D02*
X347550D01*
G01X357550D02*
Y-105400D01*
X352925Y-112567D01*
X359175D01*
G01X362925Y-115400D02*
X366050Y-105400D01*
X369175Y-115400D01*
G01X368050Y-111900D02*
X364050D01*
G01X378800Y-106233D02*
X378050Y-105733D01*
X377175Y-105400D01*
X376175D01*
X375050Y-105900D01*
X374175Y-106733D01*
X373550Y-107733D01*
X373050Y-109400D01*
X372925Y-110900D01*
X373175Y-112400D01*
X373550Y-113400D01*
X374300Y-114400D01*
X375175Y-115067D01*
X376050Y-115400D01*
X376925D01*
X377800Y-115067D01*
X378550Y-114567D01*
X379175Y-113900D01*
G01X386050Y-105400D02*
X385050Y-105733D01*
X384300Y-106567D01*
X383800Y-107567D01*
X383425Y-108900D01*
X383300Y-110400D01*
X383425Y-111900D01*
X383800Y-113233D01*
X384300Y-114234D01*
X385050Y-115067D01*
X386050Y-115400D01*
X387050Y-115067D01*
X387800Y-114234D01*
X388300Y-113233D01*
X388675Y-111900D01*
X388800Y-110400D01*
X388675Y-108900D01*
X388300Y-107567D01*
X387800Y-106567D01*
X387050Y-105733D01*
X386050Y-105400D01*
G54D77*
X212709Y254516D03*
Y256484D03*
X206291D03*
Y254516D03*
G54D68*
X142000Y170000D03*
X150000D03*
G54D59*
X133000Y317957D03*
Y325043D03*
G54D87*
G01X56000Y121894D02*
Y117100D01*
X54986Y116086D01*
X54682D01*
G01D02*
X54586D01*
G01X44000Y122110D02*
X41890D01*
X41000Y123000D01*
Y130000D01*
X46100Y135100D01*
X50370D01*
X51017Y134453D01*
X52776D01*
G01Y132484D02*
X50016D01*
X49500Y133000D01*
G01X84000Y98571D02*
X89358D01*
X89441Y98654D01*
G01X84000Y98571D02*
Y94500D01*
G01X90571Y92500D02*
Y97524D01*
X89441Y98654D01*
G01X94559Y105346D02*
X96000Y106787D01*
Y109000D01*
G01X97500Y42890D02*
X102000D01*
G01X137499Y131001D02*
X129432D01*
X129354Y131079D01*
X122217D01*
G01X159000Y175110D02*
X153890Y170000D01*
X150000D01*
G01X197110Y252000D02*
X195000D01*
X194500Y252500D01*
G01X211000Y243571D02*
Y241029D01*
G01Y247429D02*
X210484Y247945D01*
Y252291D01*
G01X212453Y258709D02*
Y264657D01*
X212110Y265000D01*
G01X219000Y257071D02*
X215429D01*
X213791Y258709D01*
X212453D01*
G01X211000Y247429D02*
X215429D01*
X219000Y251000D01*
Y257071D01*
G01X206547Y252291D02*
X201181D01*
X200890Y252000D01*
G01X204610Y265000D02*
X204661Y264950D01*
Y257500D01*
X205676Y256484D01*
X206291D01*
G01Y254516D02*
X203374D01*
X200890Y257000D01*
G01X197110D02*
Y262000D01*
G01X200890D02*
Y265110D01*
G01X205532Y286500D02*
X203850D01*
X202000Y284650D01*
Y279000D01*
X199500Y276500D01*
X197799D01*
X196799Y275500D01*
G01X212110Y265000D02*
X208390D01*
G01X208779Y273336D02*
Y271779D01*
X206500Y269500D01*
X199500D01*
X197110Y267110D01*
Y262000D01*
G01X207500Y284532D02*
Y278394D01*
X208779Y277116D01*
G01X205532Y284532D02*
Y278368D01*
X204279Y277116D01*
G01X209468Y288468D02*
X212000Y291000D01*
G01D02*
X212679Y290321D01*
Y287800D01*
X211379Y286500D01*
G01D02*
X209468D01*
G01Y284532D02*
X212532D01*
X213532Y285532D01*
X216680D01*
G01X205532Y288468D02*
X199613D01*
X197827Y286682D01*
G01X207500Y296110D02*
Y288468D01*
G01X211779Y296110D02*
X207500D01*
G01X219000Y260929D02*
X221718D01*
X221788Y261000D01*
G01X215890Y265000D02*
X218500D01*
G01X216680Y285532D02*
Y289753D01*
G54D78*
X212453Y258709D03*
X210484D03*
X208516D03*
X206547D03*
X212453Y252291D03*
X210484D03*
X208516D03*
X206547D03*
G54D69*
X149000Y200000D03*
Y212000D03*
X158500Y200000D03*
Y212000D03*
G54D79*
X214783Y279217D03*
X200217Y293783D03*
M02*
