G04 ================== begin FILE IDENTIFICATION RECORD ==================*
G04 Layout Name:  CC3200-LAUNCHXL_BRD_Rev4p1_20140624.brd*
G04 Film Name:    L4.gbr*
G04 File Format:  Gerber RS274X*
G04 File Origin:  Cadence Allegro 16.6-P004*
G04 Origin Date:  Tue Jun 24 08:36:08 2014*
G04 *
G04 Layer:  DRAWING FORMAT/L6*
G04 Layer:  VIA CLASS/BOTTOM*
G04 Layer:  PIN/BOTTOM*
G04 Layer:  ETCH/BOTTOM*
G04 Layer:  DRAWING FORMAT/FILM_LABEL_OUTLINE*
G04 *
G04 Offset:    (0.0000 0.0000)*
G04 Mirror:    No*
G04 Mode:      Positive*
G04 Rotation:  0*
G04 FullContactRelief:  No*
G04 UndefLineWidth:     6.0000*
G04 ================== end FILE IDENTIFICATION RECORD ====================*
%FSLAX25Y25*MOIN*%
%IR0*IPPOS*OFA0.00000B0.00000*MIA0B0*SFA1.00000B1.00000*%
%ADD21C,.03*%
%ADD11C,.04*%
%ADD20C,.032*%
%ADD15C,.024*%
%ADD12C,.018*%
%ADD14C,.058*%
%ADD13R,.058X.058*%
%ADD17C,.059055*%
%ADD10C,.098425*%
%ADD16R,.059055X.059055*%
%ADD19O,.03937X.061024*%
%ADD18O,.049213X.037402*%
%ADD22C,.01*%
%ADD23C,.015*%
%ADD24C,.0199*%
%ADD25C,.015748*%
%ADD26C,.006*%
%ADD32C,.04*%
%ADD28C,.034*%
%ADD34C,.046*%
%ADD31C,.074*%
%ADD33C,.075056*%
%ADD27C,.120001*%
%ADD30R,.074X.074*%
%ADD29R,.075056X.075056*%
G75*
%LPD*%
G75*
G36*
G01X71518Y83833D02*
G02X69939Y83616I-872J490D01*
G01X58705Y94851D01*
X58699Y95049D01*
G03X56951Y93301I-1699J-49D01*
G01X57149Y93295D01*
X74544Y75900D01*
X90044D01*
X91400Y74544D01*
Y50544D01*
X95795Y46149D01*
X95801Y45951D01*
G03X97549Y47699I1699J49D01*
G01X97351Y47705D01*
X93600Y51456D01*
Y74544D01*
X94956Y75900D01*
X143627D01*
X145627Y77900D01*
X176920D01*
X176993Y77877D01*
G03X176028Y80350I507J1623D01*
G01X175883Y80100D01*
X174170D01*
G02X173181Y81248I0J1000D01*
G03X172954Y82381I-1681J252D01*
G02X173809Y83900I855J519D01*
G01X177704D01*
G03Y86100I1296J1100D01*
G01X176863D01*
G02X176509Y86954I0J500D01*
G01X179851Y90295D01*
X180049Y90301D01*
G03X178301Y92049I-49J1699D01*
G01X178295Y91851D01*
X175044Y88600D01*
X172070D01*
G02X171363Y90307I0J1000D01*
G01X176956Y95900D01*
X187956D01*
X190966Y98910D01*
X191310D01*
G02X192095Y97291I0J-1000D01*
G03X197905I2905J-2291D01*
G02X198690Y98910I785J619D01*
G01X201310D01*
G02X202095Y97291I0J-1000D01*
G03X207905I2905J-2291D01*
G02X208690Y98910I785J619D01*
G01X210946D01*
X222100Y110064D01*
Y123704D01*
G03X220782Y126686I-1100J1296D01*
G02X219653Y127678I-128J992D01*
G01Y132322D01*
G02X220782Y133314I1000J0D01*
G03X222699Y134951I218J1686D01*
G01X222705Y135149D01*
X226600Y139044D01*
Y298956D01*
X210705Y314851D01*
X210699Y315049D01*
G03X208951Y313301I-1699J-49D01*
G01X209149Y313295D01*
X224400Y298044D01*
Y141809D01*
G02X222881Y140954I-1000J0D01*
G03X221152Y140973I-881J-1454D01*
G02X219653Y141840I-499J867D01*
G01Y151990D01*
X220959Y153295D01*
X221157Y153301D01*
G03X219409Y155049I-49J1699D01*
G01X219403Y154851D01*
X217453Y152901D01*
Y118509D01*
X209544Y110600D01*
X208245D01*
G02X207555Y112323I0J1000D01*
G03X207172Y117995I-2555J2677D01*
G01X206966Y118145D01*
Y118900D01*
X207456D01*
X211100Y122544D01*
Y128704D01*
G03X208900I-1100J1296D01*
G01Y126966D01*
X208145D01*
X207995Y127172D01*
G03X202088Y122717I-2995J-2172D01*
G02X201301Y121100I-787J-617D01*
G01X198699D01*
G02X197912Y122717I0J1000D01*
G03X193190Y128227I-2912J2283D01*
G02X191700Y129099I-489J872D01*
G01Y130901D01*
G02X193190Y131773I1000J0D01*
G03Y138227I1810J3227D01*
G02X191700Y139099I-489J872D01*
G01Y140901D01*
G02X193190Y141773I1000J0D01*
G03Y148227I1810J3227D01*
G02X191700Y149099I-489J872D01*
G01Y150901D01*
G02X193190Y151773I1000J0D01*
G03Y158227I1810J3227D01*
G02X191700Y159099I-489J872D01*
G01Y160901D01*
G02X193190Y161773I1000J0D01*
G03Y168227I1810J3227D01*
G02X191700Y169099I-489J872D01*
G01Y171300D01*
X198700D01*
Y178700D01*
X194670D01*
G02X193963Y180407I0J1000D01*
G01X209356Y195800D01*
X211700D01*
Y203400D01*
X212544D01*
X214300Y201644D01*
Y195800D01*
X221700D01*
Y203200D01*
X215856D01*
X213456Y205600D01*
X211699D01*
G02X210912Y207217I0J1000D01*
G03X211235Y207705I-2912J2283D01*
G01X214765D01*
G03Y211295I3235J1795D01*
G01X211235D01*
G03X205828Y206505I-3235J-1795D01*
G01X206034Y206355D01*
Y205600D01*
X204544D01*
X202144Y203200D01*
X194300D01*
Y195800D01*
X198830D01*
G02X199537Y194093I0J-1000D01*
G01X187800Y182356D01*
Y173579D01*
G02X186504Y172624I-1000J0D01*
G03X186063Y172699I-504J-1624D01*
G02X185100Y173698I37J999D01*
G01Y190544D01*
X188600Y194044D01*
Y205456D01*
X186287Y207769D01*
X186416Y208078D01*
G03X181111Y212681I-3416J1422D01*
G02X179600Y213541I-511J860D01*
G01Y219956D01*
X159100Y240456D01*
Y249459D01*
G02X160611Y250319I1000J0D01*
G03X165916Y254922I1889J3181D01*
G01X165787Y255231D01*
X167956Y257400D01*
X168800D01*
Y249800D01*
X176200D01*
Y257400D01*
X211044D01*
X214295Y254149D01*
X214301Y253951D01*
G03X216049Y255699I1699J49D01*
G01X215851Y255705D01*
X211956Y259600D01*
X176200D01*
Y267200D01*
X168800D01*
Y259600D01*
X167044D01*
X164231Y256787D01*
X163922Y256916D01*
G03X160611Y256681I-1422J-3416D01*
G02X159100Y257541I-511J860D01*
G01Y258544D01*
X160769Y260213D01*
X161078Y260084D01*
G03X159084Y262078I1422J3416D01*
G01X159213Y261769D01*
X156900Y259456D01*
Y241070D01*
G02X155193Y240363I-1000J0D01*
G01X154600Y240956D01*
Y267544D01*
X158215Y271159D01*
G02X159683Y271101I707J-707D01*
G03X159079Y274910I2817J2399D01*
G01X158951Y274600D01*
X158544D01*
X152400Y268456D01*
Y241053D01*
G02X150693Y240346I-1000J0D01*
G01X149295Y241744D01*
Y277256D01*
X152141Y280103D01*
X152237Y280141D01*
G03X149641Y282737I-737J1859D01*
G01X149603Y282641D01*
X145705Y278744D01*
Y241748D01*
G02X143998Y241041I-1000J0D01*
G01X131295Y253744D01*
Y309253D01*
G02X132697Y310168I1000J0D01*
G03X132818Y313880I803J1832D01*
G02X131485Y314697I-341J940D01*
G03X130868Y315909I-1985J-246D01*
G02X130846Y317346I684J729D01*
G01X138000Y324500D01*
X140500D01*
X145000Y329000D01*
Y329172D01*
X145000Y336828D01*
X145000Y337500D01*
X143000Y339500D01*
X142328D01*
X126172Y339500D01*
X126000Y339500D01*
X111000Y324500D01*
Y324328D01*
X111000Y315700D01*
G02X110500Y315200I-500J0D01*
G03X110299Y315188I0J-1700D01*
G02X109188Y316299I-118J993D01*
G03X106993Y318123I-1688J201D01*
G01X106920Y318100D01*
X94796D01*
G03Y315900I-1296J-1100D01*
G01X105883D01*
X106028Y315650D01*
G03X106256Y315341I1472J850D01*
G01X105891Y314500D01*
X104500D01*
Y313600D01*
X90296D01*
G03Y311400I-1296J-1100D01*
G01X96527D01*
G02X97518Y310267I0J-1000D01*
G03X97614Y309333I1982J-267D01*
G02X96672Y308000I-943J-333D01*
G01X87172D01*
X86500Y308000D01*
X81000Y302500D01*
Y301828D01*
X81000Y287172D01*
X81000Y286500D01*
X85500Y282000D01*
X86172D01*
X106828Y282000D01*
X107000Y282000D01*
X112757Y287757D01*
G02X114456Y287183I707J-707D01*
G03X118363Y285650I2379J317D01*
G02X119637I637J-771D01*
G03Y289350I1528J1850D01*
G02X118363I-637J771D01*
G03X117152Y289879I-1528J-1850D01*
G02X116577Y291577I132J991D01*
G01X125998Y300998D01*
G02X127705Y300291I707J-707D01*
G01Y252256D01*
X169435Y210527D01*
X169379Y210262D01*
G03X174574Y206152I3621J-762D01*
G02X176000Y205247I426J-905D01*
G01Y203200D01*
X169300D01*
Y195800D01*
X169100D01*
Y193617D01*
X168531D01*
X168464Y193636D01*
G03X168072Y193698I-464J-1636D01*
G02X167594Y194201I21J500D01*
G03X165020Y195671I-1700J11D01*
G01X164901Y195600D01*
X139700D01*
Y203200D01*
X132300D01*
Y199170D01*
G02X130593Y198463I-1000J0D01*
G01X128456Y200600D01*
X115700D01*
Y203200D01*
X108300D01*
Y195800D01*
X115700D01*
Y198400D01*
X127544D01*
X128286Y197658D01*
X127808Y197180D01*
X127632Y197161D01*
G03X126106Y196345I242J-2287D01*
G02X124538Y196383I-769J640D01*
G03X120617Y194024I-1838J-1383D01*
G02X119712Y192600I-906J-424D01*
G01X41356D01*
X19100Y214856D01*
Y224456D01*
X15443Y228112D01*
X15533Y228401D01*
G03X9087Y231782I-3533J1099D01*
G02X7300Y232398I-787J617D01*
G01Y242547D01*
X11300Y246547D01*
Y296807D01*
G02X12374Y297805I1000J0D01*
G03X12451Y297801I126J1695D01*
G01X12649Y297795D01*
X13900Y296544D01*
Y266044D01*
X20295Y259649D01*
X20301Y259451D01*
G03X23296Y258400I1699J49D01*
G01X29838D01*
X33351Y261913D01*
X33549Y261919D01*
G03X31801Y263667I-49J1699D01*
G01X31795Y263469D01*
X28926Y260600D01*
X23296D01*
G03X22049Y261199I-1296J-1100D01*
G01X21851Y261205D01*
X16100Y266956D01*
Y297456D01*
X14205Y299351D01*
X14199Y299549D01*
G03X12374Y301195I-1699J-49D01*
G02X11300Y302193I-74J997D01*
G01Y314047D01*
X35453Y338200D01*
X46953D01*
X60453Y351700D01*
X135547D01*
X139874Y347374D01*
G03X143126Y350626I1626J1626D01*
G01X137453Y356300D01*
X58547D01*
X45047Y342800D01*
X33547D01*
X6700Y315953D01*
Y315295D01*
G02X5337Y314363I-1000J0D01*
G03X3537Y314188I-726J-1863D01*
G02X2000Y315031I-537J844D01*
G01Y328042D01*
G02X3167Y329028I1000J0D01*
G03Y332972I333J1972D01*
G02X2000Y333958I-167J986D01*
G01Y356067D01*
G02X3865Y356568I1000J0D01*
G03X13432Y366135I6056J3511D01*
G02X13933Y368000I502J865D01*
G01X214500D01*
X215612Y366888D01*
G02X215552Y365418I-707J-707D01*
G03X225418Y355552I4527J-5339D01*
G02X226888Y355612I763J-647D01*
G01X228000Y354500D01*
Y32000D01*
X228000Y12500D01*
X227167Y11667D01*
X226732Y12101D01*
X226694Y12210D01*
G03X217790Y3306I-6615J-2289D01*
G01X217899Y3268D01*
X218333Y2833D01*
X217500Y2000D01*
X135980D01*
Y20535D01*
X112358D01*
Y2000D01*
X14500D01*
X13824Y2676D01*
G02X13955Y4200I707J707D01*
G03X4200Y13955I-4034J5721D01*
G02X2676Y13824I-817J576D01*
G01X2000Y14500D01*
Y47547D01*
G02X3707Y48254I1000J0D01*
G01X17256Y34705D01*
X35244D01*
X36500Y35961D01*
X37159Y35302D01*
G02X36462Y33595I-707J-707D01*
G03X39152Y32498I38J-3753D01*
G02X39859Y34205I707J707D01*
G01X45256D01*
X47205Y32256D01*
Y22256D01*
X63481Y5981D01*
G03X64750Y5455I1269J1269D01*
G01X93007D01*
G03X95519Y8019I1243J1295D01*
G01X94494Y9045D01*
X65494D01*
X50795Y23744D01*
Y33744D01*
X46744Y37795D01*
X39744D01*
X38295Y39244D01*
Y46500D01*
G03X34705I-1795J0D01*
G01Y39244D01*
X33756Y38295D01*
X18744D01*
X6545Y50494D01*
Y165006D01*
X14744Y173205D01*
X21300D01*
Y171300D01*
X28700D01*
Y178700D01*
X21300D01*
Y176795D01*
X13256D01*
X3707Y167246D01*
G02X2000Y167953I-707J707D01*
G01Y190333D01*
G02X3707Y191040I1000J0D01*
G01X12547Y182200D01*
X28047D01*
X32490Y177757D01*
X32189Y177406D01*
G03X37300Y177898I2811J-2406D01*
G01Y179453D01*
X29953Y186800D01*
X14453D01*
X7300Y193953D01*
Y195800D01*
X15700D01*
Y198400D01*
X22044D01*
X45044Y175400D01*
X51854D01*
G02X52797Y174067I0J-1000D01*
G03X54351Y171801I1603J-567D01*
G01X54549Y171795D01*
X55944Y170400D01*
X83704D01*
G03X84143Y170032I1296J1100D01*
G01X84391Y169887D01*
Y169100D01*
X53456D01*
X51205Y171351D01*
X51199Y171549D01*
G03X48049Y170615I-1699J-49D01*
G02X47827Y169318I-854J-521D01*
G03X50404Y167208I1073J-1318D01*
G02X51996Y167448I885J-466D01*
G01X52544Y166900D01*
X84994D01*
X85128Y166799D01*
G03X85321Y166672I1026J1356D01*
G02X85538Y165094I-490J-872D01*
G01X79544Y159100D01*
X57408D01*
G03Y156900I-1296J-1100D01*
G01X80064D01*
Y153960D01*
G03X80030Y153931I1100J-1296D01*
G01X76160D01*
X74387Y152158D01*
G02X73364Y152572I-198J980D01*
G03X71000Y150208I-1401J-962D01*
G02X71414Y149185I-566J-824D01*
G01X63995Y141767D01*
X38488D01*
G02X38181Y143111I553J833D01*
G03X31819I-3181J1889D01*
G02X31512Y141767I-860J-511D01*
G01X28488D01*
G02X28181Y143111I553J833D01*
G03X21819I-3181J1889D01*
G02X21512Y141767I-860J-511D01*
G01X16025D01*
X15697Y142094D01*
G03X12354Y142423I-1697J-94D01*
G02X11242Y141683I-968J249D01*
G03X10167Y138518I-242J-1683D01*
G02X10384Y136939I-490J-872D01*
G01X10149Y136705D01*
X9951Y136699D01*
G03X11699Y134951I49J-1699D01*
G01X11705Y135149D01*
X14556Y138000D01*
X20747D01*
G02X21652Y136574I0J-1000D01*
G03X28348I3348J-1574D01*
G02X29253Y138000I905J426D01*
G01X30747D01*
G02X31652Y136574I0J-1000D01*
G03X38348I3348J-1574D01*
G02X39253Y138000I905J426D01*
G01X63766D01*
G02X64654Y136539I0J-1000D01*
G03X64483Y135492I1509J-783D01*
G01X64490Y135414D01*
X64213Y134966D01*
G03X63415Y134129I759J-1521D01*
G01X63378Y134043D01*
X62885Y133550D01*
X51136D01*
X50994Y133811D01*
G03X47801Y133049I-1494J-811D01*
G01X47795Y132851D01*
X46900Y131956D01*
Y122044D01*
X52877Y116068D01*
X52896Y115894D01*
G03X54503Y117784I1689J192D01*
G01X54282Y117773D01*
X49100Y122956D01*
Y127302D01*
G02X50063Y128301I1000J0D01*
G03X51556Y129316I-63J1699D01*
G01X51594Y129402D01*
X52642Y130450D01*
X64169D01*
X65046Y131328D01*
G02X65900Y130974I354J-354D01*
G01Y130198D01*
G02X65423Y129698I-500J0D01*
G03X67199Y127951I77J-1698D01*
G01X67205Y128149D01*
X68250Y129194D01*
X72400Y125044D01*
Y110544D01*
X92044Y90900D01*
X125544D01*
X126137Y90307D01*
G02X125430Y88600I-707J-707D01*
G01X86956D01*
X62956Y112600D01*
X57579D01*
X57507Y112623D01*
G03X57311Y109329I-507J-1623D01*
G02X57879Y108988I91J-492D01*
G03X59451Y107801I1621J512D01*
G01X59649Y107795D01*
X85544Y81900D01*
X123251D01*
X125251Y83900D01*
X134259D01*
G02X134966Y82193I0J-1000D01*
G01X132273Y79500D01*
X78056D01*
X74705Y82851D01*
X74699Y83049D01*
G03X71518Y83833I-1699J-49D01*
G37*
G36*
G01X2000Y246167D02*
Y309969D01*
G02X3537Y310812I1000J0D01*
G03X5337Y310637I1073J1688D01*
G02X6700Y309705I363J-932D01*
G01Y248453D01*
X3707Y245460D01*
G02X2000Y246167I-707J707D01*
G37*
G36*
G01X86456Y84100D02*
X61205Y109351D01*
X61199Y109549D01*
G03X61172Y109809I-1699J-49D01*
G01X61163Y109854D01*
Y110400D01*
X62044D01*
X86044Y86400D01*
X122225D01*
G02X122932Y84693I0J-1000D01*
G01X122339Y84100D01*
X86456D01*
G37*
G36*
G01X81693Y107863D02*
X77100Y112456D01*
Y114920D01*
X77123Y114993D01*
G03X75563Y117199I-1623J507D01*
G02X74600Y118198I37J999D01*
G01Y125956D01*
X70600Y129956D01*
Y137044D01*
X72879Y139323D01*
G02X74445Y139129I707J-707D01*
G03X74805Y138704I1460J871D01*
G01Y136177D01*
X76677Y134305D01*
X79788D01*
X80193Y133900D01*
G03X81302Y133692I707J707D01*
G01X81615Y133829D01*
X82500Y132944D01*
Y113964D01*
X83400Y113064D01*
Y108570D01*
G02X81693Y107863I-1000J0D01*
G37*
G36*
G01X86100Y117663D02*
Y139456D01*
X84705Y140851D01*
X84699Y141049D01*
G03X84293Y142103I-1699J-49D01*
G02X84320Y142782I380J325D01*
G01X94244Y152705D01*
X105244D01*
X107550Y155011D01*
X129950D01*
X132644Y157705D01*
X160075D01*
G02X160931Y156188I0J-1000D01*
G03X161661Y153062I1969J-1188D01*
G02X161992Y151727I-539J-842D01*
G03X165232Y152530I2001J-1134D01*
G02X164901Y153866I539J842D01*
G03X164812Y156278I-2001J1134D01*
G02X165055Y157641I831J556D01*
G03X165834Y158642I-1355J1859D01*
G02X167469Y158976I928J-373D01*
G01X167900Y158544D01*
Y154044D01*
X171876Y150068D01*
X171828Y149809D01*
G03X174015Y151120I1672J-309D01*
G01X173899Y151157D01*
X170100Y154956D01*
Y159456D01*
X165956Y163600D01*
X161956D01*
X158956Y166600D01*
X119296D01*
G03Y164400I-1296J-1100D01*
G01X126691D01*
G02X127546Y162881I0J-1000D01*
G03X128343Y160432I1454J-881D01*
G02X128664Y158803I-386J-922D01*
G01X128463Y158601D01*
X114319D01*
G02X113320Y159564I0J1000D01*
G03X112971Y160534I-1699J-63D01*
G02X113035Y161210I397J304D01*
G03X110293Y161278I-1335J1490D01*
G02X110323Y160600I-352J-355D01*
G03X109922Y159564I1298J-1098D01*
G02X108923Y158601I-999J37D01*
G01X107437D01*
X102245Y163793D01*
X102223Y163823D01*
G03X98989Y162750I-1439J-1073D01*
G01Y161972D01*
X102959Y158002D01*
G02X102252Y156295I-707J-707D01*
G01X92756D01*
X81951Y145490D01*
X81140D01*
X78174Y142524D01*
Y142383D01*
G02X76704Y141500I-1000J0D01*
G03X76486Y141597I-799J-1500D01*
G02X76167Y142166I171J470D01*
G03X72801Y142549I-1667J334D01*
G01X72795Y142351D01*
X68374Y137930D01*
G02X66942Y137267I-974J227D01*
G03X66824Y137322I-779J-1511D01*
G02X66506Y138951I389J921D01*
G01X75956Y148400D01*
X82456D01*
X94600Y160544D01*
Y174654D01*
G03X95199Y175901I-1100J1296D01*
G01X95205Y176099D01*
X96677Y177571D01*
X154913D01*
X173400Y159085D01*
Y156216D01*
X176400Y153216D01*
Y142784D01*
X175900Y142284D01*
Y133716D01*
X177304Y132312D01*
X177333Y132164D01*
G03X177858Y131241I1667J336D01*
G02Y129759I-672J-741D01*
G03X177704Y129600I1142J-1259D01*
G01X150956D01*
X140156Y140400D01*
X131844D01*
X118700Y127256D01*
Y124503D01*
X113197Y119000D01*
X88444D01*
X87149Y117705D01*
X86951Y117699D01*
G03X86691Y117672I49J-1699D01*
G01X86646Y117663D01*
X86100D01*
G37*
G36*
G01X92956Y93100D02*
X91963Y94093D01*
G02X92670Y95800I707J707D01*
G01X122373D01*
X123366Y94807D01*
G02X122659Y93100I-707J-707D01*
G01X92956D01*
G37*
G36*
G01X102544Y110400D02*
X103324Y109620D01*
G02X103255Y108143I-707J-707D01*
G03X105648Y105749I1084J-1310D01*
G02X107034Y105900I770J-638D01*
G01X114183D01*
G02X115183Y104900I0J-1000D01*
G03X115189Y104789I1000J0D01*
G02X115007Y103813I-1689J-189D01*
G03X114893Y103350I886J-463D01*
G02X113893Y102350I-1000J0D01*
G01X110295D01*
X108544Y100600D01*
X92356D01*
X85600Y107356D01*
Y110430D01*
G02X87307Y111137I1000J0D01*
G01X88044Y110400D01*
X102544D01*
G37*
G36*
G01X87000Y284000D02*
X83000Y288000D01*
Y301000D01*
X88000Y306000D01*
X109000D01*
X113000Y310000D01*
Y323500D01*
X127000Y337500D01*
X141500D01*
X143000Y336000D01*
Y330000D01*
X140000Y327000D01*
X137000D01*
X130801Y320801D01*
G02X129229Y321005I-707J707D01*
G03X126495Y318271I-1729J-1005D01*
G02X126699Y316699I-503J-865D01*
G01X125750Y315750D01*
Y303750D01*
X122387Y300387D01*
G02X120872Y300503I-707J707D01*
G03X118497Y298128I-1372J-1003D01*
G02X118613Y296613I-590J-807D01*
G01X106000Y284000D01*
X87000D01*
G37*
G36*
G01X125005Y96280D02*
X123284Y98000D01*
X111470D01*
G02X110763Y99707I0J1000D01*
G01X111206Y100150D01*
X143706D01*
X146956Y103400D01*
X185956D01*
X190956Y108400D01*
X191962D01*
G02X192324Y107555I0J-500D01*
G03X192082Y102725I2676J-2555D01*
G02X191293Y101110I-789J-615D01*
G01X190055D01*
X187044Y98100D01*
X178198D01*
G02X177199Y99063I0J1000D01*
G03X173801Y99049I-1699J-63D01*
G01X173795Y98851D01*
X171224Y96280D01*
X125005D01*
G37*
G36*
G01X126556Y106500D02*
X124956Y108100D01*
X107956D01*
X103456Y112600D01*
X99303D01*
G02X98314Y113748I0J1000D01*
G03X98332Y113951I-1681J252D01*
G01X98338Y114149D01*
X99589Y115400D01*
X106802D01*
G02X107801Y114437I0J-1000D01*
G03X108179Y113430I1699J63D01*
G01X108290Y113293D01*
Y111431D01*
X110106Y109615D01*
X112863D01*
X120995Y117747D01*
X120996D01*
X123723Y120474D01*
G02X125196Y120409I707J-707D01*
G03X125996Y119876I1304J1091D01*
G02X126700Y118915I-296J-955D01*
G03X131273Y119248I2300J-15D01*
G02X132262Y120400I988J152D01*
G01X137064D01*
X139765Y117700D01*
X148675D01*
X184256Y117700D01*
X186540Y119984D01*
Y119985D01*
X190113Y123558D01*
G02X191710Y123308I707J-707D01*
G03X192088Y122717I3290J1692D01*
G02X191301Y121100I-787J-617D01*
G01X190544D01*
X181544Y112100D01*
X156633D01*
X156033Y112700D01*
X139316D01*
X136563Y109947D01*
G02X134990Y110153I-707J707D01*
G03X134464Y110774I-1990J-1153D01*
G02X134506Y112350I636J771D01*
G03X131676Y112426I-1366J1850D01*
G02X131634Y110850I-636J-771D01*
G03X130951Y107955I1366J-1850D01*
G02X130061Y106500I-891J-455D01*
G01X126556D01*
G37*
G36*
G01X144716Y80100D02*
X142716Y78100D01*
X136398D01*
G02X135418Y79298I0J1000D01*
G01X137853Y81733D01*
X169475D01*
X169803Y81406D01*
G03X169819Y81248I1697J94D01*
G02X168830Y80100I-989J-148D01*
G01X144716D01*
G37*
G36*
G01X120607Y102350D02*
G02X119607Y103350I0J1000D01*
G03X119493Y103813I-1000J0D01*
G02X119311Y104789I1507J787D01*
G03X119317Y104900I-994J111D01*
G02X120317Y105900I1000J0D01*
G01X124044D01*
X125644Y104300D01*
X134027D01*
X140227Y110500D01*
X140902D01*
G02X141768Y109000I0J-1000D01*
G03X144700Y106400I1732J-1000D01*
G02X145300I300J-400D01*
G03X145670Y106180I1200J1600D01*
G01X145752Y106143D01*
X146170Y105725D01*
X142795Y102350D01*
X120607D01*
G37*
G36*
G01X134472Y125167D02*
G03X134386Y126167I-1972J333D01*
G02X135328Y127500I943J333D01*
G01X138444D01*
X142937Y123007D01*
G02X142230Y121300I-707J-707D01*
G01X141256D01*
X138556Y124000D01*
X135458D01*
G02X134472Y125167I0J1000D01*
G37*
G36*
G01X145415Y127600D02*
X141980Y131036D01*
X140516Y132500D01*
X129470D01*
G02X128763Y134207I0J1000D01*
G01X130720Y136164D01*
G02X132285Y135971I707J-707D01*
G03X135996Y137133I1715J1029D01*
G02X136993Y138200I998J67D01*
G01X139244D01*
X148137Y129307D01*
G02X147430Y127600I-707J-707D01*
G01X145415D01*
G37*
G36*
G01X148269Y107067D02*
G03X148232Y109000I-1769J933D01*
G02X149098Y110500I866J500D01*
G01X155121D01*
X155721Y109900D01*
X177830D01*
G02X178819Y108752I0J-1000D01*
G03X182087Y109111I1681J-252D01*
G01X181970Y109414D01*
X191456Y118900D01*
X193034D01*
Y118145D01*
X192828Y117995D01*
G03X192445Y112323I2172J-2995D01*
G02X191755Y110600I-690J-723D01*
G01X190044D01*
X185044Y105600D01*
X149153D01*
G02X148269Y107067I0J1000D01*
G37*
%LPC*%
G75*
G36*
G01X43951Y278199D02*
X44149Y278205D01*
X44478Y278534D01*
Y279782D01*
G02X45154Y282725I1100J1296D01*
G01X45286Y282759D01*
X45736Y283209D01*
X45149Y283795D01*
X44951Y283801D01*
G02X45948Y286911I49J1699D01*
G03X47170Y286994I558J830D01*
G02X49380Y283704I1330J-1494D01*
G01X49100Y283567D01*
Y262239D01*
X49464Y262136D01*
G02X50363Y261516I-464J-1636D01*
G03X51872Y261407I802J598D01*
G01X52577Y262112D01*
X52180Y262510D01*
X52127Y262541D01*
G02X51571Y264920I873J1459D01*
G03X51385Y266216I-841J541D01*
G02X52451Y269199I1115J1284D01*
G01X52649Y269205D01*
X54400Y270956D01*
Y290812D01*
X44900Y300312D01*
Y301691D01*
G03X43381Y302546I-1000J0D01*
G02X41204Y302900I-881J1454D01*
G01X30044D01*
X24149Y308795D01*
X23951Y308801D01*
G02X23433Y308897I49J1699D01*
G03X22100Y307954I-333J-943D01*
G01Y298956D01*
X31351Y289705D01*
X31549Y289699D01*
G02X33199Y288049I-49J-1699D01*
G01X33205Y287851D01*
X33764Y287291D01*
Y280632D01*
G02X31564I-1100J-1296D01*
G01Y286253D01*
X31163Y286334D01*
G02X29801Y287951I337J1666D01*
G01X29795Y288149D01*
X19900Y298044D01*
Y314704D01*
G02X19757Y317159I1100J1296D01*
G03X19730Y317868I-366J341D01*
G02X22581Y319167I1152J1250D01*
G01X22587Y318969D01*
X25100Y316456D01*
Y311796D01*
G02X25699Y310549I-1100J-1296D01*
G01X25705Y310351D01*
X26137Y309919D01*
G03X27643Y310024I707J707D01*
G02X28951Y310699I1357J-1024D01*
G01X29149Y310705D01*
X29544Y311100D01*
X42204D01*
G02X42537Y311401I1296J-1100D01*
G01X42574Y311427D01*
X42960Y311813D01*
X39873Y314900D01*
X32796D01*
G02Y317100I-1296J1100D01*
G01X39741D01*
G03X40448Y318807I0J1000D01*
G01X35785Y323470D01*
Y333735D01*
X35561Y333883D01*
G02X38020Y336061I939J1417D01*
G01X38056Y335988D01*
X38750Y335295D01*
X39444Y335988D01*
X39480Y336061D01*
G02X41939Y333883I1520J-761D01*
G01X41715Y333735D01*
Y325927D01*
X42611Y325031D01*
X43053Y325472D01*
X43089Y325590D01*
G02X46064Y323307I1911J-590D01*
G03X45889Y321753I532J-847D01*
G01X47742Y319901D01*
X73028D01*
X73785Y320658D01*
Y321298D01*
X73674Y321436D01*
G02X76102Y323795I1326J1064D01*
G03X77398I648J762D01*
G02X79826Y321436I1102J-1295D01*
G01X79715Y321298D01*
Y319584D01*
G03X81006Y318627I1000J0D01*
G02X82395Y318445I494J-1627D01*
G01X82901D01*
X87345Y322889D01*
G02X89389Y320845I1655J-389D01*
G01X84099Y315555D01*
X82395D01*
G02X79910Y316399I-895J1445D01*
G03X78267Y316753I-935J-353D01*
G01X75484Y313970D01*
X46328D01*
G03X45621Y312263I0J-1000D01*
G01X45955Y311929D01*
G03X47487Y312071I707J707D01*
G02X49990Y309814I1403J-961D01*
G01Y308454D01*
X50611D01*
X50719Y308510D01*
G02X52796Y308100I781J-1510D01*
G01X55188D01*
X59336Y303953D01*
X60800Y302489D01*
Y265244D01*
X50100Y254544D01*
Y228456D01*
X65356Y213200D01*
X71200D01*
Y205800D01*
X63800D01*
Y211644D01*
X62907Y212537D01*
G03X61200Y211830I-707J-707D01*
G01Y205800D01*
X53800D01*
Y213200D01*
X59830D01*
G03X60537Y214907I0J1000D01*
G01X50307Y225137D01*
G03X48600Y224430I-707J-707D01*
G01Y213200D01*
X51200D01*
Y205800D01*
X43800D01*
Y213200D01*
X46400D01*
Y255936D01*
X48093Y257628D01*
G03X47984Y259137I-707J707D01*
G02X47301Y260451I1016J1363D01*
G01X47295Y260649D01*
X46900Y261044D01*
Y266638D01*
G03X45600Y267592I-1000J0D01*
G02Y271408I-600J1908D01*
G03X46900Y272362I300J954D01*
G01Y276637D01*
G03X46046Y276991I-500J0D01*
G01X45705Y276649D01*
X45699Y276451D01*
G02X44049Y274801I-1699J49D01*
G01X43851Y274795D01*
X36456Y267400D01*
X25296D01*
G02X22960Y267155I-1296J1100D01*
G03X21565Y266987I-612J-791D01*
G02X21385Y269674I-1565J1245D01*
G03X22789Y269694I692J721D01*
G02X22805Y269709I1211J-1194D01*
G03X22691Y270505I-351J356D01*
G02X24796Y273100I809J1495D01*
G01X31420D01*
X31493Y273123D01*
G02X33603Y270933I507J-1623D01*
G03X34546Y269600I943J-333D01*
G01X35544D01*
X42295Y276351D01*
X42301Y276549D01*
G02X43951Y278199I1699J-49D01*
G37*
G36*
G01X180114Y289239D02*
G03X180148Y290539I-743J669D01*
G02X183186Y290461I1552J1261D01*
G03X183152Y289161I743J-669D01*
G02X180114Y289239I-1552J-1261D01*
G37*
G36*
G01X208900Y248304D02*
Y244544D01*
X206156Y241800D01*
X204296D01*
G02Y244000I-1296J1100D01*
G01X205244D01*
X206700Y245456D01*
Y248304D01*
G02X208900I1100J1296D01*
G37*
G36*
G01X28056Y117086D02*
G02X21944I-3056J-2086D01*
G03X21118Y118650I-826J564D01*
G01X11794D01*
X11649Y118795D01*
X11451Y118801D01*
G02X13068Y121157I49J1699D01*
G01X13197Y120850D01*
X21512D01*
G03X22254Y122520I0J1000D01*
G02X27746I2746J2480D01*
G03X28488Y120850I742J-670D01*
G01X31512D01*
G03X32254Y122520I0J1000D01*
G02X37746I2746J2480D01*
G03X38488Y120850I742J-670D01*
G01X43106D01*
X46759Y117196D01*
X46971Y117200D01*
G02X45305Y115369I29J-1700D01*
G01X45291Y115554D01*
X42194Y118650D01*
X38882D01*
G03X38056Y117086I0J-1000D01*
G02X31944I-3056J-2086D01*
G03X31118Y118650I-826J564D01*
G01X28882D01*
G03X28056Y117086I0J-1000D01*
G37*
G36*
G01X86627Y245431D02*
X87875D01*
X88769Y246325D01*
G03X88208Y248021I-707J707D01*
G02X90479Y250292I292J1979D01*
G03X92175Y249731I989J146D01*
G01X107795Y265351D01*
X107801Y265549D01*
G02X109549Y263801I1699J-49D01*
G01X109351Y263795D01*
X88786Y243231D01*
X86627D01*
G02Y245431I-1296J1100D01*
G37*
G36*
G01X218400Y295670D02*
G02X217612Y293341I1100J-1670D01*
G03X216117Y293847I-944J-329D01*
G02X216906Y296176I-1100J1670D01*
G03X218400Y295670I944J329D01*
G37*
G36*
G01X112711Y295036D02*
G02X110623Y295964I-1711J-1036D01*
G03X111289Y297464I-189J982D01*
G02X113377Y296536I1711J1036D01*
G03X112711Y295036I189J-982D01*
G37*
G54D32*
X21500Y283000D03*
X38000Y299500D03*
X42500Y295500D03*
X68500Y236000D03*
X74500Y250500D03*
X70000Y259000D03*
Y323000D03*
X91500Y232500D03*
X83500Y266000D03*
X95500Y337500D03*
X101000Y248500D03*
X154425Y300400D03*
X189500Y244500D03*
X190000Y323000D03*
X197827Y279673D03*
X218500Y265000D03*
X136000Y148000D03*
X88500Y294000D03*
X89000Y299000D03*
X119000Y324000D03*
X127543Y325043D03*
G54D28*
X15000Y80500D03*
X16000Y98000D03*
X10000Y105000D03*
X14500Y159000D03*
X42500Y51500D03*
X57000Y101000D03*
X45000Y103500D03*
X57000Y105500D03*
X45000Y110000D03*
X49500Y150080D03*
X57000Y163000D03*
X61000Y116500D03*
X59071Y152000D03*
X66000Y164000D03*
X79000Y46500D03*
X107610Y234110D03*
X174500Y36000D03*
X170250Y348750D03*
X208000Y226000D03*
X200890Y265110D03*
X78000Y128500D03*
G54D34*
X219750Y65250D03*
G54D31*
X25000Y85000D03*
X35000D03*
X25000Y95000D03*
X35000D03*
X25000Y105000D03*
X35000D03*
X25000Y155000D03*
X35000D03*
X25000Y165000D03*
X57500Y199500D03*
X47500D03*
X67500D03*
X77500D03*
X102000Y209500D03*
Y219500D03*
X112000Y209500D03*
Y219500D03*
X136000Y209500D03*
X195000Y85000D03*
X198000Y209500D03*
X205000Y85000D03*
Y135000D03*
Y145000D03*
Y155000D03*
Y165000D03*
G54D33*
X194000Y29843D03*
X197157Y327000D03*
G54D27*
X10000Y24500D03*
X219500Y28000D03*
X205500Y360500D03*
G54D30*
X25000Y45000D03*
X77500Y209500D03*
X102000Y199500D03*
X172500Y273500D03*
X205000Y45000D03*
G54D29*
X36500Y10157D03*
X194000D03*
X216843Y327000D03*
%LPD*%
G75*
G36*
G01X55493Y294810D02*
X48500Y301803D01*
Y303202D01*
G02X50207Y303909I1000J0D01*
G01X50916Y303200D01*
X51507D01*
G02X52504Y302133I0J-1000D01*
G03X56254Y301038I1996J-133D01*
G01X56288Y301101D01*
X56692Y301505D01*
X57200Y300997D01*
Y295517D01*
G02X55493Y294810I-1000J0D01*
G37*
G54D10*
X9921Y9921D03*
Y360079D03*
X220079Y9921D03*
Y360079D03*
G54D20*
X116835Y287500D03*
X121165D03*
G54D11*
X10000Y24500D03*
X205500Y360500D03*
X219500Y28000D03*
G54D12*
X15000Y80500D03*
X16000Y98000D03*
X11500Y120500D03*
X10000Y105000D03*
X11000Y140000D03*
X10000Y135000D03*
X14000Y142000D03*
X14500Y159000D03*
X12500Y299500D03*
X35000Y58000D03*
Y53000D03*
X36500Y46500D03*
X35000Y78000D03*
Y68000D03*
X22000Y259500D03*
X33500Y263618D03*
X32664Y279336D03*
X32000Y271500D03*
X23500Y272000D03*
X24000Y268500D03*
X31500Y288000D03*
X21000Y316000D03*
X31500D03*
X29000Y309000D03*
X24000Y310500D03*
X20882Y319118D03*
X36500Y335300D03*
X51500Y46000D03*
X55000Y58000D03*
X50000D03*
X45000D03*
X40000D03*
X55000Y53000D03*
X50000D03*
X45000D03*
X40000D03*
X55000Y48000D03*
X46500Y46200D03*
X42500Y51500D03*
X40000Y78000D03*
X45000D03*
X50000D03*
X55000D03*
Y68000D03*
X50000D03*
X45000D03*
X40000D03*
X57000Y95000D03*
Y101000D03*
X45000Y103500D03*
X57000Y105500D03*
X47000Y115500D03*
X54586Y116086D03*
X45000Y110000D03*
X57000Y111000D03*
X55500Y129500D03*
X55600Y135000D03*
X50000Y130000D03*
X49500Y133000D03*
Y150080D03*
X56112Y158000D03*
X48900Y168000D03*
X54400Y173500D03*
X49500Y171500D03*
X58500Y176500D03*
X57000Y163000D03*
X49000Y260500D03*
X53000Y264000D03*
X52500Y267500D03*
X44000Y276500D03*
X45578Y281078D03*
X45000Y285500D03*
X51500Y307000D03*
X48890Y311110D03*
X43500Y310000D03*
X42500Y304000D03*
X41000Y335300D03*
X39000Y345200D03*
X64750Y7250D03*
X60000Y58000D03*
Y53000D03*
X65000D03*
Y58000D03*
X70000Y53000D03*
Y58000D03*
X75000Y53000D03*
Y58000D03*
Y48000D03*
X70000D03*
X65000D03*
X60000D03*
Y78000D03*
Y68000D03*
X65000D03*
X70000D03*
X75000D03*
X73000Y83000D03*
X68500Y121500D03*
X61000Y116500D03*
X75500Y115500D03*
X59500Y109500D03*
X73500Y138000D03*
X71500Y131000D03*
X70000Y125000D03*
X78000Y128500D03*
X64972Y133445D03*
X78000Y137500D03*
X74500Y142500D03*
X75905Y140000D03*
X65500Y128000D03*
X66163Y135756D03*
X78000Y145500D03*
X66500Y150000D03*
X59071Y152000D03*
X71962Y151610D03*
X66000Y164000D03*
X69500Y188500D03*
X75000Y322500D03*
X94250Y6750D03*
X82750Y7250D03*
X80000Y53000D03*
Y58000D03*
X85000Y53000D03*
Y58000D03*
X90000Y53000D03*
Y58000D03*
X95000Y53000D03*
Y58000D03*
X90000Y48000D03*
X85000D03*
X97500Y46000D03*
X79000Y46500D03*
X80000Y68000D03*
X85000D03*
X90000D03*
X95000D03*
X96000Y109000D03*
X87000Y116000D03*
X96633Y114000D03*
X83000Y141000D03*
X85000Y155400D03*
X81164Y152664D03*
X85000Y171500D03*
X86154Y168154D03*
X86000Y174500D03*
X93500Y175950D03*
Y179000D03*
X85331Y244331D03*
X81500Y317000D03*
X89000Y312500D03*
X93500Y317000D03*
X89000Y322500D03*
X78500D03*
X110700Y3200D03*
X113000Y24700D03*
X110700Y21100D03*
X110800Y16700D03*
X110900Y12100D03*
X110700Y7300D03*
X113000Y29000D03*
Y33500D03*
Y39000D03*
X113500Y44000D03*
X109500Y46500D03*
X108500Y50000D03*
Y54000D03*
Y57500D03*
X109000Y61000D03*
X113000Y62500D03*
X100000Y53000D03*
Y58000D03*
Y63000D03*
X105000Y53000D03*
Y58000D03*
Y63000D03*
X113000Y80500D03*
Y66000D03*
Y70000D03*
Y75000D03*
X100000Y68000D03*
X105000D03*
X110000Y73000D03*
Y68000D03*
X112600Y94400D03*
X112800Y98900D03*
X100500Y102000D03*
X107500Y103100D03*
X113000Y85500D03*
Y90000D03*
X113600Y109100D03*
X113300Y104300D03*
X104339Y106833D03*
X109500Y114500D03*
X111390Y112715D03*
X100784Y162750D03*
X111621Y159501D03*
X99500Y170329D03*
X101000Y166000D03*
X109004Y169271D03*
X107610Y234110D03*
X109500Y265500D03*
X110500Y313500D03*
X107500Y316500D03*
X128500Y22000D03*
X133500D03*
X122900Y22200D03*
X121500Y43500D03*
Y38500D03*
Y34000D03*
X122000Y29500D03*
X133500Y42000D03*
Y37000D03*
Y32000D03*
X128500D03*
Y37000D03*
Y42000D03*
Y27000D03*
X133500D03*
X121500Y61500D03*
X125500Y58500D03*
Y55000D03*
Y52000D03*
Y48000D03*
X133500Y52000D03*
Y47000D03*
X129000Y64000D03*
X134000D03*
X133500Y57000D03*
X129000Y82500D03*
X133500Y82000D03*
X136000Y74000D03*
X133000Y75000D03*
X130000Y74500D03*
X126500D03*
X123000D03*
X121500Y71500D03*
Y68000D03*
Y64500D03*
X125500Y82500D03*
X129000Y69000D03*
X134000D03*
X121400Y103600D03*
X122200Y94700D03*
X121800Y99200D03*
X135000Y98500D03*
X121500Y85000D03*
Y90000D03*
X128125Y93125D03*
X121400Y109400D03*
X135000Y104000D03*
X126500Y121500D03*
X126553Y124553D03*
X129000Y162000D03*
X118000Y170000D03*
X126500Y169071D03*
X125300Y174900D03*
X123500Y168652D03*
X118000Y165500D03*
X126005Y298000D03*
X119500Y299500D03*
X138500Y22000D03*
X143500D03*
X148500D03*
X153500D03*
X138500Y17000D03*
X143500D03*
X148500D03*
X153500D03*
Y12000D03*
X148500D03*
X143500D03*
X138500D03*
X143500Y7000D03*
X148500D03*
X153500D03*
Y42000D03*
Y37000D03*
Y32000D03*
X148500Y42000D03*
Y37000D03*
Y32000D03*
X143500D03*
Y37000D03*
Y42000D03*
X138500D03*
Y37000D03*
Y32000D03*
Y27000D03*
X143500D03*
X148500D03*
X153500D03*
X157000Y63000D03*
X154000Y60500D03*
X151000Y57000D03*
X146500Y56000D03*
X143500Y58500D03*
X141000Y61500D03*
X153500Y52000D03*
Y47000D03*
X148500Y52000D03*
Y47000D03*
X143500D03*
Y52000D03*
X138500D03*
Y47000D03*
X143500Y80500D03*
X138500Y81000D03*
X146000Y77000D03*
X148000Y74500D03*
X151500Y74000D03*
X155500D03*
X143000Y65500D03*
X141500Y69000D03*
X139000Y71500D03*
X155000Y148000D03*
Y150500D03*
X154000Y234500D03*
X163500Y22000D03*
X168500D03*
X158500D03*
X163500Y17000D03*
X168500D03*
X158500D03*
Y12000D03*
X168500D03*
X163500D03*
Y7000D03*
X168500D03*
X158500D03*
X174500Y16500D03*
X158500Y42000D03*
Y37000D03*
Y32000D03*
X168500Y42000D03*
Y37000D03*
Y32000D03*
X163500Y42000D03*
Y37000D03*
Y32000D03*
Y27000D03*
X168500D03*
X158500D03*
X173500Y42000D03*
X174500Y36000D03*
X158500Y52000D03*
Y47000D03*
X168500Y52000D03*
Y47000D03*
X163500Y52000D03*
Y47000D03*
X173500D03*
Y52000D03*
Y57000D03*
X168500D03*
X173500Y62000D03*
X168500D03*
X163500Y57000D03*
X158500D03*
X163500Y62000D03*
X158000Y71500D03*
X161000Y69000D03*
X160000Y65500D03*
X173500Y67000D03*
X168500D03*
Y72000D03*
X163500D03*
Y77000D03*
X168500D03*
X158500D03*
X171500Y81500D03*
X175500Y99000D03*
Y123600D03*
X173500Y149500D03*
X173000Y175500D03*
X173500Y170000D03*
X168000Y192000D03*
X173750Y183250D03*
X166500Y187500D03*
X165894Y194213D03*
X170250Y348750D03*
X178500Y42000D03*
X183500D03*
X188500D03*
X193500D03*
X194000Y35000D03*
X188500D03*
X183500D03*
X178500Y52000D03*
Y47000D03*
X183500D03*
Y52000D03*
X188500Y47000D03*
Y52000D03*
X193500Y47000D03*
Y52000D03*
Y57000D03*
X188500D03*
X183500D03*
X178500D03*
X193500Y62000D03*
X188500D03*
X183500D03*
X178500D03*
X193500Y67000D03*
X188500D03*
X183500D03*
X178500D03*
X177500Y79500D03*
X180000Y92000D03*
X179000Y85000D03*
X180500Y108500D03*
X179000Y132500D03*
Y141000D03*
Y128500D03*
Y136000D03*
Y160500D03*
Y155000D03*
Y179000D03*
X186000Y171000D03*
X179000Y165000D03*
X178000Y185500D03*
X183800Y226000D03*
X194500Y252500D03*
X178550Y355950D03*
X210000Y130000D03*
X213500Y226000D03*
X208000D03*
X207800Y249600D03*
X203000Y242900D03*
X216000Y254000D03*
X209500Y261500D03*
X200890Y265110D03*
X209000Y315000D03*
X224500Y37500D03*
X222000Y139500D03*
X221000Y125000D03*
Y135000D03*
X221108Y155000D03*
X222500Y226000D03*
X223500Y346500D03*
G54D21*
G01X135000Y354000D02*
X59500D01*
X46000Y340500D01*
X34500D01*
X9000Y315000D01*
Y247500D01*
X5000Y243500D01*
Y193000D01*
X13500Y184500D01*
X29000D01*
X35000Y178500D01*
Y175000D01*
G01X135000Y354000D02*
X136500D01*
X141500Y349000D01*
X135103Y118165D03*
X127600Y108000D03*
X133140Y114200D03*
X133000Y109000D03*
X129000Y118900D03*
X137500Y126000D03*
X138000Y134500D03*
X137083Y155083D03*
X127874Y194874D03*
X122700Y195000D03*
X154500Y109000D03*
X155500Y115500D03*
X159400Y142000D03*
X163500Y145500D03*
X163700Y159500D03*
X163993Y150593D03*
X162900Y155000D03*
X159500Y170500D03*
X163169Y165500D03*
X219750Y65250D03*
G54D22*
G01X81500Y317000D02*
X83500D01*
X89000Y322500D01*
G54D13*
X12000Y199500D03*
X25000Y45000D03*
Y175000D03*
X57500Y209500D03*
X47500D03*
X67500D03*
X77500D03*
X102000Y199500D03*
X112000D03*
X136000D03*
X173000D03*
X172500Y263500D03*
Y253500D03*
Y273500D03*
X195000Y175000D03*
X198000Y199500D03*
X183000D03*
X205000Y45000D03*
X218000Y199500D03*
X208000D03*
G54D23*
G01X-77102Y-80133D02*
X395398D01*
Y-180133D01*
X-79602D01*
Y-80133D01*
X-77102D01*
G01X-79602Y-160133D02*
X395398D01*
G01X-79602Y-140133D02*
X395398D01*
G01X-79602Y-120133D02*
X395398D01*
G01X-79602Y-100133D02*
X395398D01*
G01X64972Y133445D02*
X63527Y132000D01*
X52000D01*
X50000Y130000D01*
G54D14*
X12000Y209500D03*
Y219500D03*
Y239500D03*
Y229500D03*
X25000Y55000D03*
Y65000D03*
Y85000D03*
X35000D03*
X25000Y95000D03*
X35000D03*
X25000Y105000D03*
X35000D03*
X25000Y115000D03*
X35000D03*
X25000Y125000D03*
X35000D03*
X25000Y135000D03*
X35000D03*
X25000Y145000D03*
X35000D03*
X25000Y155000D03*
X35000D03*
X25000Y165000D03*
X35000D03*
Y175000D03*
X57500Y199500D03*
X47500D03*
X67500D03*
X77500D03*
X102000Y209500D03*
Y219500D03*
X112000Y209500D03*
Y219500D03*
X136000Y209500D03*
X173000D03*
X162500Y263500D03*
Y253500D03*
Y273500D03*
X195000Y85000D03*
Y95000D03*
Y105000D03*
Y115000D03*
Y125000D03*
Y135000D03*
Y145000D03*
Y155000D03*
Y165000D03*
X198000Y209500D03*
X183000D03*
X205000Y55000D03*
Y65000D03*
Y85000D03*
Y95000D03*
Y105000D03*
Y115000D03*
Y125000D03*
Y135000D03*
Y145000D03*
Y155000D03*
Y165000D03*
Y175000D03*
X218000Y209500D03*
X208000D03*
G54D24*
G01X36500Y38500D02*
X34500Y36500D01*
X18000D01*
X4750Y49750D01*
Y165750D01*
X14000Y175000D01*
X25000D01*
G01X64750Y7250D02*
X49000Y23000D01*
Y33000D01*
X46000Y36000D01*
X39000D01*
X36500Y38500D01*
G01Y46500D02*
Y38500D01*
G01X64750Y7250D02*
X82750D01*
G01D02*
X93750D01*
X94250Y6750D01*
G01X106694Y156806D02*
Y156694D01*
X104500Y154500D01*
X93500D01*
X82695Y143695D01*
X81884D01*
X79969Y141781D01*
Y139469D01*
X78000Y137500D01*
G01X163700Y159500D02*
X131900D01*
X129206Y156806D01*
X106694D01*
G01D02*
X100784Y162716D01*
Y162750D01*
G01X129500Y314451D02*
Y253000D01*
X173000Y209500D01*
G01X154000Y234500D02*
X147500Y241000D01*
Y278000D01*
X151500Y282000D01*
G01X218000Y209500D02*
X208000D01*
G54D15*
X5000Y256500D03*
Y267000D03*
Y277000D03*
X15378Y303500D03*
X4500Y320000D03*
X4610Y312500D03*
X3500Y331000D03*
X21500Y250500D03*
X22000Y275500D03*
X20000Y268231D03*
X33500Y299500D03*
X21500Y283000D03*
X38000Y299500D03*
X25744Y338744D03*
X23000Y342500D03*
X45000Y259000D03*
X52000Y251500D03*
X45000Y269500D03*
X48500Y285500D03*
X42500Y295500D03*
X50000Y302000D03*
X54500D03*
X52000Y321500D03*
X45000Y325000D03*
X77500Y230000D03*
X68500Y236000D03*
X72000Y242500D03*
X70000Y259000D03*
X74500Y250500D03*
X72000Y280760D03*
X74000Y300500D03*
X69500Y291000D03*
X70000Y323000D03*
X84000Y94500D03*
X96500Y140000D03*
X92500D03*
X96500Y136000D03*
X92500D03*
X96500Y132000D03*
X92500D03*
X96500Y128000D03*
X92500D03*
Y124000D03*
X96500D03*
Y148000D03*
X92500D03*
X96500Y144000D03*
X92500D03*
X80000Y241000D03*
X96500Y232000D03*
X91500Y232500D03*
X80000Y259000D03*
X97500Y257000D03*
X84000Y250000D03*
X92000Y257000D03*
X88500Y250000D03*
X86000Y280000D03*
X83500Y266000D03*
X88500Y294000D03*
X89000Y299000D03*
X85000Y300000D03*
X89500Y288500D03*
X83500Y323500D03*
X95500Y337500D03*
X88500Y341000D03*
X116500Y136000D03*
X112500Y140000D03*
X108500D03*
X116500D03*
X112500Y136000D03*
X108500D03*
X112500Y132000D03*
X108500D03*
X116500D03*
X112500Y128000D03*
X108500D03*
X116500D03*
X108500Y124000D03*
X112500D03*
X116500D03*
X104500Y140000D03*
X100500D03*
X104500Y136000D03*
X100500D03*
X104500Y132000D03*
X100500D03*
X104500Y128000D03*
X100500D03*
Y124000D03*
X104500D03*
X112500Y148000D03*
X108500D03*
X116500D03*
X112500Y144000D03*
X108500D03*
X116500D03*
X104500Y148000D03*
X100500D03*
X104500Y144000D03*
X100500D03*
X111700Y162700D03*
X101000Y248500D03*
X111000Y294000D03*
X113000Y298500D03*
X111000Y282000D03*
X104000Y310000D03*
X99500D03*
X112500Y303000D03*
X110500Y347500D03*
X134000Y137000D03*
X132500Y125500D03*
X136000Y148000D03*
X133500Y312000D03*
X129500Y314451D03*
X127500Y320000D03*
X127543Y325043D03*
X119000Y324000D03*
X135000Y333500D03*
X128500Y334000D03*
X135000Y354000D03*
X143500Y108000D03*
X146500D03*
X150900Y217100D03*
X156600Y217800D03*
X153200Y221200D03*
X147000Y220000D03*
X148500Y226100D03*
X154425Y300400D03*
X151500Y282000D03*
Y309500D03*
X141000Y323000D03*
X140000Y335000D03*
X157000Y340000D03*
X151500Y347000D03*
X141500Y349000D03*
X160400Y293000D03*
X171200Y312300D03*
X166100Y312100D03*
X160700Y312000D03*
X175500Y317500D03*
X171700Y332800D03*
X165900Y332900D03*
X160700Y333000D03*
X176000Y326500D03*
X189500Y244500D03*
X190580Y283000D03*
X181600Y287900D03*
X181700Y291800D03*
X190000Y323000D03*
X211000Y241029D03*
X197827Y279673D03*
X212000Y291000D03*
X215017Y295517D03*
X206000Y302500D03*
X221788Y261000D03*
X218500Y265000D03*
X220538Y281538D03*
X219500Y294000D03*
G54D25*
G01X78500Y322500D02*
X78128Y322128D01*
Y318858D01*
X74827Y315557D01*
X45943D01*
X37372Y324128D01*
Y334428D01*
X36500Y335300D01*
G01X41000D02*
X40128Y334428D01*
Y325269D01*
X47084Y318313D01*
X73685D01*
X75372Y320000D01*
Y322128D01*
X75000Y322500D01*
G54D16*
X36500Y10157D03*
X194000D03*
X216843Y327000D03*
G54D26*
G01X47000Y115500D02*
X46900D01*
X42650Y119750D01*
X12250D01*
X11500Y120500D01*
G01X10000Y135000D02*
X14100Y139100D01*
X65100D01*
X75500Y149500D01*
X82000D01*
X93500Y161000D01*
Y175950D01*
G01X81164Y152664D02*
X76684D01*
X64520Y140500D01*
X15500D01*
X14000Y142000D01*
G01X12000Y199500D02*
X22500D01*
X45500Y176500D01*
X58500D01*
G01X12000Y209500D02*
X16000D01*
X46500Y179000D01*
X59500D01*
X64000Y174500D01*
X86000D01*
G01X12000Y219500D02*
X15500Y216000D01*
Y213500D01*
X43000Y186000D01*
X72000D01*
X74900Y188900D01*
X165100D01*
X166500Y187500D01*
G01X12000Y229500D02*
X12500D01*
X18000Y224000D01*
Y214400D01*
X40900Y191500D01*
X165671D01*
X167671Y189500D01*
X174000D01*
X178000Y185500D01*
G01X22000Y259500D02*
X15000Y266500D01*
Y297000D01*
X12500Y299500D01*
G01X22000Y259500D02*
X29382D01*
X33500Y263618D01*
G01X23500Y272000D02*
X31500D01*
X32000Y271500D01*
G01X24000Y268500D02*
X36000D01*
X44000Y276500D01*
G01X21000Y316000D02*
Y298500D01*
X31500Y288000D01*
G01D02*
X32664Y286836D01*
Y279336D01*
G01X53000Y264000D02*
X56900Y267900D01*
Y291847D01*
X47400Y301347D01*
Y308929D01*
X40329Y316000D01*
X31500D01*
G01X29000Y309000D02*
X30000Y310000D01*
X43500D01*
G01X24000Y310500D02*
Y316000D01*
X20882Y319118D01*
G01X42500Y304000D02*
X30500D01*
X24000Y310500D01*
G01X57000Y95000D02*
X75000Y77000D01*
X90500D01*
X92500Y75000D01*
G01X54586Y116086D02*
X54172Y116500D01*
X54000D01*
X48000Y122500D01*
Y131500D01*
X49500Y133000D01*
G01X57000Y111000D02*
X57500Y111500D01*
X62500D01*
X86500Y87500D01*
X175500D01*
X180000Y92000D01*
G01X56112Y158000D02*
X80000D01*
X88500Y166500D01*
Y172000D01*
X86000Y174500D01*
G01X85000Y171500D02*
X56400D01*
X54400Y173500D01*
G01X86154Y168154D02*
X86000Y168000D01*
X53000D01*
X49500Y171500D01*
G01X51500Y307000D02*
X54733D01*
X58880Y302853D01*
X59700Y302033D01*
Y265700D01*
X49000Y255000D01*
Y228000D01*
X67500Y209500D01*
G01X48890Y311110D02*
Y306782D01*
X51371Y304300D01*
X55453D01*
X58300Y301453D01*
Y266280D01*
X47500Y255480D01*
Y209500D01*
G01X43500Y310000D02*
X46000Y307500D01*
Y300767D01*
X55500Y291267D01*
Y270500D01*
X52500Y267500D01*
G01X45578Y281078D02*
Y278078D01*
X44000Y276500D01*
G01X49000Y260500D02*
X48000Y261500D01*
Y282500D01*
X45000Y285500D01*
G01X73000Y83000D02*
X77600Y78400D01*
X132729D01*
X137329Y83000D01*
X170000D01*
X171500Y81500D01*
G01X179000Y85000D02*
X124795D01*
X122795Y83000D01*
X86000D01*
X59500Y109500D01*
G01X74500Y142500D02*
X69500Y137500D01*
Y129500D01*
X73500Y125500D01*
Y111000D01*
X92500Y92000D01*
X126000D01*
X127500Y90500D01*
X170000D01*
X176500Y97000D01*
X187500D01*
X190510Y100010D01*
X210490D01*
X221000Y110520D01*
Y125000D01*
G01X75500Y115500D02*
X76000Y115000D01*
Y112000D01*
X91100Y96900D01*
X122829D01*
X124549Y95180D01*
X171680D01*
X175500Y99000D01*
G01X221108Y155000D02*
X218553Y152445D01*
Y118053D01*
X210000Y109500D01*
X190500D01*
X185500Y104500D01*
X146500D01*
X143250Y101250D01*
X110750D01*
X109000Y99500D01*
X91900D01*
X84500Y106900D01*
Y113520D01*
X83600Y114420D01*
Y133400D01*
X81595Y135405D01*
X77133D01*
X75905Y136633D01*
Y140000D01*
G01X65500Y128000D02*
X67000Y129500D01*
Y134919D01*
X66163Y135756D01*
G01X92500Y75000D02*
Y51000D01*
X97500Y46000D01*
G01X92500Y75000D02*
X94500Y77000D01*
X143171D01*
X145171Y79000D01*
X177000D01*
X177500Y79500D01*
G01X83000Y141000D02*
X85000Y139000D01*
Y115000D01*
X88500Y111500D01*
X103000D01*
X107500Y107000D01*
X124500D01*
X126100Y105400D01*
X133571D01*
X139771Y111600D01*
X155577D01*
X156177Y111000D01*
X182000D01*
X191000Y120000D01*
X207000D01*
X210000Y123000D01*
Y130000D01*
G01X179000Y128500D02*
X150500D01*
X139700Y139300D01*
X132300D01*
X119800Y126800D01*
Y124047D01*
X113653Y117900D01*
X88900D01*
X87000Y116000D01*
G01X179000Y160500D02*
X155000Y184500D01*
X95500D01*
X91500Y180500D01*
Y161900D01*
X85000Y155400D01*
G01X81164Y152664D02*
Y156164D01*
X90000Y165000D01*
Y181000D01*
X92000Y183000D01*
X92020D01*
X94920Y185900D01*
X155600D01*
X162500Y179000D01*
X179000D01*
G01X86000Y174500D02*
Y181000D01*
X92500Y187500D01*
X156000D01*
X160250Y183250D01*
X173750D01*
G01X179000Y132500D02*
X178671D01*
X177000Y134171D01*
Y141829D01*
X177500Y142329D01*
Y153671D01*
X174500Y156671D01*
Y159540D01*
X155369Y178671D01*
X96221D01*
X93500Y175950D01*
G01Y179000D02*
X94571Y180071D01*
X155949D01*
X179020Y157000D01*
X179829D01*
X181500Y155329D01*
Y143500D01*
X179000Y141000D01*
G01X109500Y265500D02*
X88331Y244331D01*
X85331D01*
G01X89000Y312500D02*
X109500D01*
X110500Y313500D01*
G01X93500Y317000D02*
X107000D01*
X107500Y316500D01*
G01X183000Y209500D02*
X187500Y205000D01*
Y194500D01*
X184000Y191000D01*
Y129000D01*
X181500Y126500D01*
X144960D01*
X140880Y130580D01*
X140060Y131400D01*
X126440D01*
X121200Y126160D01*
Y123467D01*
X114233Y116500D01*
X99133D01*
X96633Y114000D01*
G01X109500Y114500D02*
X109390Y114390D01*
Y111886D01*
X110562Y110715D01*
X112407D01*
X120540Y118847D01*
X123000Y121307D01*
Y121308D01*
X124000Y122308D01*
Y125000D01*
X127600Y128600D01*
X138900D01*
X145900Y121600D01*
X147060D01*
X182640Y121600D01*
X185800Y124760D01*
Y170800D01*
X186000Y171000D01*
G01X111390Y112715D02*
X112427D01*
X119960Y120247D01*
X121600Y121887D01*
X122600Y122887D01*
Y125580D01*
X127020Y130000D01*
X139480D01*
X146480Y123000D01*
X174900D01*
X175500Y123600D01*
G01X165894Y194213D02*
X165606Y194500D01*
X133000D01*
X128000Y199500D01*
X112000D01*
G01X126500Y121500D02*
X137520D01*
X140220Y118800D01*
X148219D01*
X148220Y118800D01*
X183800D01*
X185440Y120440D01*
X190600Y125600D01*
Y178600D01*
X208000Y196000D01*
Y199500D01*
G01X126553Y124553D02*
X128206Y122900D01*
X138100D01*
X140800Y120200D01*
X145320D01*
X145321Y120200D01*
X147639D01*
X147640Y120200D01*
X183220D01*
X184040Y121020D01*
X188900Y125880D01*
Y181900D01*
X203000Y196000D01*
Y202500D01*
X205000Y204500D01*
X213000D01*
X218000Y199500D01*
G01X173500Y149500D02*
Y150000D01*
X169000Y154500D01*
Y159000D01*
X165500Y162500D01*
X161500D01*
X158500Y165500D01*
X118000D01*
G01X162500Y273500D02*
X159000D01*
X153500Y268000D01*
Y240500D01*
X177100Y216900D01*
Y192900D01*
X180500Y189500D01*
Y180500D01*
X179000Y179000D01*
G01Y160500D02*
X182000Y163500D01*
Y191000D01*
X178500Y194500D01*
Y219500D01*
X158000Y240000D01*
Y259000D01*
X162500Y263500D01*
G01X216000Y254000D02*
X211500Y258500D01*
X167500D01*
X162500Y253500D01*
G01X207800Y249600D02*
Y245000D01*
X205700Y242900D01*
X203000D01*
G01X209000Y315000D02*
X225500Y298500D01*
Y139500D01*
X221000Y135000D01*
G01X-70227Y-174333D02*
Y-164333D01*
X-65477D01*
G01X-67227Y-169166D02*
X-70227D01*
G01X-59352Y-164333D02*
X-56352D01*
G01X-57852D02*
Y-174333D01*
G01X-59352D02*
X-56352D01*
G01X-50352Y-164333D02*
Y-174333D01*
X-45352D01*
G01X-41102D02*
Y-164333D01*
X-37852Y-172666D01*
X-34602Y-164333D01*
Y-174333D01*
G01X-20352Y-164333D02*
Y-174333D01*
X-15352D01*
G01X-10977D02*
X-7852Y-164333D01*
X-4727Y-174333D01*
G01X-5852Y-170833D02*
X-9852D01*
G01X2148Y-174333D02*
Y-169833D01*
X-352Y-164333D01*
G01X4648D02*
X2148Y-169833D01*
G01X14648Y-174333D02*
X9648D01*
Y-164333D01*
X14648D01*
G01X12648Y-169166D02*
X9648D01*
G01X19648Y-174333D02*
Y-164333D01*
X22773D01*
X23773Y-164833D01*
X24398Y-165500D01*
X24648Y-166833D01*
X24398Y-168166D01*
X23648Y-169000D01*
X22773Y-169500D01*
X19648D01*
G01X22773D02*
X24648Y-174333D01*
G01X32148Y-174666D02*
X31898Y-174500D01*
Y-174166D01*
X32148Y-174000D01*
X32398Y-174166D01*
Y-174500D01*
X32148Y-174666D01*
G01Y-170167D02*
X31898Y-170000D01*
Y-169666D01*
X32148Y-169500D01*
X32398Y-169666D01*
Y-170000D01*
X32148Y-170167D01*
G01X-70352Y-154333D02*
Y-144333D01*
X-67352D01*
X-66352Y-144833D01*
X-65602Y-146000D01*
X-65352Y-147333D01*
X-65602Y-148666D01*
X-66227Y-149666D01*
X-67352Y-150167D01*
X-70352D01*
G01X-60977Y-154333D02*
X-57852Y-144333D01*
X-54727Y-154333D01*
G01X-55852Y-150833D02*
X-59852D01*
G01X-50352Y-154333D02*
Y-144333D01*
X-47227D01*
X-46227Y-144833D01*
X-45602Y-145500D01*
X-45352Y-146833D01*
X-45602Y-148166D01*
X-46352Y-149000D01*
X-47227Y-149500D01*
X-50352D01*
G01X-47227D02*
X-45352Y-154333D01*
G01X-37852Y-144333D02*
Y-154333D01*
G01X-40727Y-144333D02*
X-34977D01*
G01X-20727Y-154333D02*
Y-144333D01*
X-14977Y-154333D01*
Y-144333D01*
G01X-7852Y-154333D02*
X-8852Y-154166D01*
X-9727Y-153500D01*
X-10477Y-152500D01*
X-10977Y-151333D01*
X-11227Y-150000D01*
Y-148666D01*
X-10977Y-147333D01*
X-10477Y-146166D01*
X-9727Y-145166D01*
X-8852Y-144500D01*
X-7852Y-144333D01*
X-6852Y-144500D01*
X-5977Y-145166D01*
X-5227Y-146166D01*
X-4727Y-147333D01*
X-4477Y-148666D01*
Y-150000D01*
X-4727Y-151333D01*
X-5227Y-152500D01*
X-5977Y-153500D01*
X-6852Y-154166D01*
X-7852Y-154333D01*
G01X-102Y-154666D02*
X4398Y-144333D01*
G01X14898Y-145166D02*
X14148Y-144666D01*
X13273Y-144333D01*
X12273D01*
X11148Y-144833D01*
X10273Y-145666D01*
X9648Y-146666D01*
X9148Y-148333D01*
X9023Y-149833D01*
X9273Y-151333D01*
X9648Y-152333D01*
X10398Y-153333D01*
X11273Y-154000D01*
X12148Y-154333D01*
X13023D01*
X13898Y-154000D01*
X14648Y-153500D01*
X15273Y-152833D01*
G01X19023Y-154333D02*
X22148Y-144333D01*
X25273Y-154333D01*
G01X24148Y-150833D02*
X20148D01*
G01X29648Y-154333D02*
Y-144333D01*
X32773D01*
X33773Y-144833D01*
X34398Y-145500D01*
X34648Y-146833D01*
X34398Y-148166D01*
X33648Y-149000D01*
X32773Y-149500D01*
X29648D01*
G01X32773D02*
X34648Y-154333D01*
G01X39398D02*
Y-144333D01*
X41898D01*
X42898Y-144833D01*
X43648Y-145500D01*
X44273Y-146500D01*
X44773Y-147667D01*
X44898Y-149333D01*
X44773Y-151000D01*
X44273Y-152166D01*
X43648Y-153167D01*
X42898Y-153833D01*
X41898Y-154333D01*
X39398D01*
G01X59648D02*
Y-144333D01*
X62773D01*
X63773Y-144833D01*
X64398Y-145500D01*
X64648Y-146833D01*
X64398Y-148166D01*
X63648Y-149000D01*
X62773Y-149500D01*
X59648D01*
G01X62773D02*
X64648Y-154333D01*
G01X74648D02*
X69648D01*
Y-144333D01*
X74648D01*
G01X72648Y-149166D02*
X69648D01*
G01X79773Y-154333D02*
Y-144333D01*
X84523D01*
G01X82773Y-149166D02*
X79773D01*
G01X92148Y-154666D02*
X91898Y-154500D01*
Y-154166D01*
X92148Y-154000D01*
X92398Y-154166D01*
Y-154500D01*
X92148Y-154666D01*
G01Y-150167D02*
X91898Y-150000D01*
Y-149666D01*
X92148Y-149500D01*
X92398Y-149666D01*
Y-150000D01*
X92148Y-150167D01*
G01X-71352Y-134463D02*
Y-124463D01*
X-68852D01*
X-67852Y-124963D01*
X-67102Y-125630D01*
X-66477Y-126630D01*
X-65977Y-127797D01*
X-65852Y-129463D01*
X-65977Y-131130D01*
X-66477Y-132296D01*
X-67102Y-133297D01*
X-67852Y-133963D01*
X-68852Y-134463D01*
X-71352D01*
G01X-56102D02*
X-61102D01*
Y-124463D01*
X-56102D01*
G01X-58102Y-129296D02*
X-61102D01*
G01X-51227Y-133130D02*
X-50227Y-133963D01*
X-49102Y-134463D01*
X-48102D01*
X-47102Y-133963D01*
X-46352Y-133130D01*
X-45977Y-131963D01*
X-46227Y-130797D01*
X-46852Y-129796D01*
X-47977Y-129130D01*
X-49477Y-128796D01*
X-50352Y-128130D01*
X-50727Y-126963D01*
X-50477Y-125796D01*
X-49852Y-124963D01*
X-48977Y-124463D01*
X-48102D01*
X-47227Y-124796D01*
X-46477Y-125630D01*
G01X-40102Y-124463D02*
X-37102D01*
G01X-38602D02*
Y-134463D01*
G01X-40102D02*
X-37102D01*
G01X-27852Y-129463D02*
X-25352D01*
Y-132463D01*
X-26102Y-133463D01*
X-26977Y-134130D01*
X-28227Y-134463D01*
X-29477Y-134130D01*
X-30352Y-133463D01*
X-31102Y-132463D01*
X-31602Y-131296D01*
X-31852Y-129963D01*
Y-128796D01*
X-31602Y-127797D01*
X-31102Y-126630D01*
X-30352Y-125630D01*
X-29602Y-124963D01*
X-28602Y-124463D01*
X-27727D01*
X-26727Y-124796D01*
X-25977Y-125463D01*
G01X-21477Y-134463D02*
Y-124463D01*
X-15727Y-134463D01*
Y-124463D01*
G01X-6102Y-134463D02*
X-11102D01*
Y-124463D01*
X-6102D01*
G01X-8102Y-129296D02*
X-11102D01*
G01X-1352Y-134463D02*
Y-124463D01*
X1148D01*
X2148Y-124963D01*
X2898Y-125630D01*
X3523Y-126630D01*
X4023Y-127797D01*
X4148Y-129463D01*
X4023Y-131130D01*
X3523Y-132296D01*
X2898Y-133297D01*
X2148Y-133963D01*
X1148Y-134463D01*
X-1352D01*
G01X22398Y-129130D02*
X22898Y-128630D01*
X23273Y-127797D01*
X23523Y-126630D01*
X23273Y-125630D01*
X22773Y-124963D01*
X21898Y-124463D01*
X18523D01*
Y-134463D01*
X22648D01*
X23523Y-133796D01*
X24023Y-132796D01*
X24273Y-131630D01*
X24023Y-130463D01*
X23273Y-129463D01*
X22398Y-129130D01*
X18523D01*
G01X31398Y-134463D02*
Y-129963D01*
X28898Y-124463D01*
G01X33898D02*
X31398Y-129963D01*
G01X41398Y-134796D02*
X41148Y-134630D01*
Y-134296D01*
X41398Y-134130D01*
X41648Y-134296D01*
Y-134630D01*
X41398Y-134796D01*
G01Y-130297D02*
X41148Y-130130D01*
Y-129796D01*
X41398Y-129630D01*
X41648Y-129796D01*
Y-130130D01*
X41398Y-130297D01*
G01X-70602Y-114333D02*
Y-104333D01*
X-68102D01*
X-67102Y-104833D01*
X-66352Y-105500D01*
X-65727Y-106500D01*
X-65227Y-107667D01*
X-65102Y-109333D01*
X-65227Y-111000D01*
X-65727Y-112166D01*
X-66352Y-113167D01*
X-67102Y-113833D01*
X-68102Y-114333D01*
X-70602D01*
G01X-60977D02*
X-57852Y-104333D01*
X-54727Y-114333D01*
G01X-55852Y-110833D02*
X-59852D01*
G01X-47852Y-104333D02*
Y-114333D01*
G01X-50727Y-104333D02*
X-44977D01*
G01X-35352Y-114333D02*
X-40352D01*
Y-104333D01*
X-35352D01*
G01X-37352Y-109166D02*
X-40352D01*
G01X-27852Y-114666D02*
X-28102Y-114500D01*
Y-114166D01*
X-27852Y-114000D01*
X-27602Y-114166D01*
Y-114500D01*
X-27852Y-114666D01*
G01Y-110167D02*
X-28102Y-110000D01*
Y-109666D01*
X-27852Y-109500D01*
X-27602Y-109666D01*
Y-110000D01*
X-27852Y-110167D01*
G01X-20352Y-112333D02*
X-19727Y-113333D01*
X-18977Y-114000D01*
X-18102Y-114333D01*
X-17102Y-114000D01*
X-16352Y-113333D01*
X-15602Y-112333D01*
X-15352Y-111000D01*
Y-104333D01*
G01X-10602D02*
Y-111500D01*
X-10102Y-113000D01*
X-9102Y-114000D01*
X-7852Y-114333D01*
X-6602Y-114000D01*
X-5602Y-113000D01*
X-5102Y-111500D01*
Y-104333D01*
G01X-727Y-114333D02*
Y-104333D01*
X5023Y-114333D01*
Y-104333D01*
G01X14648Y-114333D02*
X9648D01*
Y-104333D01*
X14648D01*
G01X12648Y-109166D02*
X9648D01*
G01X29773Y-106000D02*
X30523Y-105000D01*
X31398Y-104500D01*
X32398Y-104333D01*
X33648Y-104666D01*
X34523Y-105500D01*
X34773Y-106500D01*
X34648Y-107500D01*
X34148Y-108333D01*
X31648Y-110000D01*
X30523Y-111166D01*
X29773Y-112833D01*
X29523Y-114333D01*
X34773D01*
G01X43648D02*
Y-104333D01*
X39023Y-111500D01*
X45273D01*
G01X59773Y-106000D02*
X60523Y-105000D01*
X61398Y-104500D01*
X62398Y-104333D01*
X63648Y-104666D01*
X64523Y-105500D01*
X64773Y-106500D01*
X64648Y-107500D01*
X64148Y-108333D01*
X61648Y-110000D01*
X60523Y-111166D01*
X59773Y-112833D01*
X59523Y-114333D01*
X64773D01*
G01X72148Y-104333D02*
X71148Y-104666D01*
X70398Y-105500D01*
X69898Y-106500D01*
X69523Y-107833D01*
X69398Y-109333D01*
X69523Y-110833D01*
X69898Y-112166D01*
X70398Y-113167D01*
X71148Y-114000D01*
X72148Y-114333D01*
X73148Y-114000D01*
X73898Y-113167D01*
X74398Y-112166D01*
X74773Y-110833D01*
X74898Y-109333D01*
X74773Y-107833D01*
X74398Y-106500D01*
X73898Y-105500D01*
X73148Y-104666D01*
X72148Y-104333D01*
G01X82148Y-114333D02*
Y-104333D01*
X80648Y-106333D01*
G01Y-114333D02*
X83648D01*
G01X93648D02*
Y-104333D01*
X89023Y-111500D01*
X95273D01*
G01X-51852Y-86296D02*
X-52602Y-85796D01*
X-53477Y-85463D01*
X-54477D01*
X-55602Y-85963D01*
X-56477Y-86796D01*
X-57102Y-87796D01*
X-57602Y-89463D01*
X-57727Y-90963D01*
X-57477Y-92463D01*
X-57102Y-93463D01*
X-56352Y-94463D01*
X-55477Y-95130D01*
X-54602Y-95463D01*
X-53727D01*
X-52852Y-95130D01*
X-52102Y-94630D01*
X-51477Y-93963D01*
G01X-44602Y-95463D02*
X-45602Y-95296D01*
X-46477Y-94630D01*
X-47227Y-93630D01*
X-47727Y-92463D01*
X-47977Y-91130D01*
Y-89796D01*
X-47727Y-88463D01*
X-47227Y-87296D01*
X-46477Y-86296D01*
X-45602Y-85630D01*
X-44602Y-85463D01*
X-43602Y-85630D01*
X-42727Y-86296D01*
X-41977Y-87296D01*
X-41477Y-88463D01*
X-41227Y-89796D01*
Y-91130D01*
X-41477Y-92463D01*
X-41977Y-93630D01*
X-42727Y-94630D01*
X-43602Y-95296D01*
X-44602Y-95463D01*
G01X-37852D02*
Y-85463D01*
X-34602Y-93796D01*
X-31352Y-85463D01*
Y-95463D01*
G01X-27102D02*
Y-85463D01*
X-24102D01*
X-23102Y-85963D01*
X-22352Y-87130D01*
X-22102Y-88463D01*
X-22352Y-89796D01*
X-22977Y-90796D01*
X-24102Y-91297D01*
X-27102D01*
G01X-17727Y-95463D02*
X-14602Y-85463D01*
X-11477Y-95463D01*
G01X-12602Y-91963D02*
X-16602D01*
G01X-7477Y-95463D02*
Y-85463D01*
X-1727Y-95463D01*
Y-85463D01*
G01X5398Y-95463D02*
Y-90963D01*
X2898Y-85463D01*
G01X7898D02*
X5398Y-90963D01*
G01X22523Y-95463D02*
Y-85463D01*
X28273Y-95463D01*
Y-85463D01*
G01X32273Y-95463D02*
X35398Y-85463D01*
X38523Y-95463D01*
G01X37398Y-91963D02*
X33398D01*
G01X42148Y-95463D02*
Y-85463D01*
X45398Y-93796D01*
X48648Y-85463D01*
Y-95463D01*
G01X57898D02*
X52898D01*
Y-85463D01*
X57898D01*
G01X55898Y-90296D02*
X52898D01*
G01X75398Y-95796D02*
X75148Y-95630D01*
Y-95296D01*
X75398Y-95130D01*
X75648Y-95296D01*
Y-95630D01*
X75398Y-95796D01*
G01Y-91297D02*
X75148Y-91130D01*
Y-90796D01*
X75398Y-90630D01*
X75648Y-90796D01*
Y-91130D01*
X75398Y-91297D01*
G01X95398Y-85463D02*
Y-95463D01*
G01X92523Y-85463D02*
X98273D01*
G01X107898Y-95463D02*
X102898D01*
Y-85463D01*
X107898D01*
G01X105898Y-90296D02*
X102898D01*
G01X112773Y-95463D02*
X118023Y-85463D01*
G01X112773D02*
X118023Y-95463D01*
G01X122273D02*
X125398Y-85463D01*
X128523Y-95463D01*
G01X127398Y-91963D02*
X123398D01*
G01X132773Y-94130D02*
X133773Y-94963D01*
X134898Y-95463D01*
X135898D01*
X136898Y-94963D01*
X137648Y-94130D01*
X138023Y-92963D01*
X137773Y-91797D01*
X137148Y-90796D01*
X136023Y-90130D01*
X134523Y-89796D01*
X133648Y-89130D01*
X133273Y-87963D01*
X133523Y-86796D01*
X134148Y-85963D01*
X135023Y-85463D01*
X135898D01*
X136773Y-85796D01*
X137523Y-86630D01*
G01X153898Y-85463D02*
X156898D01*
G01X155398D02*
Y-95463D01*
G01X153898D02*
X156898D01*
G01X162523D02*
Y-85463D01*
X168273Y-95463D01*
Y-85463D01*
G01X172773Y-94130D02*
X173773Y-94963D01*
X174898Y-95463D01*
X175898D01*
X176898Y-94963D01*
X177648Y-94130D01*
X178023Y-92963D01*
X177773Y-91797D01*
X177148Y-90796D01*
X176023Y-90130D01*
X174523Y-89796D01*
X173648Y-89130D01*
X173273Y-87963D01*
X173523Y-86796D01*
X174148Y-85963D01*
X175023Y-85463D01*
X175898D01*
X176773Y-85796D01*
X177523Y-86630D01*
G01X185398Y-85463D02*
Y-95463D01*
G01X182523Y-85463D02*
X188273D01*
G01X192898Y-95463D02*
Y-85463D01*
X196023D01*
X197023Y-85963D01*
X197648Y-86630D01*
X197898Y-87963D01*
X197648Y-89296D01*
X196898Y-90130D01*
X196023Y-90630D01*
X192898D01*
G01X196023D02*
X197898Y-95463D01*
G01X202648Y-85463D02*
Y-92630D01*
X203148Y-94130D01*
X204148Y-95130D01*
X205398Y-95463D01*
X206648Y-95130D01*
X207648Y-94130D01*
X208148Y-92630D01*
Y-85463D01*
G01X212148Y-95463D02*
Y-85463D01*
X215398Y-93796D01*
X218648Y-85463D01*
Y-95463D01*
G01X227898D02*
X222898D01*
Y-85463D01*
X227898D01*
G01X225898Y-90296D02*
X222898D01*
G01X232523Y-95463D02*
Y-85463D01*
X238273Y-95463D01*
Y-85463D01*
G01X245398D02*
Y-95463D01*
G01X242523Y-85463D02*
X248273D01*
G01X252773Y-94130D02*
X253773Y-94963D01*
X254898Y-95463D01*
X255898D01*
X256898Y-94963D01*
X257648Y-94130D01*
X258023Y-92963D01*
X257773Y-91797D01*
X257148Y-90796D01*
X256023Y-90130D01*
X254523Y-89796D01*
X253648Y-89130D01*
X253273Y-87963D01*
X253523Y-86796D01*
X254148Y-85963D01*
X255023Y-85463D01*
X255898D01*
X256773Y-85796D01*
X257523Y-86630D01*
G01X242500Y-163333D02*
Y-173333D01*
X237500D01*
G01X233125D02*
X230000Y-163333D01*
X226875Y-173333D01*
G01X228000Y-169833D02*
X232000D01*
G01X220000Y-173333D02*
Y-168833D01*
X222500Y-163333D01*
G01X217500D02*
X220000Y-168833D01*
G01X207500Y-173333D02*
X212500D01*
Y-163333D01*
X207500D01*
G01X209500Y-168167D02*
X212500D01*
G01X202500Y-173333D02*
Y-163333D01*
X199375D01*
X198375Y-163834D01*
X197750Y-164500D01*
X197500Y-165833D01*
X197750Y-167167D01*
X198500Y-168000D01*
X199375Y-168500D01*
X202500D01*
G01X199375D02*
X197500Y-173333D01*
G01X178500D02*
Y-163333D01*
X183125Y-170500D01*
X176875D01*
G01X170625Y-176667D02*
X171875Y-175000D01*
X172500Y-173333D01*
Y-166667D01*
X171875Y-165000D01*
X170625Y-163333D01*
G01X159000Y-168000D02*
X158500Y-167500D01*
X158125Y-166667D01*
X157875Y-165500D01*
X158125Y-164500D01*
X158625Y-163834D01*
X159500Y-163333D01*
X162875D01*
Y-173333D01*
X158750D01*
X157875Y-172667D01*
X157375Y-171667D01*
X157125Y-170500D01*
X157375Y-169334D01*
X158125Y-168333D01*
X159000Y-168000D01*
X162875D01*
G01X150000Y-173333D02*
X151000Y-173167D01*
X151875Y-172500D01*
X152625Y-171500D01*
X153125Y-170333D01*
X153375Y-169000D01*
Y-167667D01*
X153125Y-166333D01*
X152625Y-165167D01*
X151875Y-164167D01*
X151000Y-163500D01*
X150000Y-163333D01*
X149000Y-163500D01*
X148125Y-164167D01*
X147375Y-165167D01*
X146875Y-166333D01*
X146625Y-167667D01*
Y-169000D01*
X146875Y-170333D01*
X147375Y-171500D01*
X148125Y-172500D01*
X149000Y-173167D01*
X150000Y-173333D01*
G01X140000Y-163333D02*
Y-173333D01*
G01X142875Y-163333D02*
X137125D01*
G01X130000D02*
Y-173333D01*
G01X132875Y-163333D02*
X127125D01*
G01X120000Y-173333D02*
X121000Y-173167D01*
X121875Y-172500D01*
X122625Y-171500D01*
X123125Y-170333D01*
X123375Y-169000D01*
Y-167667D01*
X123125Y-166333D01*
X122625Y-165167D01*
X121875Y-164167D01*
X121000Y-163500D01*
X120000Y-163333D01*
X119000Y-163500D01*
X118125Y-164167D01*
X117375Y-165167D01*
X116875Y-166333D01*
X116625Y-167667D01*
Y-169000D01*
X116875Y-170333D01*
X117375Y-171500D01*
X118125Y-172500D01*
X119000Y-173167D01*
X120000Y-173333D01*
G01X113250D02*
Y-163333D01*
X110000Y-171667D01*
X106750Y-163333D01*
Y-173333D01*
G01X92625Y-172000D02*
X91625Y-172833D01*
X90500Y-173333D01*
X89500D01*
X88500Y-172833D01*
X87750Y-172000D01*
X87375Y-170833D01*
X87625Y-169667D01*
X88250Y-168667D01*
X89375Y-168000D01*
X90875Y-167667D01*
X91750Y-167000D01*
X92125Y-165833D01*
X91875Y-164667D01*
X91250Y-163834D01*
X90375Y-163333D01*
X89500D01*
X88625Y-163667D01*
X87875Y-164500D01*
G01X81500Y-163333D02*
X78500D01*
G01X80000D02*
Y-173333D01*
G01X81500D02*
X78500D01*
G01X72750D02*
Y-163333D01*
X70250D01*
X69250Y-163834D01*
X68500Y-164500D01*
X67875Y-165500D01*
X67375Y-166667D01*
X67250Y-168333D01*
X67375Y-170000D01*
X67875Y-171167D01*
X68500Y-172167D01*
X69250Y-172833D01*
X70250Y-173333D01*
X72750D01*
G01X57500D02*
X62500D01*
Y-163333D01*
X57500D01*
G01X59500Y-168167D02*
X62500D01*
G01X49375Y-176667D02*
X48125Y-175000D01*
X47500Y-173333D01*
Y-166667D01*
X48125Y-165000D01*
X49375Y-163333D01*
G01X101250Y-145667D02*
X100500Y-145167D01*
X99625Y-144833D01*
X98625D01*
X97500Y-145334D01*
X96625Y-146167D01*
X96000Y-147167D01*
X95500Y-148833D01*
X95375Y-150333D01*
X95625Y-151833D01*
X96000Y-152833D01*
X96750Y-153834D01*
X97625Y-154500D01*
X98500Y-154833D01*
X99375D01*
X100250Y-154500D01*
X101000Y-154000D01*
X101625Y-153334D01*
G01X111250Y-145667D02*
X110500Y-145167D01*
X109625Y-144833D01*
X108625D01*
X107500Y-145334D01*
X106625Y-146167D01*
X106000Y-147167D01*
X105500Y-148833D01*
X105375Y-150333D01*
X105625Y-151833D01*
X106000Y-152833D01*
X106750Y-153834D01*
X107625Y-154500D01*
X108500Y-154833D01*
X109375D01*
X110250Y-154500D01*
X111000Y-154000D01*
X111625Y-153334D01*
G01X115750Y-152833D02*
X116500Y-154000D01*
X117500Y-154667D01*
X118625Y-154833D01*
X119625Y-154667D01*
X120625Y-153834D01*
X121250Y-152833D01*
X121375Y-151833D01*
X121125Y-150667D01*
X120250Y-149833D01*
X119375Y-149500D01*
X118250D01*
G01X119375D02*
X120125Y-149000D01*
X120750Y-148167D01*
X121000Y-147167D01*
X120750Y-146167D01*
X120125Y-145334D01*
X119000Y-144833D01*
X117875Y-145000D01*
X116750Y-145667D01*
G01X126125Y-146500D02*
X126875Y-145500D01*
X127750Y-145000D01*
X128750Y-144833D01*
X130000Y-145167D01*
X130875Y-146000D01*
X131125Y-147000D01*
X131000Y-148000D01*
X130500Y-148833D01*
X128000Y-150500D01*
X126875Y-151667D01*
X126125Y-153334D01*
X125875Y-154833D01*
X131125D01*
G01X138500Y-144833D02*
X137500Y-145167D01*
X136750Y-146000D01*
X136250Y-147000D01*
X135875Y-148334D01*
X135750Y-149833D01*
X135875Y-151333D01*
X136250Y-152667D01*
X136750Y-153667D01*
X137500Y-154500D01*
X138500Y-154833D01*
X139500Y-154500D01*
X140250Y-153667D01*
X140750Y-152667D01*
X141125Y-151333D01*
X141250Y-149833D01*
X141125Y-148334D01*
X140750Y-147000D01*
X140250Y-146000D01*
X139500Y-145167D01*
X138500Y-144833D01*
G01X148500D02*
X147500Y-145167D01*
X146750Y-146000D01*
X146250Y-147000D01*
X145875Y-148334D01*
X145750Y-149833D01*
X145875Y-151333D01*
X146250Y-152667D01*
X146750Y-153667D01*
X147500Y-154500D01*
X148500Y-154833D01*
X149500Y-154500D01*
X150250Y-153667D01*
X150750Y-152667D01*
X151125Y-151333D01*
X151250Y-149833D01*
X151125Y-148334D01*
X150750Y-147000D01*
X150250Y-146000D01*
X149500Y-145167D01*
X148500Y-144833D01*
G01X156000D02*
Y-154833D01*
X161000D01*
G01X166000D02*
Y-144833D01*
X169000D01*
X170000Y-145334D01*
X170750Y-146500D01*
X171000Y-147833D01*
X170750Y-149167D01*
X170125Y-150167D01*
X169000Y-150667D01*
X166000D01*
G01X190000Y-154833D02*
Y-144833D01*
X185375Y-152000D01*
X191625D01*
G01X198500Y-155167D02*
X198250Y-155000D01*
Y-154667D01*
X198500Y-154500D01*
X198750Y-154667D01*
Y-155000D01*
X198500Y-155167D01*
G01X208500Y-154833D02*
Y-144833D01*
X207000Y-146833D01*
G01Y-154833D02*
X210000D01*
G01X183550Y-113400D02*
X184175Y-114400D01*
X184925Y-115067D01*
X185800Y-115400D01*
X186800Y-115067D01*
X187550Y-114400D01*
X188300Y-113400D01*
X188550Y-112067D01*
Y-105400D01*
G01X196050Y-115400D02*
X195050Y-115233D01*
X194175Y-114567D01*
X193425Y-113567D01*
X192925Y-112400D01*
X192675Y-111067D01*
Y-109733D01*
X192925Y-108400D01*
X193425Y-107233D01*
X194175Y-106233D01*
X195050Y-105567D01*
X196050Y-105400D01*
X197050Y-105567D01*
X197925Y-106233D01*
X198675Y-107233D01*
X199175Y-108400D01*
X199425Y-109733D01*
Y-111067D01*
X199175Y-112400D01*
X198675Y-113567D01*
X197925Y-114567D01*
X197050Y-115233D01*
X196050Y-115400D01*
G01X207050Y-110067D02*
X207550Y-109567D01*
X207925Y-108734D01*
X208175Y-107567D01*
X207925Y-106567D01*
X207425Y-105900D01*
X206550Y-105400D01*
X203175D01*
Y-115400D01*
X207300D01*
X208175Y-114733D01*
X208675Y-113733D01*
X208925Y-112567D01*
X208675Y-111400D01*
X207925Y-110400D01*
X207050Y-110067D01*
X203175D01*
G01X223175Y-115400D02*
Y-105400D01*
X228925Y-115400D01*
Y-105400D01*
G01X233300D02*
Y-112567D01*
X233800Y-114067D01*
X234800Y-115067D01*
X236050Y-115400D01*
X237300Y-115067D01*
X238300Y-114067D01*
X238800Y-112567D01*
Y-105400D01*
G01X242800Y-115400D02*
Y-105400D01*
X246050Y-113733D01*
X249300Y-105400D01*
Y-115400D01*
G01X257050Y-110067D02*
X257550Y-109567D01*
X257925Y-108734D01*
X258175Y-107567D01*
X257925Y-106567D01*
X257425Y-105900D01*
X256550Y-105400D01*
X253175D01*
Y-115400D01*
X257300D01*
X258175Y-114733D01*
X258675Y-113733D01*
X258925Y-112567D01*
X258675Y-111400D01*
X257925Y-110400D01*
X257050Y-110067D01*
X253175D01*
G01X268550Y-115400D02*
X263550D01*
Y-105400D01*
X268550D01*
G01X266550Y-110233D02*
X263550D01*
G01X273550Y-115400D02*
Y-105400D01*
X276675D01*
X277675Y-105900D01*
X278300Y-106567D01*
X278550Y-107900D01*
X278300Y-109233D01*
X277550Y-110067D01*
X276675Y-110567D01*
X273550D01*
G01X276675D02*
X278550Y-115400D01*
G01X286050Y-115733D02*
X285800Y-115567D01*
Y-115233D01*
X286050Y-115067D01*
X286300Y-115233D01*
Y-115567D01*
X286050Y-115733D01*
G01Y-111234D02*
X285800Y-111067D01*
Y-110733D01*
X286050Y-110567D01*
X286300Y-110733D01*
Y-111067D01*
X286050Y-111234D01*
G01X296050Y-105400D02*
Y-115400D01*
G01X293175Y-105400D02*
X298925D01*
G01X303425Y-114067D02*
X304425Y-114900D01*
X305550Y-115400D01*
X306550D01*
X307550Y-114900D01*
X308300Y-114067D01*
X308675Y-112900D01*
X308425Y-111734D01*
X307800Y-110733D01*
X306675Y-110067D01*
X305175Y-109733D01*
X304300Y-109067D01*
X303925Y-107900D01*
X304175Y-106733D01*
X304800Y-105900D01*
X305675Y-105400D01*
X306550D01*
X307425Y-105733D01*
X308175Y-106567D01*
G01X316050Y-115400D02*
Y-105400D01*
X314550Y-107400D01*
G01Y-115400D02*
X317550D01*
G01X326050Y-105400D02*
X325050Y-105733D01*
X324300Y-106567D01*
X323800Y-107567D01*
X323425Y-108900D01*
X323300Y-110400D01*
X323425Y-111900D01*
X323800Y-113233D01*
X324300Y-114234D01*
X325050Y-115067D01*
X326050Y-115400D01*
X327050Y-115067D01*
X327800Y-114234D01*
X328300Y-113233D01*
X328675Y-111900D01*
X328800Y-110400D01*
X328675Y-108900D01*
X328300Y-107567D01*
X327800Y-106567D01*
X327050Y-105733D01*
X326050Y-105400D01*
G01X336050Y-115400D02*
Y-105400D01*
X334550Y-107400D01*
G01Y-115400D02*
X337550D01*
G01X346050D02*
Y-105400D01*
X344550Y-107400D01*
G01Y-115400D02*
X347550D01*
G01X357550D02*
Y-105400D01*
X352925Y-112567D01*
X359175D01*
G01X362925Y-115400D02*
X366050Y-105400D01*
X369175Y-115400D01*
G01X368050Y-111900D02*
X364050D01*
G01X378800Y-106233D02*
X378050Y-105733D01*
X377175Y-105400D01*
X376175D01*
X375050Y-105900D01*
X374175Y-106733D01*
X373550Y-107733D01*
X373050Y-109400D01*
X372925Y-110900D01*
X373175Y-112400D01*
X373550Y-113400D01*
X374300Y-114400D01*
X375175Y-115067D01*
X376050Y-115400D01*
X376925D01*
X377800Y-115067D01*
X378550Y-114567D01*
X379175Y-113900D01*
G01X386050Y-105400D02*
X385050Y-105733D01*
X384300Y-106567D01*
X383800Y-107567D01*
X383425Y-108900D01*
X383300Y-110400D01*
X383425Y-111900D01*
X383800Y-113233D01*
X384300Y-114234D01*
X385050Y-115067D01*
X386050Y-115400D01*
X387050Y-115067D01*
X387800Y-114234D01*
X388300Y-113233D01*
X388675Y-111900D01*
X388800Y-110400D01*
X388675Y-108900D01*
X388300Y-107567D01*
X387800Y-106567D01*
X387050Y-105733D01*
X386050Y-105400D01*
G54D17*
X36500Y29843D03*
X194000D03*
X197157Y327000D03*
G54D18*
X28939Y353661D03*
X48624D03*
G54D19*
X25002Y364291D03*
X52561D03*
M02*
