M48
INCH,LZ
T01C.008
T02C.012
T03C.016
T04C.02
T05C.038
T06C.03937
T07C.098425
;LEADER: 12 
;HEADER: 
;CODE  : ASCII 
;FILE  : CC3200-LAUNCHXL_BRD_Rev4p1_20140624-1-4.drl for board #Taaaabj01216.tmp ... layers TOP and BOTTOM
;T01 Holesize 1. = 8.000000 Tolerance = +0.000000/-8.000000 PLATED MILS Quantity = 440
;T02 Holesize 2. = 12.000000 Tolerance = +0.000000/-12.000000 PLATED MILS Quantity = 158
;T03 Holesize 3. = 16.000000 Tolerance = +3.000000/-3.000000 PLATED MILS Quantity = 20
;T04 Holesize 4. = 20.000000 Tolerance = +3.000000/-3.000000 PLATED MILS Quantity = 2
;T05 Holesize 5. = 38.000000 Tolerance = +3.000000/-3.000000 PLATED MILS Quantity = 83
;T06 Holesize 6. = 39.370100 Tolerance = +3.000000/-3.000000 PLATED MILS Quantity = 6
%
G90
T01
X006475Y000725
X008275
X009425Y000675
X01107Y00073
Y00032
X01108Y00167
X01109Y00121
X01385Y0012
Y0017
X01435
Y0012
Y0007
X01485
Y0017
Y0012
X01535
Y0017
Y0007
X01585Y0017
Y0007
Y0012
X01635Y0017
Y0012
Y0007
X01685Y0017
Y0007
Y0012
X01745Y00165
X01107Y00211
X0113Y0039
Y0029
Y00335
Y00247
X01215Y00385
Y0034
X0122Y00295
X01229Y00222
X01285Y0032
Y0022
Y0037
Y0027
X01335Y0037
Y0027
Y0022
Y0032
X01385Y0022
Y0037
Y0027
Y0032
X01435Y0037
Y0027
Y0022
Y0032
X01485
Y0027
Y0037
Y0022
X01535Y0037
Y0022
R02Y0005
X01585Y0022
Y0027
Y0037
Y0032
X01635Y0037
Y0027
Y0032
Y0022
X01685Y0032
Y0037
Y0022
Y0027
X01745Y0036
X01835Y0035
X01885
X0194
X02245Y00375
X01935Y0047
Y0057
Y0052
Y0042
X01885Y0052
Y0047
Y0057
Y0042
X01835
Y0052
Y0047
Y0057
X01785
Y0047
Y0052
Y0042
X01735Y0052
Y0057
Y0047
Y0042
X01685Y0052
Y0042
Y0047
Y0057
X01635Y0052
Y0042
Y0057
Y0047
X01585Y0042
Y0057
Y0047
Y0052
X01535Y0042
Y0047
Y0052
X0151Y0057
X01485Y0052
Y0047
Y0042
X01465Y0056
X01435Y0042
Y0047
Y00585
Y0052
X01385Y0042
Y0047
Y0052
X01335Y0042
Y0057
Y0052
Y0047
X01285Y0042
X01255Y0052
Y00585
Y0048
Y0055
X01215Y00435
X01135Y0044
X01095Y00465
X01085Y005
Y0054
Y00575
X0105Y0058
Y0053
X01Y0058
Y0053
X00975Y0046
X0095Y0058
Y0053
X009Y0048
R02Y0005
X0085Y0053
Y0048
Y0058
X008Y0053
Y0058
X0079Y00465
X0075Y0058
Y0048
Y0053
X007Y0058
Y0048
Y0053
X0065
Y0048
Y0058
X006
Y0053
Y0048
X0055
Y0058
Y0053
X00515Y0046
X005Y0058
Y0053
X00465Y00462
X0045Y0053
Y0058
X00425Y00515
X004Y0058
Y0053
X00365Y00465
X0035Y0058
Y0053
Y0068
Y0078
X004Y0068
Y0078
X0045
Y0068
X005
Y0078
X0055
Y0068
X006Y0078
Y0068
R07X0005
X01Y0063
Y0068
X0105Y0063
Y0068
X0109Y0061
X011Y0068
Y0073
X0113Y007
Y0066
Y00625
Y0075
X01215Y00645
Y00715
Y0068
Y00615
X0123Y00745
X01265
X0129Y0069
Y0064
X013Y00745
X0133Y0075
X0134Y0069
Y0064
X0136Y0074
X0139Y00715
X0141Y00615
X01415Y0069
X0143Y00655
X0146Y0077
X0148Y00745
X01515Y0074
X0154Y00605
X01555Y0074
X0157Y0063
X0158Y00715
X01585Y0077
X016Y00655
X0161Y0069
X01635Y0062
Y0072
Y0077
X01685Y0072
Y0067
Y0077
Y0062
X01735
Y0067
X01775Y00795
X01785Y0062
Y0067
X01835Y0062
Y0067
X01885
Y0062
X01935Y0067
Y0062
X018Y0092
X0179Y0085
X01755Y0099
X01715Y00815
X01435Y00805
X01385Y0081
X0135Y00985
X01335Y0082
X0129Y00825
X0128125Y0093125
X01255Y00825
X01222Y00947
X01218Y00992
X01215Y009
Y0085
X0113Y009
Y00805
Y00855
X01128Y00989
X01126Y00944
X0073Y0083
X0057Y0095
X0016Y0098
X0015Y00805
X001Y0105
X0045Y01035
Y011
X0047Y01155
X0054586Y0116086
X0057Y01055
Y0111
Y0101
X00595Y01095
X0061Y01165
X00755Y01155
X0087Y0116
X0096Y0109
X0096633Y0114
X01005Y0102
X0104339Y0106833
X01075Y01031
X01095Y01145
X011139Y0112715
X01133Y01043
X01136Y01091
X01214Y01036
Y01094
X0135Y0104
X01805Y01085
X0222Y01395
X0221Y0135
Y0125
X021Y013
X0179Y0136
Y01285
Y01325
X01755Y01236
X0126553Y0124553
X01265Y01215
X0078Y01285
Y01375
X00735Y0138
X00715Y0131
X007Y0125
X00685Y01215
X0066163Y0135756
X00655Y0128
X0064972Y0133445
X00556Y0135
X00555Y01295
X005Y013
X00495Y0133
X00115Y01205
X001Y0135
X0011Y014
X0014Y0142
X00145Y0159
X00495Y015008
X0056112Y0158
X0059071Y0152
X00665Y015
X0071962Y015161
X00745Y01425
X0075905Y014
X0078Y01455
X0081164Y0152664
X0083Y0141
X0085Y01554
X0111621Y0159501
X0155Y0148
Y01505
X01735Y01495
X0179Y0155
Y0141
X0221108Y0155
X0186Y0171
X0179Y0179
Y01605
Y0165
X01735Y017
X0173Y01755
X0129Y0162
X01265Y0169071
X01253Y01749
X01235Y0168652
X0118Y01655
Y017
X0109004Y0169271
X0101Y0166
X0100784Y016275
X00995Y0170329
X00935Y017595
Y0179
X0086154Y0168154
X0086Y01745
X0085Y01715
X0066Y0164
X00585Y01765
X0057Y0163
X00544Y01735
X00495Y01715
X00489Y0168
X00695Y01885
X0165894Y0194213
X01665Y01875
X0168Y0192
X017375Y018325
X0178Y01855
X010761Y023411
X0154Y02345
X01838Y0226
X0208
X02135
X02225
X0216Y0254
X02078Y02496
X0203Y02429
X01945Y02525
X0085331Y0244331
X0022Y02595
X00235Y0272
X0024Y02685
X0032Y02715
X0032664Y0279336
X00335Y0263618
X0044Y02765
X0049Y02605
X00525Y02675
X0053Y0264
X01095Y02655
X020089Y026511
X02095Y02615
X0126005Y0298
X01195Y02995
X0045578Y0281078
X0045Y02855
X00315Y0288
X00125Y02995
X0020882Y0319118
X0021Y0316
X0024Y03105
X0029Y0309
X00315Y0316
X00425Y0304
X00435Y031
X004889Y031111
X00515Y0307
X00815Y0317
X0089Y03125
X00935Y0317
X01075Y03165
X01105Y03135
X0209Y0315
X0089Y03225
X00785
X0075
X0041Y03353
X00365
X0039Y03452
X017025Y034875
X017855Y035595
X02235Y03465
T02
X0084Y00945
X01435Y0108
X01465
X0134Y0137
X01325Y01255
X01165Y0124
Y0132
Y0136
Y0128
X01125Y0124
Y0128
Y0136
Y0132
X01085Y0128
Y0132
Y0124
Y0136
X01045Y0132
Y0136
Y0124
Y0128
X01005Y0136
Y0128
Y0132
Y0124
X00965Y0128
Y0132
Y0124
Y0136
X00925Y0128
Y0136
Y0132
Y0124
Y014
Y0144
Y0148
X00965Y0144
Y014
Y0148
X01005Y0144
Y0148
Y014
X01045
R02Y0004
X01085
R02Y-0004
X01125Y0144
Y0148
Y014
X01165Y0144
Y014
Y0148
X0136
X01117Y01627
X01509Y02171
X01566Y02178
X01532Y02212
X01485Y02261
X0147Y022
X00965Y0232
X00915Y02325
X00775Y023
X00685Y0236
X0005Y02565
X00215Y02505
X0045Y0259
X0052Y02515
X007Y0259
X0072Y02425
X00745Y02505
X008Y0241
Y0259
X0084Y025
X00885
X0092Y0257
X00975
X0101Y02485
X01895Y02445
X0211Y0241029
X0221788Y0261
X02185Y0265
X0197827Y0279673
X00835Y0266
X0045Y02695
X0022Y02755
X002Y0268231
X0005Y0267
Y0277
X00215Y0283
X00335Y02995
X0038
X00425Y02955
X00485Y02855
X00695Y0291
X0072Y028076
X0086Y028
X00885Y0294
X0089Y0299
X00895Y02885
X0111Y0294
Y0282
X0113Y02985
X01515Y0282
X01604Y0293
X01816Y02879
X01817Y02918
X019058Y0283
X0212Y0291
X0215017Y0295517
X02195Y0294
X0220538Y0281538
X0206Y03025
X01755Y03175
X01712Y03123
X01661Y03121
X01607Y0312
X0154425Y03004
X01515Y03095
X01335Y0312
X01295Y0314451
X01125Y0303
X0104Y031
X00995
X0085Y03
X0074Y03005
X00545Y0302
X005
X0015378Y03035
X000461Y03125
X00035Y0331
X00045Y032
X0025744Y0338744
X0045Y0325
X0052Y03215
X007Y0323
X00835Y03235
X00955Y03375
X0119Y0324
X0127543Y0325043
X01275Y032
X01285Y0334
X0135Y03335
X014Y0335
X0141Y0323
X01607Y0333
X01659Y03329
X01717Y03328
X0176Y03265
X019Y0323
X0157Y034
X01515Y0347
X01415Y0349
X0135Y0354
X01105Y03475
X00885Y0341
X0023Y03425
T03
X01276Y0108
X0133Y0109
X013314Y01142
X0135103Y0118165
X0129Y01189
X01375Y0126
X0138Y01345
X0137083Y0155083
X0127874Y0194874
X01227Y0195
X01595Y01705
X0163169Y01655
X01637Y01595
X01629Y0155
X0163993Y0150593
X01635Y01455
X01594Y0142
X01555Y01155
X01545Y0109
X021975Y006525
T04
X0116835Y02875
X0121165
T05
X0012Y01995
R04Y001
X0025Y0175
R09Y-001
Y0065
R02Y-001
X0035Y0085
R09Y001
X00475Y01995
Y02095
X00575
Y01995
X00675
Y02095
X00775
Y01995
X0102
R02Y001
X0112
R02Y-001
X0136
Y02095
X01625Y02535
R02Y001
X01725
R02Y-001
X0173Y02095
Y01995
X0183
Y02095
X0198
Y01995
X0195Y0175
R09Y-001
X0205Y0045
R02Y001
Y0085
R09Y001
X0208Y01995
Y02095
X0218
Y01995
T06
X00365Y0010157
Y0029843
X0194Y0010157
Y0029843
X0197157Y0327
X0216843
M30
