G04 ================== begin FILE IDENTIFICATION RECORD ==================*
G04 Layout Name:  CC3200-LAUNCHXL_BRD_Rev4p1_20140624.brd*
G04 Film Name:    SMT.gbr*
G04 File Format:  Gerber RS274X*
G04 File Origin:  Cadence Allegro 16.6-P004*
G04 Origin Date:  Tue Jun 24 08:36:08 2014*
G04 *
G04 Layer:  DRAWING FORMAT/SMT*
G04 Layer:  PIN/SOLDERMASK_TOP*
G04 Layer:  PACKAGE GEOMETRY/SOLDERMASK_TOP*
G04 Layer:  DRAWING FORMAT/FILM_LABEL_OUTLINE*
G04 Layer:  BOARD GEOMETRY/SOLDERMASK_TOP*
G04 *
G04 Offset:    (0.0000 0.0000)*
G04 Mirror:    No*
G04 Mode:      Positive*
G04 Rotation:  0*
G04 FullContactRelief:  No*
G04 UndefLineWidth:     6.0000*
G04 ================== end FILE IDENTIFICATION RECORD ====================*
%FSLAX25Y25*MOIN*%
%IR0*IPPOS*OFA0.00000B0.00000*MIA0B0*SFA1.00000B1.00000*%
%ADD71R,.07X.15*%
%ADD69R,.045276X.057087*%
%ADD57R,.057087X.045276*%
%AMMACRO42*
4,1,6,.004724,.021654,
-.01378,.021654,
-.01378,-.021654,
.004724,-.021654,
.01378,-.012598,
.01378,.012598,
.004724,.021654,
0.0*
%
%ADD42MACRO42*%
%ADD46C,.032*%
%ADD36C,.06*%
%AMMACRO45*
21,1,.074803,.043307,0.0,0.0,89.997*%
%ADD45MACRO45*%
%AMMACRO32*
4,1,24,.032382,-.010827,
.032382,.010827,
.032083,.014245,
.031195,.017559,
.029745,.020669,
.027776,.02348,
.02535,.025906,
.022539,.027875,
.01943,.029325,
.016115,.030213,
.012697,.030512,
.012697,.030512,
-.032382,.030512,
-.032382,-.030512,
.012697,-.030512,
.016115,-.030213,
.019429,-.029325,
.022539,-.027875,
.02535,-.025906,
.027776,-.02348,
.029745,-.020669,
.031195,-.017559,
.032083,-.014245,
.032382,-.010827,
.032382,-.010827,
0.0*
%
%ADD32MACRO32*%
%AMMACRO61*
21,1,.041339,.025,0.0,0.0,135.*%
%ADD61MACRO61*%
%ADD11C,.08*%
%ADD78C,.011811*%
%ADD14C,.058*%
%AMMACRO43*
21,1,.03937,.017717,0.0,0.0,89.997*%
%ADD43MACRO43*%
%AMMACRO60*
21,1,.02598,.01417,0.0,0.0,135.*%
%ADD60MACRO60*%
%ADD24R,.011811X.011811*%
%ADD13R,.058X.058*%
%ADD19C,.059055*%
%ADD77C,.07874*%
%ADD17R,.059055X.059055*%
%AMMACRO59*
21,1,.086614,.041339,0.0,0.0,135.*%
%ADD59MACRO59*%
%ADD50R,.019685X.019685*%
%AMMACRO53*
21,1,.025984,.022835,0.0,0.0,135.*%
%ADD53MACRO53*%
%ADD52R,.01378X.01378*%
%ADD16R,.032X.03*%
%ADD58R,.03X.032*%
%ADD68R,.07X.03*%
%ADD66R,.04X.05*%
%ADD34R,.07X.012*%
%ADD39O,.012X.038*%
%ADD35R,.012X.07*%
%ADD33R,.009842X.064961*%
%ADD74R,.035X.031*%
%ADD38O,.038X.012*%
%ADD28R,.031X.035*%
%ADD67R,.063X.05*%
%ADD15R,.07X.016*%
%ADD37R,.04X.048*%
%AMMACRO51*
4,1,6,-.004724,-.021654,
.01378,-.021654,
.01378,.021654,
-.004724,.021654,
-.01378,.012598,
-.01378,-.012598,
-.004724,-.021654,
0.0*
%
%ADD51MACRO51*%
%ADD25R,.024X.039*%
%ADD70R,.024X.048*%
%ADD29R,.024X.085*%
%AMMACRO27*
4,1,24,-.032382,.010827,
-.032382,-.010827,
-.032083,-.014245,
-.031195,-.017559,
-.029745,-.020669,
-.027776,-.02348,
-.02535,-.025906,
-.022539,-.027875,
-.01943,-.029325,
-.016115,-.030213,
-.012697,-.030512,
-.012697,-.030512,
.032382,-.030512,
.032382,.030512,
-.012697,.030512,
-.016115,.030213,
-.019429,.029325,
-.022539,.027875,
-.02535,.025906,
-.027776,.02348,
-.029745,.020669,
-.031195,.017559,
-.032083,.014245,
-.032382,.010827,
-.032382,.010827,
0.0*
%
%ADD27MACRO27*%
%ADD72R,.068898X.159449*%
%ADD10C,.102362*%
%ADD76R,.011024X.016142*%
%ADD75R,.016142X.011024*%
%ADD47R,.0215X.072831*%
%ADD49R,.01417X.02598*%
%ADD48R,.04528X.04528*%
%ADD44R,.043307X.074803*%
%ADD30R,.019685X.011811*%
%ADD22O,.049213X.037402*%
%ADD21R,.035433X.03937*%
%ADD56R,.03937X.035433*%
%ADD26R,.059055X.061024*%
%ADD62R,.037402X.03937*%
%ADD12R,.022441X.024409*%
%ADD54R,.03937X.037402*%
%ADD18R,.024409X.022441*%
%ADD41R,.015748X.037402*%
%ADD73R,.031496X.03937*%
%ADD55R,.055118X.041339*%
%ADD65R,.049213X.086614*%
%ADD64R,.031496X.086614*%
%ADD63R,.086614X.049213*%
%ADD23R,.015748X.05315*%
%ADD40R,.275591X.275591*%
%ADD20R,.022835X.025984*%
%ADD31R,.025984X.022835*%
%ADD79C,.015*%
%ADD80C,.006*%
G75*
%LPD*%
G75*
G36*
G01X75500Y86500D02*
Y106500D01*
X72500D01*
Y86500D01*
X75500D01*
G37*
G36*
G01X92500Y89500D02*
X72500D01*
Y86500D01*
X92500D01*
Y89500D01*
G37*
G36*
G01X75500Y165000D02*
Y185000D01*
X72500D01*
Y165000D01*
X75500D01*
G37*
G36*
G01X92500Y185000D02*
X72500D01*
Y182000D01*
X92500D01*
Y185000D01*
G37*
G36*
G01X111750Y182000D02*
X131750D01*
Y185000D01*
X111750D01*
Y182000D01*
G37*
G36*
G01X171000Y89500D02*
X151000D01*
Y86500D01*
X171000D01*
Y89500D01*
G37*
G36*
G01Y185000D02*
X151000D01*
Y182000D01*
X171000D01*
Y185000D01*
G37*
G36*
G01X168000Y106500D02*
Y86500D01*
X171000D01*
Y106500D01*
X168000D01*
G37*
G36*
G01Y145750D02*
Y125750D01*
X171000D01*
Y145750D01*
X168000D01*
G37*
G36*
G01Y185000D02*
Y165000D01*
X171000D01*
Y185000D01*
X168000D01*
G37*
G36*
G01X129000Y86500D02*
Y89500D01*
X145000D01*
Y86500D01*
X129000D01*
G37*
G36*
G01X172955Y334900D02*
Y311100D01*
X159055D01*
Y334900D01*
X172955D01*
G37*
G54D10*
X9921Y9921D03*
Y360079D03*
X220079Y9921D03*
Y360079D03*
G54D20*
X33571Y296500D03*
X37429D03*
X50571Y299000D03*
X54429D03*
X48929Y321500D03*
X45071D03*
X74071Y135000D03*
Y131000D03*
X62929Y149000D03*
X59071D03*
X77571Y250000D03*
X90571Y92500D03*
X94429D03*
X77929Y135000D03*
Y131000D03*
X81429Y250000D03*
X92071Y341000D03*
X95929D03*
X109929Y298500D03*
X106071D03*
X129590Y78764D03*
X125731D03*
X131429Y103000D03*
X127571D03*
X134929Y122000D03*
X131071D03*
X134929Y128500D03*
X131071D03*
X134929Y133500D03*
X131071D03*
X136500Y312000D03*
X140358D03*
X220538Y285532D03*
X216680D03*
G54D11*
X10000Y24500D03*
X205500Y360500D03*
X219500Y28000D03*
G54D12*
X13110Y95000D03*
X16890D03*
X13110Y85000D03*
X16890D03*
X13110Y105000D03*
X16890D03*
X13110Y115000D03*
X16890D03*
X13110Y125000D03*
X16890D03*
X13110Y135000D03*
X16890D03*
X13110Y155000D03*
X16890D03*
X13110Y145000D03*
X16890D03*
X13110Y165000D03*
X16890D03*
X8890Y253500D03*
X5110D03*
X8890Y263500D03*
X5110D03*
X8890Y280500D03*
X5110D03*
X8890Y285500D03*
X5110D03*
X8390Y316500D03*
X4610D03*
Y309000D03*
X8390D03*
X26890Y296500D03*
X23110D03*
X50110Y95000D03*
X53890D03*
X50110Y85000D03*
X53890D03*
X50110Y101000D03*
X53890D03*
X50110Y111000D03*
X53890D03*
X50110Y106000D03*
X53890D03*
X50110Y158000D03*
X53890D03*
X50110Y153000D03*
X53890D03*
X50110Y163000D03*
X53890D03*
X45110Y253500D03*
X48890D03*
X45110Y248500D03*
X48890D03*
X56110Y263500D03*
Y268000D03*
X53890Y276500D03*
X50110D03*
X53890Y280500D03*
X50110D03*
X55390Y289500D03*
X51610D03*
Y285500D03*
X55390D03*
X41610Y299000D03*
X45390D03*
X55390Y294000D03*
X51610D03*
X45110Y306500D03*
X48890D03*
X45110Y314000D03*
X48890D03*
X75890Y122500D03*
X72110D03*
X71610Y146500D03*
X75390D03*
X59890Y263500D03*
Y268000D03*
X104610Y278000D03*
X108390D03*
X104610Y273500D03*
X108390D03*
X106110Y303000D03*
X109890D03*
X114390Y316500D03*
X110610D03*
X117334Y78764D03*
X121114D03*
X136610Y307500D03*
X140690Y179100D03*
X136910D03*
X156110Y191000D03*
X147890Y307500D03*
X144110D03*
X140390D03*
X159890Y191000D03*
X182110Y95000D03*
X185890D03*
X182110Y85000D03*
X185890D03*
X182110Y115000D03*
X185890D03*
X182110Y105000D03*
X185890D03*
X182110Y125000D03*
X185890D03*
X182110Y141000D03*
X185890D03*
X182110Y131000D03*
X185890D03*
X182110Y135000D03*
X185890D03*
X182110Y145000D03*
X185890D03*
X182110Y149000D03*
X185890D03*
X182110Y160500D03*
X185890D03*
X182110Y155000D03*
X185890D03*
X182110Y165000D03*
X185890D03*
X182110Y175000D03*
X185890D03*
X182110Y179000D03*
X185890D03*
X192110Y247000D03*
X185890Y323000D03*
X182110D03*
Y328500D03*
X185890D03*
X214110Y85000D03*
Y95000D03*
Y115000D03*
Y105000D03*
Y120000D03*
Y135000D03*
Y125000D03*
Y130000D03*
Y139500D03*
Y145000D03*
X214218Y155000D03*
X214110Y165000D03*
X197110Y252000D03*
X200890D03*
X196110Y243000D03*
X199890D03*
X197110Y257000D03*
X200890D03*
X195890Y247000D03*
X204890Y247500D03*
X201110D03*
X208390Y265000D03*
X204610D03*
X212110D03*
X200890Y262000D03*
X197110D03*
X217890Y85000D03*
Y95000D03*
Y115000D03*
Y105000D03*
Y120000D03*
Y135000D03*
Y125000D03*
Y130000D03*
Y139500D03*
Y145000D03*
X217998Y155000D03*
X217890Y165000D03*
X215890Y265000D03*
X216680Y289753D03*
X220459D03*
X220890Y346500D03*
X217110D03*
G54D21*
X26650Y331000D03*
X20350D03*
X58350Y21500D03*
X64650D03*
X76350D03*
X82650D03*
X94350D03*
X100650D03*
X190500Y275500D03*
X185150Y342500D03*
X178850D03*
X213450Y61200D03*
X196799Y275500D03*
X219750Y61200D03*
G54D30*
X52776Y128547D03*
Y130516D03*
Y132484D03*
Y134453D03*
X62224D03*
Y132484D03*
Y130516D03*
Y128547D03*
G54D31*
X45000Y262071D03*
Y265929D03*
X72000Y239429D03*
Y235571D03*
X84000Y98571D03*
Y102429D03*
X92000Y253929D03*
Y250071D03*
X80000Y262071D03*
Y265929D03*
X84500Y316071D03*
Y319929D03*
X107500Y105571D03*
Y109429D03*
X101000Y105571D03*
Y109429D03*
X103800Y166429D03*
Y162571D03*
X108800Y166429D03*
Y162571D03*
X99500Y172571D03*
Y176429D03*
X97500Y253929D03*
Y250071D03*
X108000Y293929D03*
Y290071D03*
Y282071D03*
Y285929D03*
X117295Y27171D03*
Y31029D03*
X128500Y111071D03*
Y114929D03*
X126000Y166429D03*
Y162571D03*
X122000Y166429D03*
Y162571D03*
X120500Y173071D03*
Y176929D03*
X211000Y243571D03*
Y247429D03*
X219000Y257071D03*
Y260929D03*
G54D40*
X104500Y136000D03*
G54D22*
X28939Y353661D03*
X48624D03*
G54D13*
X12000Y199500D03*
X25000Y45000D03*
Y175000D03*
X57500Y209500D03*
X47500D03*
X67500D03*
X77500D03*
X102000Y199500D03*
X112000D03*
X136000D03*
X173000D03*
X172500Y263500D03*
Y253500D03*
Y273500D03*
X195000Y175000D03*
X198000Y199500D03*
X183000D03*
X205000Y45000D03*
X218000Y199500D03*
X208000D03*
G54D23*
X33664Y353760D03*
X36223D03*
X38782D03*
X41341D03*
X43900D03*
G54D41*
X96500Y235669D03*
X93941D03*
X82559D03*
X80000D03*
X77441D03*
X93941Y244331D03*
X96500D03*
X82559D03*
X77441D03*
X80000D03*
X99059Y235669D03*
Y244331D03*
G54D50*
X117295Y58937D03*
Y51063D03*
G54D14*
X12000Y209500D03*
Y219500D03*
Y239500D03*
Y229500D03*
X25000Y55000D03*
Y65000D03*
Y85000D03*
X35000D03*
X25000Y95000D03*
X35000D03*
X25000Y105000D03*
X35000D03*
X25000Y115000D03*
X35000D03*
X25000Y125000D03*
X35000D03*
X25000Y135000D03*
X35000D03*
X25000Y145000D03*
X35000D03*
X25000Y155000D03*
X35000D03*
X25000Y165000D03*
X35000D03*
Y175000D03*
X57500Y199500D03*
X47500D03*
X67500D03*
X77500D03*
X102000Y209500D03*
Y219500D03*
X112000Y209500D03*
Y219500D03*
X136000Y209500D03*
X173000D03*
X162500Y263500D03*
Y253500D03*
Y273500D03*
X195000Y85000D03*
Y95000D03*
Y105000D03*
Y115000D03*
Y125000D03*
Y135000D03*
Y145000D03*
Y155000D03*
Y165000D03*
X198000Y209500D03*
X183000D03*
X205000Y55000D03*
Y65000D03*
Y85000D03*
Y95000D03*
Y105000D03*
Y115000D03*
Y125000D03*
Y135000D03*
Y145000D03*
Y155000D03*
Y165000D03*
Y175000D03*
X218000Y209500D03*
X208000D03*
G54D32*
X51075Y364291D03*
G54D51*
X120445Y55000D03*
G54D15*
X15878Y250823D03*
Y253382D03*
Y255941D03*
Y258500D03*
Y261059D03*
Y263618D03*
Y266177D03*
Y275323D03*
Y277882D03*
Y280441D03*
Y283000D03*
Y285559D03*
Y288118D03*
Y290677D03*
X15378Y306323D03*
Y308882D03*
Y311441D03*
Y314000D03*
Y316559D03*
Y319118D03*
Y321677D03*
X38122Y250823D03*
Y253382D03*
Y255941D03*
Y258500D03*
Y261059D03*
Y263618D03*
Y266177D03*
Y275323D03*
Y277882D03*
Y280441D03*
Y283000D03*
Y285559D03*
Y288118D03*
Y290677D03*
X37622Y306323D03*
Y308882D03*
Y311441D03*
Y314000D03*
Y316559D03*
Y319118D03*
Y321677D03*
G54D33*
X57500Y131500D03*
G54D24*
X37404Y339612D03*
X40160D03*
X38782Y342959D03*
G54D60*
X142741Y77841D03*
X140459Y75559D03*
G54D42*
X114145Y55000D03*
G54D70*
X156660Y286743D03*
X164140D03*
X156660Y297058D03*
X160400D03*
X164140D03*
G54D25*
X25744Y342500D03*
X31256D03*
X47244D03*
X52756D03*
G54D34*
X62760Y279179D03*
Y281147D03*
Y283115D03*
Y285083D03*
Y287051D03*
Y289019D03*
Y290987D03*
Y292955D03*
Y294923D03*
Y296891D03*
Y298859D03*
Y300827D03*
X95240Y279173D03*
Y298853D03*
Y296885D03*
Y294917D03*
Y292949D03*
Y290981D03*
Y289013D03*
Y287045D03*
Y285077D03*
Y283109D03*
Y281141D03*
Y300821D03*
G54D16*
X7250Y331000D03*
X13750D03*
X58250Y10500D03*
X64750D03*
X76250D03*
X82750D03*
X94250D03*
X100750D03*
G54D52*
X117295Y95120D03*
Y97680D03*
G54D43*
X114736Y96400D03*
X119854D03*
G54D61*
X146701Y69329D03*
G54D80*
G01X-70227Y-174333D02*
Y-164333D01*
X-65477D01*
G01X-67227Y-169166D02*
X-70227D01*
G01X-59352Y-164333D02*
X-56352D01*
G01X-57852D02*
Y-174333D01*
G01X-59352D02*
X-56352D01*
G01X-50352Y-164333D02*
Y-174333D01*
X-45352D01*
G01X-41102D02*
Y-164333D01*
X-37852Y-172666D01*
X-34602Y-164333D01*
Y-174333D01*
G01X-20352Y-164333D02*
Y-174333D01*
X-15352D01*
G01X-10977D02*
X-7852Y-164333D01*
X-4727Y-174333D01*
G01X-5852Y-170833D02*
X-9852D01*
G01X2148Y-174333D02*
Y-169833D01*
X-352Y-164333D01*
G01X4648D02*
X2148Y-169833D01*
G01X14648Y-174333D02*
X9648D01*
Y-164333D01*
X14648D01*
G01X12648Y-169166D02*
X9648D01*
G01X19648Y-174333D02*
Y-164333D01*
X22773D01*
X23773Y-164833D01*
X24398Y-165500D01*
X24648Y-166833D01*
X24398Y-168166D01*
X23648Y-169000D01*
X22773Y-169500D01*
X19648D01*
G01X22773D02*
X24648Y-174333D01*
G01X32148Y-174666D02*
X31898Y-174500D01*
Y-174166D01*
X32148Y-174000D01*
X32398Y-174166D01*
Y-174500D01*
X32148Y-174666D01*
G01Y-170167D02*
X31898Y-170000D01*
Y-169666D01*
X32148Y-169500D01*
X32398Y-169666D01*
Y-170000D01*
X32148Y-170167D01*
G01X-70352Y-154333D02*
Y-144333D01*
X-67352D01*
X-66352Y-144833D01*
X-65602Y-146000D01*
X-65352Y-147333D01*
X-65602Y-148666D01*
X-66227Y-149666D01*
X-67352Y-150167D01*
X-70352D01*
G01X-60977Y-154333D02*
X-57852Y-144333D01*
X-54727Y-154333D01*
G01X-55852Y-150833D02*
X-59852D01*
G01X-50352Y-154333D02*
Y-144333D01*
X-47227D01*
X-46227Y-144833D01*
X-45602Y-145500D01*
X-45352Y-146833D01*
X-45602Y-148166D01*
X-46352Y-149000D01*
X-47227Y-149500D01*
X-50352D01*
G01X-47227D02*
X-45352Y-154333D01*
G01X-37852Y-144333D02*
Y-154333D01*
G01X-40727Y-144333D02*
X-34977D01*
G01X-20727Y-154333D02*
Y-144333D01*
X-14977Y-154333D01*
Y-144333D01*
G01X-7852Y-154333D02*
X-8852Y-154166D01*
X-9727Y-153500D01*
X-10477Y-152500D01*
X-10977Y-151333D01*
X-11227Y-150000D01*
Y-148666D01*
X-10977Y-147333D01*
X-10477Y-146166D01*
X-9727Y-145166D01*
X-8852Y-144500D01*
X-7852Y-144333D01*
X-6852Y-144500D01*
X-5977Y-145166D01*
X-5227Y-146166D01*
X-4727Y-147333D01*
X-4477Y-148666D01*
Y-150000D01*
X-4727Y-151333D01*
X-5227Y-152500D01*
X-5977Y-153500D01*
X-6852Y-154166D01*
X-7852Y-154333D01*
G01X-102Y-154666D02*
X4398Y-144333D01*
G01X14898Y-145166D02*
X14148Y-144666D01*
X13273Y-144333D01*
X12273D01*
X11148Y-144833D01*
X10273Y-145666D01*
X9648Y-146666D01*
X9148Y-148333D01*
X9023Y-149833D01*
X9273Y-151333D01*
X9648Y-152333D01*
X10398Y-153333D01*
X11273Y-154000D01*
X12148Y-154333D01*
X13023D01*
X13898Y-154000D01*
X14648Y-153500D01*
X15273Y-152833D01*
G01X19023Y-154333D02*
X22148Y-144333D01*
X25273Y-154333D01*
G01X24148Y-150833D02*
X20148D01*
G01X29648Y-154333D02*
Y-144333D01*
X32773D01*
X33773Y-144833D01*
X34398Y-145500D01*
X34648Y-146833D01*
X34398Y-148166D01*
X33648Y-149000D01*
X32773Y-149500D01*
X29648D01*
G01X32773D02*
X34648Y-154333D01*
G01X39398D02*
Y-144333D01*
X41898D01*
X42898Y-144833D01*
X43648Y-145500D01*
X44273Y-146500D01*
X44773Y-147667D01*
X44898Y-149333D01*
X44773Y-151000D01*
X44273Y-152166D01*
X43648Y-153167D01*
X42898Y-153833D01*
X41898Y-154333D01*
X39398D01*
G01X59648D02*
Y-144333D01*
X62773D01*
X63773Y-144833D01*
X64398Y-145500D01*
X64648Y-146833D01*
X64398Y-148166D01*
X63648Y-149000D01*
X62773Y-149500D01*
X59648D01*
G01X62773D02*
X64648Y-154333D01*
G01X74648D02*
X69648D01*
Y-144333D01*
X74648D01*
G01X72648Y-149166D02*
X69648D01*
G01X79773Y-154333D02*
Y-144333D01*
X84523D01*
G01X82773Y-149166D02*
X79773D01*
G01X92148Y-154666D02*
X91898Y-154500D01*
Y-154166D01*
X92148Y-154000D01*
X92398Y-154166D01*
Y-154500D01*
X92148Y-154666D01*
G01Y-150167D02*
X91898Y-150000D01*
Y-149666D01*
X92148Y-149500D01*
X92398Y-149666D01*
Y-150000D01*
X92148Y-150167D01*
G01X-71352Y-134463D02*
Y-124463D01*
X-68852D01*
X-67852Y-124963D01*
X-67102Y-125630D01*
X-66477Y-126630D01*
X-65977Y-127797D01*
X-65852Y-129463D01*
X-65977Y-131130D01*
X-66477Y-132296D01*
X-67102Y-133297D01*
X-67852Y-133963D01*
X-68852Y-134463D01*
X-71352D01*
G01X-56102D02*
X-61102D01*
Y-124463D01*
X-56102D01*
G01X-58102Y-129296D02*
X-61102D01*
G01X-51227Y-133130D02*
X-50227Y-133963D01*
X-49102Y-134463D01*
X-48102D01*
X-47102Y-133963D01*
X-46352Y-133130D01*
X-45977Y-131963D01*
X-46227Y-130797D01*
X-46852Y-129796D01*
X-47977Y-129130D01*
X-49477Y-128796D01*
X-50352Y-128130D01*
X-50727Y-126963D01*
X-50477Y-125796D01*
X-49852Y-124963D01*
X-48977Y-124463D01*
X-48102D01*
X-47227Y-124796D01*
X-46477Y-125630D01*
G01X-40102Y-124463D02*
X-37102D01*
G01X-38602D02*
Y-134463D01*
G01X-40102D02*
X-37102D01*
G01X-27852Y-129463D02*
X-25352D01*
Y-132463D01*
X-26102Y-133463D01*
X-26977Y-134130D01*
X-28227Y-134463D01*
X-29477Y-134130D01*
X-30352Y-133463D01*
X-31102Y-132463D01*
X-31602Y-131296D01*
X-31852Y-129963D01*
Y-128796D01*
X-31602Y-127797D01*
X-31102Y-126630D01*
X-30352Y-125630D01*
X-29602Y-124963D01*
X-28602Y-124463D01*
X-27727D01*
X-26727Y-124796D01*
X-25977Y-125463D01*
G01X-21477Y-134463D02*
Y-124463D01*
X-15727Y-134463D01*
Y-124463D01*
G01X-6102Y-134463D02*
X-11102D01*
Y-124463D01*
X-6102D01*
G01X-8102Y-129296D02*
X-11102D01*
G01X-1352Y-134463D02*
Y-124463D01*
X1148D01*
X2148Y-124963D01*
X2898Y-125630D01*
X3523Y-126630D01*
X4023Y-127797D01*
X4148Y-129463D01*
X4023Y-131130D01*
X3523Y-132296D01*
X2898Y-133297D01*
X2148Y-133963D01*
X1148Y-134463D01*
X-1352D01*
G01X22398Y-129130D02*
X22898Y-128630D01*
X23273Y-127797D01*
X23523Y-126630D01*
X23273Y-125630D01*
X22773Y-124963D01*
X21898Y-124463D01*
X18523D01*
Y-134463D01*
X22648D01*
X23523Y-133796D01*
X24023Y-132796D01*
X24273Y-131630D01*
X24023Y-130463D01*
X23273Y-129463D01*
X22398Y-129130D01*
X18523D01*
G01X31398Y-134463D02*
Y-129963D01*
X28898Y-124463D01*
G01X33898D02*
X31398Y-129963D01*
G01X41398Y-134796D02*
X41148Y-134630D01*
Y-134296D01*
X41398Y-134130D01*
X41648Y-134296D01*
Y-134630D01*
X41398Y-134796D01*
G01Y-130297D02*
X41148Y-130130D01*
Y-129796D01*
X41398Y-129630D01*
X41648Y-129796D01*
Y-130130D01*
X41398Y-130297D01*
G01X-70602Y-114333D02*
Y-104333D01*
X-68102D01*
X-67102Y-104833D01*
X-66352Y-105500D01*
X-65727Y-106500D01*
X-65227Y-107667D01*
X-65102Y-109333D01*
X-65227Y-111000D01*
X-65727Y-112166D01*
X-66352Y-113167D01*
X-67102Y-113833D01*
X-68102Y-114333D01*
X-70602D01*
G01X-60977D02*
X-57852Y-104333D01*
X-54727Y-114333D01*
G01X-55852Y-110833D02*
X-59852D01*
G01X-47852Y-104333D02*
Y-114333D01*
G01X-50727Y-104333D02*
X-44977D01*
G01X-35352Y-114333D02*
X-40352D01*
Y-104333D01*
X-35352D01*
G01X-37352Y-109166D02*
X-40352D01*
G01X-27852Y-114666D02*
X-28102Y-114500D01*
Y-114166D01*
X-27852Y-114000D01*
X-27602Y-114166D01*
Y-114500D01*
X-27852Y-114666D01*
G01Y-110167D02*
X-28102Y-110000D01*
Y-109666D01*
X-27852Y-109500D01*
X-27602Y-109666D01*
Y-110000D01*
X-27852Y-110167D01*
G01X-20352Y-112333D02*
X-19727Y-113333D01*
X-18977Y-114000D01*
X-18102Y-114333D01*
X-17102Y-114000D01*
X-16352Y-113333D01*
X-15602Y-112333D01*
X-15352Y-111000D01*
Y-104333D01*
G01X-10602D02*
Y-111500D01*
X-10102Y-113000D01*
X-9102Y-114000D01*
X-7852Y-114333D01*
X-6602Y-114000D01*
X-5602Y-113000D01*
X-5102Y-111500D01*
Y-104333D01*
G01X-727Y-114333D02*
Y-104333D01*
X5023Y-114333D01*
Y-104333D01*
G01X14648Y-114333D02*
X9648D01*
Y-104333D01*
X14648D01*
G01X12648Y-109166D02*
X9648D01*
G01X29773Y-106000D02*
X30523Y-105000D01*
X31398Y-104500D01*
X32398Y-104333D01*
X33648Y-104666D01*
X34523Y-105500D01*
X34773Y-106500D01*
X34648Y-107500D01*
X34148Y-108333D01*
X31648Y-110000D01*
X30523Y-111166D01*
X29773Y-112833D01*
X29523Y-114333D01*
X34773D01*
G01X43648D02*
Y-104333D01*
X39023Y-111500D01*
X45273D01*
G01X59773Y-106000D02*
X60523Y-105000D01*
X61398Y-104500D01*
X62398Y-104333D01*
X63648Y-104666D01*
X64523Y-105500D01*
X64773Y-106500D01*
X64648Y-107500D01*
X64148Y-108333D01*
X61648Y-110000D01*
X60523Y-111166D01*
X59773Y-112833D01*
X59523Y-114333D01*
X64773D01*
G01X72148Y-104333D02*
X71148Y-104666D01*
X70398Y-105500D01*
X69898Y-106500D01*
X69523Y-107833D01*
X69398Y-109333D01*
X69523Y-110833D01*
X69898Y-112166D01*
X70398Y-113167D01*
X71148Y-114000D01*
X72148Y-114333D01*
X73148Y-114000D01*
X73898Y-113167D01*
X74398Y-112166D01*
X74773Y-110833D01*
X74898Y-109333D01*
X74773Y-107833D01*
X74398Y-106500D01*
X73898Y-105500D01*
X73148Y-104666D01*
X72148Y-104333D01*
G01X82148Y-114333D02*
Y-104333D01*
X80648Y-106333D01*
G01Y-114333D02*
X83648D01*
G01X93648D02*
Y-104333D01*
X89023Y-111500D01*
X95273D01*
G01X-51852Y-86296D02*
X-52602Y-85796D01*
X-53477Y-85463D01*
X-54477D01*
X-55602Y-85963D01*
X-56477Y-86796D01*
X-57102Y-87796D01*
X-57602Y-89463D01*
X-57727Y-90963D01*
X-57477Y-92463D01*
X-57102Y-93463D01*
X-56352Y-94463D01*
X-55477Y-95130D01*
X-54602Y-95463D01*
X-53727D01*
X-52852Y-95130D01*
X-52102Y-94630D01*
X-51477Y-93963D01*
G01X-44602Y-95463D02*
X-45602Y-95296D01*
X-46477Y-94630D01*
X-47227Y-93630D01*
X-47727Y-92463D01*
X-47977Y-91130D01*
Y-89796D01*
X-47727Y-88463D01*
X-47227Y-87296D01*
X-46477Y-86296D01*
X-45602Y-85630D01*
X-44602Y-85463D01*
X-43602Y-85630D01*
X-42727Y-86296D01*
X-41977Y-87296D01*
X-41477Y-88463D01*
X-41227Y-89796D01*
Y-91130D01*
X-41477Y-92463D01*
X-41977Y-93630D01*
X-42727Y-94630D01*
X-43602Y-95296D01*
X-44602Y-95463D01*
G01X-37852D02*
Y-85463D01*
X-34602Y-93796D01*
X-31352Y-85463D01*
Y-95463D01*
G01X-27102D02*
Y-85463D01*
X-24102D01*
X-23102Y-85963D01*
X-22352Y-87130D01*
X-22102Y-88463D01*
X-22352Y-89796D01*
X-22977Y-90796D01*
X-24102Y-91297D01*
X-27102D01*
G01X-17727Y-95463D02*
X-14602Y-85463D01*
X-11477Y-95463D01*
G01X-12602Y-91963D02*
X-16602D01*
G01X-7477Y-95463D02*
Y-85463D01*
X-1727Y-95463D01*
Y-85463D01*
G01X5398Y-95463D02*
Y-90963D01*
X2898Y-85463D01*
G01X7898D02*
X5398Y-90963D01*
G01X22523Y-95463D02*
Y-85463D01*
X28273Y-95463D01*
Y-85463D01*
G01X32273Y-95463D02*
X35398Y-85463D01*
X38523Y-95463D01*
G01X37398Y-91963D02*
X33398D01*
G01X42148Y-95463D02*
Y-85463D01*
X45398Y-93796D01*
X48648Y-85463D01*
Y-95463D01*
G01X57898D02*
X52898D01*
Y-85463D01*
X57898D01*
G01X55898Y-90296D02*
X52898D01*
G01X75398Y-95796D02*
X75148Y-95630D01*
Y-95296D01*
X75398Y-95130D01*
X75648Y-95296D01*
Y-95630D01*
X75398Y-95796D01*
G01Y-91297D02*
X75148Y-91130D01*
Y-90796D01*
X75398Y-90630D01*
X75648Y-90796D01*
Y-91130D01*
X75398Y-91297D01*
G01X95398Y-85463D02*
Y-95463D01*
G01X92523Y-85463D02*
X98273D01*
G01X107898Y-95463D02*
X102898D01*
Y-85463D01*
X107898D01*
G01X105898Y-90296D02*
X102898D01*
G01X112773Y-95463D02*
X118023Y-85463D01*
G01X112773D02*
X118023Y-95463D01*
G01X122273D02*
X125398Y-85463D01*
X128523Y-95463D01*
G01X127398Y-91963D02*
X123398D01*
G01X132773Y-94130D02*
X133773Y-94963D01*
X134898Y-95463D01*
X135898D01*
X136898Y-94963D01*
X137648Y-94130D01*
X138023Y-92963D01*
X137773Y-91797D01*
X137148Y-90796D01*
X136023Y-90130D01*
X134523Y-89796D01*
X133648Y-89130D01*
X133273Y-87963D01*
X133523Y-86796D01*
X134148Y-85963D01*
X135023Y-85463D01*
X135898D01*
X136773Y-85796D01*
X137523Y-86630D01*
G01X153898Y-85463D02*
X156898D01*
G01X155398D02*
Y-95463D01*
G01X153898D02*
X156898D01*
G01X162523D02*
Y-85463D01*
X168273Y-95463D01*
Y-85463D01*
G01X172773Y-94130D02*
X173773Y-94963D01*
X174898Y-95463D01*
X175898D01*
X176898Y-94963D01*
X177648Y-94130D01*
X178023Y-92963D01*
X177773Y-91797D01*
X177148Y-90796D01*
X176023Y-90130D01*
X174523Y-89796D01*
X173648Y-89130D01*
X173273Y-87963D01*
X173523Y-86796D01*
X174148Y-85963D01*
X175023Y-85463D01*
X175898D01*
X176773Y-85796D01*
X177523Y-86630D01*
G01X185398Y-85463D02*
Y-95463D01*
G01X182523Y-85463D02*
X188273D01*
G01X192898Y-95463D02*
Y-85463D01*
X196023D01*
X197023Y-85963D01*
X197648Y-86630D01*
X197898Y-87963D01*
X197648Y-89296D01*
X196898Y-90130D01*
X196023Y-90630D01*
X192898D01*
G01X196023D02*
X197898Y-95463D01*
G01X202648Y-85463D02*
Y-92630D01*
X203148Y-94130D01*
X204148Y-95130D01*
X205398Y-95463D01*
X206648Y-95130D01*
X207648Y-94130D01*
X208148Y-92630D01*
Y-85463D01*
G01X212148Y-95463D02*
Y-85463D01*
X215398Y-93796D01*
X218648Y-85463D01*
Y-95463D01*
G01X227898D02*
X222898D01*
Y-85463D01*
X227898D01*
G01X225898Y-90296D02*
X222898D01*
G01X232523Y-95463D02*
Y-85463D01*
X238273Y-95463D01*
Y-85463D01*
G01X245398D02*
Y-95463D01*
G01X242523Y-85463D02*
X248273D01*
G01X252773Y-94130D02*
X253773Y-94963D01*
X254898Y-95463D01*
X255898D01*
X256898Y-94963D01*
X257648Y-94130D01*
X258023Y-92963D01*
X257773Y-91797D01*
X257148Y-90796D01*
X256023Y-90130D01*
X254523Y-89796D01*
X253648Y-89130D01*
X253273Y-87963D01*
X253523Y-86796D01*
X254148Y-85963D01*
X255023Y-85463D01*
X255898D01*
X256773Y-85796D01*
X257523Y-86630D01*
G01X43750Y-175000D02*
Y-165000D01*
X46750D01*
X47750Y-165500D01*
X48500Y-166667D01*
X48750Y-168000D01*
X48500Y-169333D01*
X47875Y-170333D01*
X46750Y-170834D01*
X43750D01*
G01X53750Y-175000D02*
Y-165000D01*
X56875D01*
X57875Y-165500D01*
X58500Y-166167D01*
X58750Y-167500D01*
X58500Y-168833D01*
X57750Y-169667D01*
X56875Y-170167D01*
X53750D01*
G01X56875D02*
X58750Y-175000D01*
G01X64750Y-165000D02*
X67750D01*
G01X66250D02*
Y-175000D01*
G01X64750D02*
X67750D01*
G01X73000D02*
Y-165000D01*
X76250Y-173333D01*
X79500Y-165000D01*
Y-175000D01*
G01X83125D02*
X86250Y-165000D01*
X89375Y-175000D01*
G01X88250Y-171500D02*
X84250D01*
G01X93750Y-175000D02*
Y-165000D01*
X96875D01*
X97875Y-165500D01*
X98500Y-166167D01*
X98750Y-167500D01*
X98500Y-168833D01*
X97750Y-169667D01*
X96875Y-170167D01*
X93750D01*
G01X96875D02*
X98750Y-175000D01*
G01X106250D02*
Y-170500D01*
X103750Y-165000D01*
G01X108750D02*
X106250Y-170500D01*
G01X123625Y-173667D02*
X124625Y-174500D01*
X125750Y-175000D01*
X126750D01*
X127750Y-174500D01*
X128500Y-173667D01*
X128875Y-172500D01*
X128625Y-171334D01*
X128000Y-170333D01*
X126875Y-169667D01*
X125375Y-169333D01*
X124500Y-168667D01*
X124125Y-167500D01*
X124375Y-166333D01*
X125000Y-165500D01*
X125875Y-165000D01*
X126750D01*
X127625Y-165333D01*
X128375Y-166167D01*
G01X134750Y-165000D02*
X137750D01*
G01X136250D02*
Y-175000D01*
G01X134750D02*
X137750D01*
G01X143500D02*
Y-165000D01*
X146000D01*
X147000Y-165500D01*
X147750Y-166167D01*
X148375Y-167167D01*
X148875Y-168334D01*
X149000Y-170000D01*
X148875Y-171667D01*
X148375Y-172833D01*
X147750Y-173834D01*
X147000Y-174500D01*
X146000Y-175000D01*
X143500D01*
G01X158750D02*
X153750D01*
Y-165000D01*
X158750D01*
G01X156750Y-169833D02*
X153750D01*
G01X173625Y-173667D02*
X174625Y-174500D01*
X175750Y-175000D01*
X176750D01*
X177750Y-174500D01*
X178500Y-173667D01*
X178875Y-172500D01*
X178625Y-171334D01*
X178000Y-170333D01*
X176875Y-169667D01*
X175375Y-169333D01*
X174500Y-168667D01*
X174125Y-167500D01*
X174375Y-166333D01*
X175000Y-165500D01*
X175875Y-165000D01*
X176750D01*
X177625Y-165333D01*
X178375Y-166167D01*
G01X186250Y-175000D02*
X185250Y-174833D01*
X184375Y-174167D01*
X183625Y-173167D01*
X183125Y-172000D01*
X182875Y-170667D01*
Y-169333D01*
X183125Y-168000D01*
X183625Y-166833D01*
X184375Y-165833D01*
X185250Y-165167D01*
X186250Y-165000D01*
X187250Y-165167D01*
X188125Y-165833D01*
X188875Y-166833D01*
X189375Y-168000D01*
X189625Y-169333D01*
Y-170667D01*
X189375Y-172000D01*
X188875Y-173167D01*
X188125Y-174167D01*
X187250Y-174833D01*
X186250Y-175000D01*
G01X193750Y-165000D02*
Y-175000D01*
X198750D01*
G01X203500D02*
Y-165000D01*
X206000D01*
X207000Y-165500D01*
X207750Y-166167D01*
X208375Y-167167D01*
X208875Y-168334D01*
X209000Y-170000D01*
X208875Y-171667D01*
X208375Y-172833D01*
X207750Y-173834D01*
X207000Y-174500D01*
X206000Y-175000D01*
X203500D01*
G01X218750D02*
X213750D01*
Y-165000D01*
X218750D01*
G01X216750Y-169833D02*
X213750D01*
G01X223750Y-175000D02*
Y-165000D01*
X226875D01*
X227875Y-165500D01*
X228500Y-166167D01*
X228750Y-167500D01*
X228500Y-168833D01*
X227750Y-169667D01*
X226875Y-170167D01*
X223750D01*
G01X226875D02*
X228750Y-175000D01*
G01X233000D02*
Y-165000D01*
X236250Y-173333D01*
X239500Y-165000D01*
Y-175000D01*
G01X243125D02*
X246250Y-165000D01*
X249375Y-175000D01*
G01X248250Y-171500D02*
X244250D01*
G01X253625Y-173667D02*
X254625Y-174500D01*
X255750Y-175000D01*
X256750D01*
X257750Y-174500D01*
X258500Y-173667D01*
X258875Y-172500D01*
X258625Y-171334D01*
X258000Y-170333D01*
X256875Y-169667D01*
X255375Y-169333D01*
X254500Y-168667D01*
X254125Y-167500D01*
X254375Y-166333D01*
X255000Y-165500D01*
X255875Y-165000D01*
X256750D01*
X257625Y-165333D01*
X258375Y-166167D01*
G01X263500Y-175000D02*
Y-165000D01*
G01X268250D02*
X263500Y-171167D01*
G01X269000Y-175000D02*
X265625Y-168334D01*
G01X101250Y-145667D02*
X100500Y-145167D01*
X99625Y-144833D01*
X98625D01*
X97500Y-145334D01*
X96625Y-146167D01*
X96000Y-147167D01*
X95500Y-148833D01*
X95375Y-150333D01*
X95625Y-151833D01*
X96000Y-152833D01*
X96750Y-153834D01*
X97625Y-154500D01*
X98500Y-154833D01*
X99375D01*
X100250Y-154500D01*
X101000Y-154000D01*
X101625Y-153334D01*
G01X111250Y-145667D02*
X110500Y-145167D01*
X109625Y-144833D01*
X108625D01*
X107500Y-145334D01*
X106625Y-146167D01*
X106000Y-147167D01*
X105500Y-148833D01*
X105375Y-150333D01*
X105625Y-151833D01*
X106000Y-152833D01*
X106750Y-153834D01*
X107625Y-154500D01*
X108500Y-154833D01*
X109375D01*
X110250Y-154500D01*
X111000Y-154000D01*
X111625Y-153334D01*
G01X115750Y-152833D02*
X116500Y-154000D01*
X117500Y-154667D01*
X118625Y-154833D01*
X119625Y-154667D01*
X120625Y-153834D01*
X121250Y-152833D01*
X121375Y-151833D01*
X121125Y-150667D01*
X120250Y-149833D01*
X119375Y-149500D01*
X118250D01*
G01X119375D02*
X120125Y-149000D01*
X120750Y-148167D01*
X121000Y-147167D01*
X120750Y-146167D01*
X120125Y-145334D01*
X119000Y-144833D01*
X117875Y-145000D01*
X116750Y-145667D01*
G01X126125Y-146500D02*
X126875Y-145500D01*
X127750Y-145000D01*
X128750Y-144833D01*
X130000Y-145167D01*
X130875Y-146000D01*
X131125Y-147000D01*
X131000Y-148000D01*
X130500Y-148833D01*
X128000Y-150500D01*
X126875Y-151667D01*
X126125Y-153334D01*
X125875Y-154833D01*
X131125D01*
G01X138500Y-144833D02*
X137500Y-145167D01*
X136750Y-146000D01*
X136250Y-147000D01*
X135875Y-148334D01*
X135750Y-149833D01*
X135875Y-151333D01*
X136250Y-152667D01*
X136750Y-153667D01*
X137500Y-154500D01*
X138500Y-154833D01*
X139500Y-154500D01*
X140250Y-153667D01*
X140750Y-152667D01*
X141125Y-151333D01*
X141250Y-149833D01*
X141125Y-148334D01*
X140750Y-147000D01*
X140250Y-146000D01*
X139500Y-145167D01*
X138500Y-144833D01*
G01X148500D02*
X147500Y-145167D01*
X146750Y-146000D01*
X146250Y-147000D01*
X145875Y-148334D01*
X145750Y-149833D01*
X145875Y-151333D01*
X146250Y-152667D01*
X146750Y-153667D01*
X147500Y-154500D01*
X148500Y-154833D01*
X149500Y-154500D01*
X150250Y-153667D01*
X150750Y-152667D01*
X151125Y-151333D01*
X151250Y-149833D01*
X151125Y-148334D01*
X150750Y-147000D01*
X150250Y-146000D01*
X149500Y-145167D01*
X148500Y-144833D01*
G01X156000D02*
Y-154833D01*
X161000D01*
G01X166000D02*
Y-144833D01*
X169000D01*
X170000Y-145334D01*
X170750Y-146500D01*
X171000Y-147833D01*
X170750Y-149167D01*
X170125Y-150167D01*
X169000Y-150667D01*
X166000D01*
G01X190000Y-154833D02*
Y-144833D01*
X185375Y-152000D01*
X191625D01*
G01X198500Y-155167D02*
X198250Y-155000D01*
Y-154667D01*
X198500Y-154500D01*
X198750Y-154667D01*
Y-155000D01*
X198500Y-155167D01*
G01X208500Y-154833D02*
Y-144833D01*
X207000Y-146833D01*
G01Y-154833D02*
X210000D01*
G01X183550Y-113400D02*
X184175Y-114400D01*
X184925Y-115067D01*
X185800Y-115400D01*
X186800Y-115067D01*
X187550Y-114400D01*
X188300Y-113400D01*
X188550Y-112067D01*
Y-105400D01*
G01X196050Y-115400D02*
X195050Y-115233D01*
X194175Y-114567D01*
X193425Y-113567D01*
X192925Y-112400D01*
X192675Y-111067D01*
Y-109733D01*
X192925Y-108400D01*
X193425Y-107233D01*
X194175Y-106233D01*
X195050Y-105567D01*
X196050Y-105400D01*
X197050Y-105567D01*
X197925Y-106233D01*
X198675Y-107233D01*
X199175Y-108400D01*
X199425Y-109733D01*
Y-111067D01*
X199175Y-112400D01*
X198675Y-113567D01*
X197925Y-114567D01*
X197050Y-115233D01*
X196050Y-115400D01*
G01X207050Y-110067D02*
X207550Y-109567D01*
X207925Y-108734D01*
X208175Y-107567D01*
X207925Y-106567D01*
X207425Y-105900D01*
X206550Y-105400D01*
X203175D01*
Y-115400D01*
X207300D01*
X208175Y-114733D01*
X208675Y-113733D01*
X208925Y-112567D01*
X208675Y-111400D01*
X207925Y-110400D01*
X207050Y-110067D01*
X203175D01*
G01X223175Y-115400D02*
Y-105400D01*
X228925Y-115400D01*
Y-105400D01*
G01X233300D02*
Y-112567D01*
X233800Y-114067D01*
X234800Y-115067D01*
X236050Y-115400D01*
X237300Y-115067D01*
X238300Y-114067D01*
X238800Y-112567D01*
Y-105400D01*
G01X242800Y-115400D02*
Y-105400D01*
X246050Y-113733D01*
X249300Y-105400D01*
Y-115400D01*
G01X257050Y-110067D02*
X257550Y-109567D01*
X257925Y-108734D01*
X258175Y-107567D01*
X257925Y-106567D01*
X257425Y-105900D01*
X256550Y-105400D01*
X253175D01*
Y-115400D01*
X257300D01*
X258175Y-114733D01*
X258675Y-113733D01*
X258925Y-112567D01*
X258675Y-111400D01*
X257925Y-110400D01*
X257050Y-110067D01*
X253175D01*
G01X268550Y-115400D02*
X263550D01*
Y-105400D01*
X268550D01*
G01X266550Y-110233D02*
X263550D01*
G01X273550Y-115400D02*
Y-105400D01*
X276675D01*
X277675Y-105900D01*
X278300Y-106567D01*
X278550Y-107900D01*
X278300Y-109233D01*
X277550Y-110067D01*
X276675Y-110567D01*
X273550D01*
G01X276675D02*
X278550Y-115400D01*
G01X286050Y-115733D02*
X285800Y-115567D01*
Y-115233D01*
X286050Y-115067D01*
X286300Y-115233D01*
Y-115567D01*
X286050Y-115733D01*
G01Y-111234D02*
X285800Y-111067D01*
Y-110733D01*
X286050Y-110567D01*
X286300Y-110733D01*
Y-111067D01*
X286050Y-111234D01*
G01X296050Y-105400D02*
Y-115400D01*
G01X293175Y-105400D02*
X298925D01*
G01X303425Y-114067D02*
X304425Y-114900D01*
X305550Y-115400D01*
X306550D01*
X307550Y-114900D01*
X308300Y-114067D01*
X308675Y-112900D01*
X308425Y-111734D01*
X307800Y-110733D01*
X306675Y-110067D01*
X305175Y-109733D01*
X304300Y-109067D01*
X303925Y-107900D01*
X304175Y-106733D01*
X304800Y-105900D01*
X305675Y-105400D01*
X306550D01*
X307425Y-105733D01*
X308175Y-106567D01*
G01X316050Y-115400D02*
Y-105400D01*
X314550Y-107400D01*
G01Y-115400D02*
X317550D01*
G01X326050Y-105400D02*
X325050Y-105733D01*
X324300Y-106567D01*
X323800Y-107567D01*
X323425Y-108900D01*
X323300Y-110400D01*
X323425Y-111900D01*
X323800Y-113233D01*
X324300Y-114234D01*
X325050Y-115067D01*
X326050Y-115400D01*
X327050Y-115067D01*
X327800Y-114234D01*
X328300Y-113233D01*
X328675Y-111900D01*
X328800Y-110400D01*
X328675Y-108900D01*
X328300Y-107567D01*
X327800Y-106567D01*
X327050Y-105733D01*
X326050Y-105400D01*
G01X336050Y-115400D02*
Y-105400D01*
X334550Y-107400D01*
G01Y-115400D02*
X337550D01*
G01X346050D02*
Y-105400D01*
X344550Y-107400D01*
G01Y-115400D02*
X347550D01*
G01X357550D02*
Y-105400D01*
X352925Y-112567D01*
X359175D01*
G01X362925Y-115400D02*
X366050Y-105400D01*
X369175Y-115400D01*
G01X368050Y-111900D02*
X364050D01*
G01X378800Y-106233D02*
X378050Y-105733D01*
X377175Y-105400D01*
X376175D01*
X375050Y-105900D01*
X374175Y-106733D01*
X373550Y-107733D01*
X373050Y-109400D01*
X372925Y-110900D01*
X373175Y-112400D01*
X373550Y-113400D01*
X374300Y-114400D01*
X375175Y-115067D01*
X376050Y-115400D01*
X376925D01*
X377800Y-115067D01*
X378550Y-114567D01*
X379175Y-113900D01*
G01X386050Y-105400D02*
X385050Y-105733D01*
X384300Y-106567D01*
X383800Y-107567D01*
X383425Y-108900D01*
X383300Y-110400D01*
X383425Y-111900D01*
X383800Y-113233D01*
X384300Y-114234D01*
X385050Y-115067D01*
X386050Y-115400D01*
X387050Y-115067D01*
X387800Y-114234D01*
X388300Y-113233D01*
X388675Y-111900D01*
X388800Y-110400D01*
X388675Y-108900D01*
X388300Y-107567D01*
X387800Y-106567D01*
X387050Y-105733D01*
X386050Y-105400D01*
G54D62*
X151150Y112500D03*
X144850D03*
X150650Y149500D03*
X144350D03*
G54D26*
X34845Y364291D03*
X42719D03*
G54D44*
X105079Y176000D03*
G54D35*
X68173Y273760D03*
X76045D03*
X74077D03*
X72109D03*
X70141D03*
X76051Y306240D03*
X74083D03*
X72115D03*
X70147D03*
X68179D03*
X89821Y273760D03*
X87853D03*
X85885D03*
X83917D03*
X81949D03*
X79981D03*
X78013D03*
X89827Y306240D03*
X87859D03*
X85891D03*
X83923D03*
X81955D03*
X79987D03*
X78019D03*
G54D53*
X135864Y151864D03*
X133136Y149136D03*
G54D17*
X36500Y10157D03*
X194000D03*
X216843Y327000D03*
G54D71*
X168255Y323000D03*
G54D63*
X147000Y119669D03*
Y128331D03*
G54D18*
X36500Y43890D03*
Y40110D03*
X46500D03*
Y43890D03*
X44000Y122110D03*
Y125890D03*
X65250Y42890D03*
Y39110D03*
X60750Y42890D03*
Y39110D03*
X70000Y262110D03*
Y265890D03*
X74500Y316110D03*
X70000D03*
X74500Y319890D03*
X70000D03*
X83750Y42890D03*
Y39110D03*
X79250Y42890D03*
Y39110D03*
X82500Y225110D03*
Y228890D03*
X79000Y316110D03*
X89000D03*
X79000Y319890D03*
X89000D03*
X102000Y42890D03*
Y39110D03*
X97500Y42890D03*
Y39110D03*
X100000Y98890D03*
Y95110D03*
X104500Y234110D03*
Y237890D03*
Y244110D03*
Y247890D03*
X100000Y313110D03*
Y316890D03*
X105000Y313110D03*
Y316890D03*
X117295Y78725D03*
Y74945D03*
X119000Y316610D03*
Y320390D03*
X174500Y10110D03*
Y13890D03*
Y33390D03*
Y29610D03*
X159000Y175110D03*
Y178890D03*
X183800Y219410D03*
X178000Y219610D03*
X183800Y223190D03*
X178000Y223390D03*
X193800Y282902D03*
Y286682D03*
X213500Y219610D03*
X208000D03*
X213500Y223390D03*
X208000D03*
X208779Y273336D03*
Y277116D03*
X204279Y273336D03*
Y277116D03*
X211779Y296110D03*
X207500D03*
X197827Y286682D03*
Y282902D03*
X211779Y299890D03*
X207500D03*
X221500Y37610D03*
Y41390D03*
X222500Y219610D03*
Y223390D03*
G54D54*
X132500Y172350D03*
Y166050D03*
X149500Y292550D03*
Y286250D03*
X159400Y145850D03*
Y152150D03*
X159500Y159350D03*
Y165650D03*
X174600Y296550D03*
Y302850D03*
G54D72*
X160500Y356000D03*
G54D27*
X26489Y364291D03*
G54D45*
X114921Y176000D03*
G54D36*
X63000Y306000D03*
X95000Y274000D03*
G54D64*
X145866Y139500D03*
X154134D03*
X169666Y288300D03*
X177934D03*
G54D55*
X125500Y200760D03*
Y208240D03*
X135000Y349000D03*
Y341520D03*
G54D73*
X182244Y317624D03*
X187165D03*
G54D37*
X94559Y98654D03*
X89441D03*
X94559Y105346D03*
X89441D03*
G54D28*
X57750Y34950D03*
X65250D03*
X61500Y27050D03*
X76250Y34950D03*
X83750D03*
X80000Y27050D03*
X94750Y34950D03*
X102250D03*
X98500Y27050D03*
X188750Y355950D03*
X181250D03*
X185000Y348050D03*
G54D19*
X36500Y29843D03*
X194000D03*
X197157Y327000D03*
G54D46*
X116835Y287500D03*
X121165D03*
G54D65*
X143669Y159500D03*
X152331D03*
G54D56*
X119500Y308799D03*
Y302500D03*
G54D47*
X102661Y341268D03*
X105220D03*
X107780D03*
X110339D03*
X102661Y324732D03*
X105220D03*
X107780D03*
X110339D03*
G54D29*
X56000Y121894D03*
X51000D03*
X56000Y141106D03*
X51000D03*
X66000Y121894D03*
X61000D03*
X66000Y141106D03*
X61000D03*
G54D38*
X86783Y121236D03*
Y140921D03*
Y138953D03*
Y136984D03*
Y135016D03*
Y133047D03*
Y131079D03*
Y129110D03*
Y127142D03*
Y125173D03*
Y123205D03*
Y150764D03*
Y148795D03*
Y146827D03*
Y144858D03*
Y142890D03*
X122217Y121236D03*
Y123205D03*
Y125173D03*
Y127142D03*
Y129110D03*
Y131079D03*
Y133047D03*
Y135016D03*
Y136984D03*
Y138953D03*
Y140921D03*
Y142890D03*
Y144858D03*
Y146827D03*
Y148795D03*
Y150764D03*
G54D74*
X213517Y50000D03*
X221417Y46250D03*
Y53750D03*
G54D48*
X135980Y4000D03*
X123382D03*
G54D75*
X212709Y254516D03*
Y256484D03*
X206291D03*
Y254516D03*
G54D39*
X89736Y118283D03*
X91705D03*
X93673D03*
X95642D03*
Y153717D03*
X93673D03*
X91705D03*
X89736D03*
X97610Y118283D03*
X99579D03*
X101547D03*
X103516D03*
X105484D03*
X107453D03*
X109421D03*
X111390D03*
X113358D03*
X115327D03*
Y153717D03*
X113358D03*
X111390D03*
X109421D03*
X107453D03*
X105484D03*
X103516D03*
X101547D03*
X99579D03*
X97610D03*
X117295Y118283D03*
X119264D03*
Y153717D03*
X117295D03*
G54D66*
X142000Y170000D03*
X150000D03*
G54D57*
X133000Y317957D03*
Y325043D03*
G54D49*
X120523Y22900D03*
X117295D03*
G54D76*
X212453Y258709D03*
X210484D03*
X208516D03*
X206547D03*
X212453Y252291D03*
X210484D03*
X208516D03*
X206547D03*
G54D67*
X149000Y200000D03*
Y212000D03*
X158500Y200000D03*
Y212000D03*
G54D58*
X126000Y308750D03*
Y302250D03*
X173000Y348750D03*
Y342250D03*
G54D68*
X146655Y313000D03*
Y318000D03*
Y323000D03*
Y328000D03*
Y333000D03*
G54D59*
X146840Y60978D03*
X155053Y69190D03*
G54D77*
X214783Y279217D03*
X200217Y293783D03*
G54D78*
X205532Y284532D03*
Y286500D03*
Y288468D03*
X207500Y284532D03*
Y288468D03*
X209468Y284532D03*
Y286500D03*
Y288468D03*
G54D69*
X151500Y341500D03*
X144413D03*
G54D79*
G01X-77102Y-80133D02*
X395398D01*
Y-180133D01*
X-79602D01*
Y-80133D01*
X-77102D01*
G01X-79602Y-160133D02*
X395398D01*
G01X-79602Y-140133D02*
X395398D01*
G01X-79602Y-120133D02*
X395398D01*
G01X-79602Y-100133D02*
X395398D01*
M02*
