G04 ================== begin FILE IDENTIFICATION RECORD ==================*
G04 Layout Name:  CC3200-LAUNCHXL_BRD_Rev4p1_20140624.brd*
G04 Film Name:    SPB.gbr*
G04 File Format:  Gerber RS274X*
G04 File Origin:  Cadence Allegro 16.6-P004*
G04 Origin Date:  Tue Jun 24 08:36:08 2014*
G04 *
G04 Layer:  DRAWING FORMAT/SPB*
G04 Layer:  PIN/PASTEMASK_BOTTOM*
G04 Layer:  PACKAGE GEOMETRY/PASTEMASK_BOTTOM*
G04 Layer:  DRAWING FORMAT/FILM_LABEL_OUTLINE*
G04 *
G04 Offset:    (0.0000 0.0000)*
G04 Mirror:    No*
G04 Mode:      Positive*
G04 Rotation:  0*
G04 FullContactRelief:  No*
G04 UndefLineWidth:     6.0000*
G04 ================== end FILE IDENTIFICATION RECORD ====================*
%FSLAX25Y25*MOIN*%
%IR0*IPPOS*OFA0.00000B0.00000*MIA0B0*SFA1.00000B1.00000*%
%ADD10C,.04*%
%ADD11C,.015*%
%ADD12C,.006*%
G75*
%LPD*%
G75*
G54D10*
X10000Y24500D03*
X205500Y360500D03*
X219500Y28000D03*
G54D11*
G01X-77102Y-80133D02*
X395398D01*
Y-180133D01*
X-79602D01*
Y-80133D01*
X-77102D01*
G01X-79602Y-160133D02*
X395398D01*
G01X-79602Y-140133D02*
X395398D01*
G01X-79602Y-120133D02*
X395398D01*
G01X-79602Y-100133D02*
X395398D01*
G54D12*
G01X-70227Y-174333D02*
Y-164333D01*
X-65477D01*
G01X-67227Y-169166D02*
X-70227D01*
G01X-59352Y-164333D02*
X-56352D01*
G01X-57852D02*
Y-174333D01*
G01X-59352D02*
X-56352D01*
G01X-50352Y-164333D02*
Y-174333D01*
X-45352D01*
G01X-41102D02*
Y-164333D01*
X-37852Y-172666D01*
X-34602Y-164333D01*
Y-174333D01*
G01X-20352Y-164333D02*
Y-174333D01*
X-15352D01*
G01X-10977D02*
X-7852Y-164333D01*
X-4727Y-174333D01*
G01X-5852Y-170833D02*
X-9852D01*
G01X2148Y-174333D02*
Y-169833D01*
X-352Y-164333D01*
G01X4648D02*
X2148Y-169833D01*
G01X14648Y-174333D02*
X9648D01*
Y-164333D01*
X14648D01*
G01X12648Y-169166D02*
X9648D01*
G01X19648Y-174333D02*
Y-164333D01*
X22773D01*
X23773Y-164833D01*
X24398Y-165500D01*
X24648Y-166833D01*
X24398Y-168166D01*
X23648Y-169000D01*
X22773Y-169500D01*
X19648D01*
G01X22773D02*
X24648Y-174333D01*
G01X32148Y-174666D02*
X31898Y-174500D01*
Y-174166D01*
X32148Y-174000D01*
X32398Y-174166D01*
Y-174500D01*
X32148Y-174666D01*
G01Y-170167D02*
X31898Y-170000D01*
Y-169666D01*
X32148Y-169500D01*
X32398Y-169666D01*
Y-170000D01*
X32148Y-170167D01*
G01X-70352Y-154333D02*
Y-144333D01*
X-67352D01*
X-66352Y-144833D01*
X-65602Y-146000D01*
X-65352Y-147333D01*
X-65602Y-148666D01*
X-66227Y-149666D01*
X-67352Y-150167D01*
X-70352D01*
G01X-60977Y-154333D02*
X-57852Y-144333D01*
X-54727Y-154333D01*
G01X-55852Y-150833D02*
X-59852D01*
G01X-50352Y-154333D02*
Y-144333D01*
X-47227D01*
X-46227Y-144833D01*
X-45602Y-145500D01*
X-45352Y-146833D01*
X-45602Y-148166D01*
X-46352Y-149000D01*
X-47227Y-149500D01*
X-50352D01*
G01X-47227D02*
X-45352Y-154333D01*
G01X-37852Y-144333D02*
Y-154333D01*
G01X-40727Y-144333D02*
X-34977D01*
G01X-20727Y-154333D02*
Y-144333D01*
X-14977Y-154333D01*
Y-144333D01*
G01X-7852Y-154333D02*
X-8852Y-154166D01*
X-9727Y-153500D01*
X-10477Y-152500D01*
X-10977Y-151333D01*
X-11227Y-150000D01*
Y-148666D01*
X-10977Y-147333D01*
X-10477Y-146166D01*
X-9727Y-145166D01*
X-8852Y-144500D01*
X-7852Y-144333D01*
X-6852Y-144500D01*
X-5977Y-145166D01*
X-5227Y-146166D01*
X-4727Y-147333D01*
X-4477Y-148666D01*
Y-150000D01*
X-4727Y-151333D01*
X-5227Y-152500D01*
X-5977Y-153500D01*
X-6852Y-154166D01*
X-7852Y-154333D01*
G01X-102Y-154666D02*
X4398Y-144333D01*
G01X14898Y-145166D02*
X14148Y-144666D01*
X13273Y-144333D01*
X12273D01*
X11148Y-144833D01*
X10273Y-145666D01*
X9648Y-146666D01*
X9148Y-148333D01*
X9023Y-149833D01*
X9273Y-151333D01*
X9648Y-152333D01*
X10398Y-153333D01*
X11273Y-154000D01*
X12148Y-154333D01*
X13023D01*
X13898Y-154000D01*
X14648Y-153500D01*
X15273Y-152833D01*
G01X19023Y-154333D02*
X22148Y-144333D01*
X25273Y-154333D01*
G01X24148Y-150833D02*
X20148D01*
G01X29648Y-154333D02*
Y-144333D01*
X32773D01*
X33773Y-144833D01*
X34398Y-145500D01*
X34648Y-146833D01*
X34398Y-148166D01*
X33648Y-149000D01*
X32773Y-149500D01*
X29648D01*
G01X32773D02*
X34648Y-154333D01*
G01X39398D02*
Y-144333D01*
X41898D01*
X42898Y-144833D01*
X43648Y-145500D01*
X44273Y-146500D01*
X44773Y-147667D01*
X44898Y-149333D01*
X44773Y-151000D01*
X44273Y-152166D01*
X43648Y-153167D01*
X42898Y-153833D01*
X41898Y-154333D01*
X39398D01*
G01X59648D02*
Y-144333D01*
X62773D01*
X63773Y-144833D01*
X64398Y-145500D01*
X64648Y-146833D01*
X64398Y-148166D01*
X63648Y-149000D01*
X62773Y-149500D01*
X59648D01*
G01X62773D02*
X64648Y-154333D01*
G01X74648D02*
X69648D01*
Y-144333D01*
X74648D01*
G01X72648Y-149166D02*
X69648D01*
G01X79773Y-154333D02*
Y-144333D01*
X84523D01*
G01X82773Y-149166D02*
X79773D01*
G01X92148Y-154666D02*
X91898Y-154500D01*
Y-154166D01*
X92148Y-154000D01*
X92398Y-154166D01*
Y-154500D01*
X92148Y-154666D01*
G01Y-150167D02*
X91898Y-150000D01*
Y-149666D01*
X92148Y-149500D01*
X92398Y-149666D01*
Y-150000D01*
X92148Y-150167D01*
G01X-71352Y-134463D02*
Y-124463D01*
X-68852D01*
X-67852Y-124963D01*
X-67102Y-125630D01*
X-66477Y-126630D01*
X-65977Y-127797D01*
X-65852Y-129463D01*
X-65977Y-131130D01*
X-66477Y-132296D01*
X-67102Y-133297D01*
X-67852Y-133963D01*
X-68852Y-134463D01*
X-71352D01*
G01X-56102D02*
X-61102D01*
Y-124463D01*
X-56102D01*
G01X-58102Y-129296D02*
X-61102D01*
G01X-51227Y-133130D02*
X-50227Y-133963D01*
X-49102Y-134463D01*
X-48102D01*
X-47102Y-133963D01*
X-46352Y-133130D01*
X-45977Y-131963D01*
X-46227Y-130797D01*
X-46852Y-129796D01*
X-47977Y-129130D01*
X-49477Y-128796D01*
X-50352Y-128130D01*
X-50727Y-126963D01*
X-50477Y-125796D01*
X-49852Y-124963D01*
X-48977Y-124463D01*
X-48102D01*
X-47227Y-124796D01*
X-46477Y-125630D01*
G01X-40102Y-124463D02*
X-37102D01*
G01X-38602D02*
Y-134463D01*
G01X-40102D02*
X-37102D01*
G01X-27852Y-129463D02*
X-25352D01*
Y-132463D01*
X-26102Y-133463D01*
X-26977Y-134130D01*
X-28227Y-134463D01*
X-29477Y-134130D01*
X-30352Y-133463D01*
X-31102Y-132463D01*
X-31602Y-131296D01*
X-31852Y-129963D01*
Y-128796D01*
X-31602Y-127797D01*
X-31102Y-126630D01*
X-30352Y-125630D01*
X-29602Y-124963D01*
X-28602Y-124463D01*
X-27727D01*
X-26727Y-124796D01*
X-25977Y-125463D01*
G01X-21477Y-134463D02*
Y-124463D01*
X-15727Y-134463D01*
Y-124463D01*
G01X-6102Y-134463D02*
X-11102D01*
Y-124463D01*
X-6102D01*
G01X-8102Y-129296D02*
X-11102D01*
G01X-1352Y-134463D02*
Y-124463D01*
X1148D01*
X2148Y-124963D01*
X2898Y-125630D01*
X3523Y-126630D01*
X4023Y-127797D01*
X4148Y-129463D01*
X4023Y-131130D01*
X3523Y-132296D01*
X2898Y-133297D01*
X2148Y-133963D01*
X1148Y-134463D01*
X-1352D01*
G01X22398Y-129130D02*
X22898Y-128630D01*
X23273Y-127797D01*
X23523Y-126630D01*
X23273Y-125630D01*
X22773Y-124963D01*
X21898Y-124463D01*
X18523D01*
Y-134463D01*
X22648D01*
X23523Y-133796D01*
X24023Y-132796D01*
X24273Y-131630D01*
X24023Y-130463D01*
X23273Y-129463D01*
X22398Y-129130D01*
X18523D01*
G01X31398Y-134463D02*
Y-129963D01*
X28898Y-124463D01*
G01X33898D02*
X31398Y-129963D01*
G01X41398Y-134796D02*
X41148Y-134630D01*
Y-134296D01*
X41398Y-134130D01*
X41648Y-134296D01*
Y-134630D01*
X41398Y-134796D01*
G01Y-130297D02*
X41148Y-130130D01*
Y-129796D01*
X41398Y-129630D01*
X41648Y-129796D01*
Y-130130D01*
X41398Y-130297D01*
G01X-70602Y-114333D02*
Y-104333D01*
X-68102D01*
X-67102Y-104833D01*
X-66352Y-105500D01*
X-65727Y-106500D01*
X-65227Y-107667D01*
X-65102Y-109333D01*
X-65227Y-111000D01*
X-65727Y-112166D01*
X-66352Y-113167D01*
X-67102Y-113833D01*
X-68102Y-114333D01*
X-70602D01*
G01X-60977D02*
X-57852Y-104333D01*
X-54727Y-114333D01*
G01X-55852Y-110833D02*
X-59852D01*
G01X-47852Y-104333D02*
Y-114333D01*
G01X-50727Y-104333D02*
X-44977D01*
G01X-35352Y-114333D02*
X-40352D01*
Y-104333D01*
X-35352D01*
G01X-37352Y-109166D02*
X-40352D01*
G01X-27852Y-114666D02*
X-28102Y-114500D01*
Y-114166D01*
X-27852Y-114000D01*
X-27602Y-114166D01*
Y-114500D01*
X-27852Y-114666D01*
G01Y-110167D02*
X-28102Y-110000D01*
Y-109666D01*
X-27852Y-109500D01*
X-27602Y-109666D01*
Y-110000D01*
X-27852Y-110167D01*
G01X-20352Y-112333D02*
X-19727Y-113333D01*
X-18977Y-114000D01*
X-18102Y-114333D01*
X-17102Y-114000D01*
X-16352Y-113333D01*
X-15602Y-112333D01*
X-15352Y-111000D01*
Y-104333D01*
G01X-10602D02*
Y-111500D01*
X-10102Y-113000D01*
X-9102Y-114000D01*
X-7852Y-114333D01*
X-6602Y-114000D01*
X-5602Y-113000D01*
X-5102Y-111500D01*
Y-104333D01*
G01X-727Y-114333D02*
Y-104333D01*
X5023Y-114333D01*
Y-104333D01*
G01X14648Y-114333D02*
X9648D01*
Y-104333D01*
X14648D01*
G01X12648Y-109166D02*
X9648D01*
G01X29773Y-106000D02*
X30523Y-105000D01*
X31398Y-104500D01*
X32398Y-104333D01*
X33648Y-104666D01*
X34523Y-105500D01*
X34773Y-106500D01*
X34648Y-107500D01*
X34148Y-108333D01*
X31648Y-110000D01*
X30523Y-111166D01*
X29773Y-112833D01*
X29523Y-114333D01*
X34773D01*
G01X43648D02*
Y-104333D01*
X39023Y-111500D01*
X45273D01*
G01X59773Y-106000D02*
X60523Y-105000D01*
X61398Y-104500D01*
X62398Y-104333D01*
X63648Y-104666D01*
X64523Y-105500D01*
X64773Y-106500D01*
X64648Y-107500D01*
X64148Y-108333D01*
X61648Y-110000D01*
X60523Y-111166D01*
X59773Y-112833D01*
X59523Y-114333D01*
X64773D01*
G01X72148Y-104333D02*
X71148Y-104666D01*
X70398Y-105500D01*
X69898Y-106500D01*
X69523Y-107833D01*
X69398Y-109333D01*
X69523Y-110833D01*
X69898Y-112166D01*
X70398Y-113167D01*
X71148Y-114000D01*
X72148Y-114333D01*
X73148Y-114000D01*
X73898Y-113167D01*
X74398Y-112166D01*
X74773Y-110833D01*
X74898Y-109333D01*
X74773Y-107833D01*
X74398Y-106500D01*
X73898Y-105500D01*
X73148Y-104666D01*
X72148Y-104333D01*
G01X82148Y-114333D02*
Y-104333D01*
X80648Y-106333D01*
G01Y-114333D02*
X83648D01*
G01X93648D02*
Y-104333D01*
X89023Y-111500D01*
X95273D01*
G01X-51852Y-86296D02*
X-52602Y-85796D01*
X-53477Y-85463D01*
X-54477D01*
X-55602Y-85963D01*
X-56477Y-86796D01*
X-57102Y-87796D01*
X-57602Y-89463D01*
X-57727Y-90963D01*
X-57477Y-92463D01*
X-57102Y-93463D01*
X-56352Y-94463D01*
X-55477Y-95130D01*
X-54602Y-95463D01*
X-53727D01*
X-52852Y-95130D01*
X-52102Y-94630D01*
X-51477Y-93963D01*
G01X-44602Y-95463D02*
X-45602Y-95296D01*
X-46477Y-94630D01*
X-47227Y-93630D01*
X-47727Y-92463D01*
X-47977Y-91130D01*
Y-89796D01*
X-47727Y-88463D01*
X-47227Y-87296D01*
X-46477Y-86296D01*
X-45602Y-85630D01*
X-44602Y-85463D01*
X-43602Y-85630D01*
X-42727Y-86296D01*
X-41977Y-87296D01*
X-41477Y-88463D01*
X-41227Y-89796D01*
Y-91130D01*
X-41477Y-92463D01*
X-41977Y-93630D01*
X-42727Y-94630D01*
X-43602Y-95296D01*
X-44602Y-95463D01*
G01X-37852D02*
Y-85463D01*
X-34602Y-93796D01*
X-31352Y-85463D01*
Y-95463D01*
G01X-27102D02*
Y-85463D01*
X-24102D01*
X-23102Y-85963D01*
X-22352Y-87130D01*
X-22102Y-88463D01*
X-22352Y-89796D01*
X-22977Y-90796D01*
X-24102Y-91297D01*
X-27102D01*
G01X-17727Y-95463D02*
X-14602Y-85463D01*
X-11477Y-95463D01*
G01X-12602Y-91963D02*
X-16602D01*
G01X-7477Y-95463D02*
Y-85463D01*
X-1727Y-95463D01*
Y-85463D01*
G01X5398Y-95463D02*
Y-90963D01*
X2898Y-85463D01*
G01X7898D02*
X5398Y-90963D01*
G01X22523Y-95463D02*
Y-85463D01*
X28273Y-95463D01*
Y-85463D01*
G01X32273Y-95463D02*
X35398Y-85463D01*
X38523Y-95463D01*
G01X37398Y-91963D02*
X33398D01*
G01X42148Y-95463D02*
Y-85463D01*
X45398Y-93796D01*
X48648Y-85463D01*
Y-95463D01*
G01X57898D02*
X52898D01*
Y-85463D01*
X57898D01*
G01X55898Y-90296D02*
X52898D01*
G01X75398Y-95796D02*
X75148Y-95630D01*
Y-95296D01*
X75398Y-95130D01*
X75648Y-95296D01*
Y-95630D01*
X75398Y-95796D01*
G01Y-91297D02*
X75148Y-91130D01*
Y-90796D01*
X75398Y-90630D01*
X75648Y-90796D01*
Y-91130D01*
X75398Y-91297D01*
G01X95398Y-85463D02*
Y-95463D01*
G01X92523Y-85463D02*
X98273D01*
G01X107898Y-95463D02*
X102898D01*
Y-85463D01*
X107898D01*
G01X105898Y-90296D02*
X102898D01*
G01X112773Y-95463D02*
X118023Y-85463D01*
G01X112773D02*
X118023Y-95463D01*
G01X122273D02*
X125398Y-85463D01*
X128523Y-95463D01*
G01X127398Y-91963D02*
X123398D01*
G01X132773Y-94130D02*
X133773Y-94963D01*
X134898Y-95463D01*
X135898D01*
X136898Y-94963D01*
X137648Y-94130D01*
X138023Y-92963D01*
X137773Y-91797D01*
X137148Y-90796D01*
X136023Y-90130D01*
X134523Y-89796D01*
X133648Y-89130D01*
X133273Y-87963D01*
X133523Y-86796D01*
X134148Y-85963D01*
X135023Y-85463D01*
X135898D01*
X136773Y-85796D01*
X137523Y-86630D01*
G01X153898Y-85463D02*
X156898D01*
G01X155398D02*
Y-95463D01*
G01X153898D02*
X156898D01*
G01X162523D02*
Y-85463D01*
X168273Y-95463D01*
Y-85463D01*
G01X172773Y-94130D02*
X173773Y-94963D01*
X174898Y-95463D01*
X175898D01*
X176898Y-94963D01*
X177648Y-94130D01*
X178023Y-92963D01*
X177773Y-91797D01*
X177148Y-90796D01*
X176023Y-90130D01*
X174523Y-89796D01*
X173648Y-89130D01*
X173273Y-87963D01*
X173523Y-86796D01*
X174148Y-85963D01*
X175023Y-85463D01*
X175898D01*
X176773Y-85796D01*
X177523Y-86630D01*
G01X185398Y-85463D02*
Y-95463D01*
G01X182523Y-85463D02*
X188273D01*
G01X192898Y-95463D02*
Y-85463D01*
X196023D01*
X197023Y-85963D01*
X197648Y-86630D01*
X197898Y-87963D01*
X197648Y-89296D01*
X196898Y-90130D01*
X196023Y-90630D01*
X192898D01*
G01X196023D02*
X197898Y-95463D01*
G01X202648Y-85463D02*
Y-92630D01*
X203148Y-94130D01*
X204148Y-95130D01*
X205398Y-95463D01*
X206648Y-95130D01*
X207648Y-94130D01*
X208148Y-92630D01*
Y-85463D01*
G01X212148Y-95463D02*
Y-85463D01*
X215398Y-93796D01*
X218648Y-85463D01*
Y-95463D01*
G01X227898D02*
X222898D01*
Y-85463D01*
X227898D01*
G01X225898Y-90296D02*
X222898D01*
G01X232523Y-95463D02*
Y-85463D01*
X238273Y-95463D01*
Y-85463D01*
G01X245398D02*
Y-95463D01*
G01X242523Y-85463D02*
X248273D01*
G01X252773Y-94130D02*
X253773Y-94963D01*
X254898Y-95463D01*
X255898D01*
X256898Y-94963D01*
X257648Y-94130D01*
X258023Y-92963D01*
X257773Y-91797D01*
X257148Y-90796D01*
X256023Y-90130D01*
X254523Y-89796D01*
X253648Y-89130D01*
X253273Y-87963D01*
X253523Y-86796D01*
X254148Y-85963D01*
X255023Y-85463D01*
X255898D01*
X256773Y-85796D01*
X257523Y-86630D01*
G01X43125Y-173667D02*
X44125Y-174500D01*
X45250Y-175000D01*
X46250D01*
X47250Y-174500D01*
X48000Y-173667D01*
X48375Y-172500D01*
X48125Y-171334D01*
X47500Y-170333D01*
X46375Y-169667D01*
X44875Y-169333D01*
X44000Y-168667D01*
X43625Y-167500D01*
X43875Y-166333D01*
X44500Y-165500D01*
X45375Y-165000D01*
X46250D01*
X47125Y-165333D01*
X47875Y-166167D01*
G01X58250Y-175000D02*
X53250D01*
Y-165000D01*
X58250D01*
G01X56250Y-169833D02*
X53250D01*
G01X68500Y-165833D02*
X67750Y-165333D01*
X66875Y-165000D01*
X65875D01*
X64750Y-165500D01*
X63875Y-166333D01*
X63250Y-167333D01*
X62750Y-169000D01*
X62625Y-170500D01*
X62875Y-172000D01*
X63250Y-173000D01*
X64000Y-174000D01*
X64875Y-174667D01*
X65750Y-175000D01*
X66625D01*
X67500Y-174667D01*
X68250Y-174167D01*
X68875Y-173500D01*
G01X75750Y-175000D02*
X74750Y-174833D01*
X73875Y-174167D01*
X73125Y-173167D01*
X72625Y-172000D01*
X72375Y-170667D01*
Y-169333D01*
X72625Y-168000D01*
X73125Y-166833D01*
X73875Y-165833D01*
X74750Y-165167D01*
X75750Y-165000D01*
X76750Y-165167D01*
X77625Y-165833D01*
X78375Y-166833D01*
X78875Y-168000D01*
X79125Y-169333D01*
Y-170667D01*
X78875Y-172000D01*
X78375Y-173167D01*
X77625Y-174167D01*
X76750Y-174833D01*
X75750Y-175000D01*
G01X82875D02*
Y-165000D01*
X88625Y-175000D01*
Y-165000D01*
G01X93000Y-175000D02*
Y-165000D01*
X95500D01*
X96500Y-165500D01*
X97250Y-166167D01*
X97875Y-167167D01*
X98375Y-168334D01*
X98500Y-170000D01*
X98375Y-171667D01*
X97875Y-172833D01*
X97250Y-173834D01*
X96500Y-174500D01*
X95500Y-175000D01*
X93000D01*
G01X102625D02*
X105750Y-165000D01*
X108875Y-175000D01*
G01X107750Y-171500D02*
X103750D01*
G01X113250Y-175000D02*
Y-165000D01*
X116375D01*
X117375Y-165500D01*
X118000Y-166167D01*
X118250Y-167500D01*
X118000Y-168833D01*
X117250Y-169667D01*
X116375Y-170167D01*
X113250D01*
G01X116375D02*
X118250Y-175000D01*
G01X125750D02*
Y-170500D01*
X123250Y-165000D01*
G01X128250D02*
X125750Y-170500D01*
G01X143125Y-173667D02*
X144125Y-174500D01*
X145250Y-175000D01*
X146250D01*
X147250Y-174500D01*
X148000Y-173667D01*
X148375Y-172500D01*
X148125Y-171334D01*
X147500Y-170333D01*
X146375Y-169667D01*
X144875Y-169333D01*
X144000Y-168667D01*
X143625Y-167500D01*
X143875Y-166333D01*
X144500Y-165500D01*
X145375Y-165000D01*
X146250D01*
X147125Y-165333D01*
X147875Y-166167D01*
G01X154250Y-165000D02*
X157250D01*
G01X155750D02*
Y-175000D01*
G01X154250D02*
X157250D01*
G01X163000D02*
Y-165000D01*
X165500D01*
X166500Y-165500D01*
X167250Y-166167D01*
X167875Y-167167D01*
X168375Y-168334D01*
X168500Y-170000D01*
X168375Y-171667D01*
X167875Y-172833D01*
X167250Y-173834D01*
X166500Y-174500D01*
X165500Y-175000D01*
X163000D01*
G01X178250D02*
X173250D01*
Y-165000D01*
X178250D01*
G01X176250Y-169833D02*
X173250D01*
G01X193250Y-175000D02*
Y-165000D01*
X196250D01*
X197250Y-165500D01*
X198000Y-166667D01*
X198250Y-168000D01*
X198000Y-169333D01*
X197375Y-170333D01*
X196250Y-170834D01*
X193250D01*
G01X202625Y-175000D02*
X205750Y-165000D01*
X208875Y-175000D01*
G01X207750Y-171500D02*
X203750D01*
G01X213125Y-173667D02*
X214125Y-174500D01*
X215250Y-175000D01*
X216250D01*
X217250Y-174500D01*
X218000Y-173667D01*
X218375Y-172500D01*
X218125Y-171334D01*
X217500Y-170333D01*
X216375Y-169667D01*
X214875Y-169333D01*
X214000Y-168667D01*
X213625Y-167500D01*
X213875Y-166333D01*
X214500Y-165500D01*
X215375Y-165000D01*
X216250D01*
X217125Y-165333D01*
X217875Y-166167D01*
G01X225750Y-165000D02*
Y-175000D01*
G01X222875Y-165000D02*
X228625D01*
G01X238250Y-175000D02*
X233250D01*
Y-165000D01*
X238250D01*
G01X236250Y-169833D02*
X233250D01*
G01X253250Y-165000D02*
Y-175000D01*
X258250D01*
G01X262625D02*
X265750Y-165000D01*
X268875Y-175000D01*
G01X267750Y-171500D02*
X263750D01*
G01X275750Y-175000D02*
Y-170500D01*
X273250Y-165000D01*
G01X278250D02*
X275750Y-170500D01*
G01X288250Y-175000D02*
X283250D01*
Y-165000D01*
X288250D01*
G01X286250Y-169833D02*
X283250D01*
G01X293250Y-175000D02*
Y-165000D01*
X296375D01*
X297375Y-165500D01*
X298000Y-166167D01*
X298250Y-167500D01*
X298000Y-168833D01*
X297250Y-169667D01*
X296375Y-170167D01*
X293250D01*
G01X296375D02*
X298250Y-175000D01*
G01X101250Y-145667D02*
X100500Y-145167D01*
X99625Y-144833D01*
X98625D01*
X97500Y-145334D01*
X96625Y-146167D01*
X96000Y-147167D01*
X95500Y-148833D01*
X95375Y-150333D01*
X95625Y-151833D01*
X96000Y-152833D01*
X96750Y-153834D01*
X97625Y-154500D01*
X98500Y-154833D01*
X99375D01*
X100250Y-154500D01*
X101000Y-154000D01*
X101625Y-153334D01*
G01X111250Y-145667D02*
X110500Y-145167D01*
X109625Y-144833D01*
X108625D01*
X107500Y-145334D01*
X106625Y-146167D01*
X106000Y-147167D01*
X105500Y-148833D01*
X105375Y-150333D01*
X105625Y-151833D01*
X106000Y-152833D01*
X106750Y-153834D01*
X107625Y-154500D01*
X108500Y-154833D01*
X109375D01*
X110250Y-154500D01*
X111000Y-154000D01*
X111625Y-153334D01*
G01X115750Y-152833D02*
X116500Y-154000D01*
X117500Y-154667D01*
X118625Y-154833D01*
X119625Y-154667D01*
X120625Y-153834D01*
X121250Y-152833D01*
X121375Y-151833D01*
X121125Y-150667D01*
X120250Y-149833D01*
X119375Y-149500D01*
X118250D01*
G01X119375D02*
X120125Y-149000D01*
X120750Y-148167D01*
X121000Y-147167D01*
X120750Y-146167D01*
X120125Y-145334D01*
X119000Y-144833D01*
X117875Y-145000D01*
X116750Y-145667D01*
G01X126125Y-146500D02*
X126875Y-145500D01*
X127750Y-145000D01*
X128750Y-144833D01*
X130000Y-145167D01*
X130875Y-146000D01*
X131125Y-147000D01*
X131000Y-148000D01*
X130500Y-148833D01*
X128000Y-150500D01*
X126875Y-151667D01*
X126125Y-153334D01*
X125875Y-154833D01*
X131125D01*
G01X138500Y-144833D02*
X137500Y-145167D01*
X136750Y-146000D01*
X136250Y-147000D01*
X135875Y-148334D01*
X135750Y-149833D01*
X135875Y-151333D01*
X136250Y-152667D01*
X136750Y-153667D01*
X137500Y-154500D01*
X138500Y-154833D01*
X139500Y-154500D01*
X140250Y-153667D01*
X140750Y-152667D01*
X141125Y-151333D01*
X141250Y-149833D01*
X141125Y-148334D01*
X140750Y-147000D01*
X140250Y-146000D01*
X139500Y-145167D01*
X138500Y-144833D01*
G01X148500D02*
X147500Y-145167D01*
X146750Y-146000D01*
X146250Y-147000D01*
X145875Y-148334D01*
X145750Y-149833D01*
X145875Y-151333D01*
X146250Y-152667D01*
X146750Y-153667D01*
X147500Y-154500D01*
X148500Y-154833D01*
X149500Y-154500D01*
X150250Y-153667D01*
X150750Y-152667D01*
X151125Y-151333D01*
X151250Y-149833D01*
X151125Y-148334D01*
X150750Y-147000D01*
X150250Y-146000D01*
X149500Y-145167D01*
X148500Y-144833D01*
G01X156000D02*
Y-154833D01*
X161000D01*
G01X166000D02*
Y-144833D01*
X169000D01*
X170000Y-145334D01*
X170750Y-146500D01*
X171000Y-147833D01*
X170750Y-149167D01*
X170125Y-150167D01*
X169000Y-150667D01*
X166000D01*
G01X190000Y-154833D02*
Y-144833D01*
X185375Y-152000D01*
X191625D01*
G01X198500Y-155167D02*
X198250Y-155000D01*
Y-154667D01*
X198500Y-154500D01*
X198750Y-154667D01*
Y-155000D01*
X198500Y-155167D01*
G01X208500Y-154833D02*
Y-144833D01*
X207000Y-146833D01*
G01Y-154833D02*
X210000D01*
G01X183550Y-113400D02*
X184175Y-114400D01*
X184925Y-115067D01*
X185800Y-115400D01*
X186800Y-115067D01*
X187550Y-114400D01*
X188300Y-113400D01*
X188550Y-112067D01*
Y-105400D01*
G01X196050Y-115400D02*
X195050Y-115233D01*
X194175Y-114567D01*
X193425Y-113567D01*
X192925Y-112400D01*
X192675Y-111067D01*
Y-109733D01*
X192925Y-108400D01*
X193425Y-107233D01*
X194175Y-106233D01*
X195050Y-105567D01*
X196050Y-105400D01*
X197050Y-105567D01*
X197925Y-106233D01*
X198675Y-107233D01*
X199175Y-108400D01*
X199425Y-109733D01*
Y-111067D01*
X199175Y-112400D01*
X198675Y-113567D01*
X197925Y-114567D01*
X197050Y-115233D01*
X196050Y-115400D01*
G01X207050Y-110067D02*
X207550Y-109567D01*
X207925Y-108734D01*
X208175Y-107567D01*
X207925Y-106567D01*
X207425Y-105900D01*
X206550Y-105400D01*
X203175D01*
Y-115400D01*
X207300D01*
X208175Y-114733D01*
X208675Y-113733D01*
X208925Y-112567D01*
X208675Y-111400D01*
X207925Y-110400D01*
X207050Y-110067D01*
X203175D01*
G01X223175Y-115400D02*
Y-105400D01*
X228925Y-115400D01*
Y-105400D01*
G01X233300D02*
Y-112567D01*
X233800Y-114067D01*
X234800Y-115067D01*
X236050Y-115400D01*
X237300Y-115067D01*
X238300Y-114067D01*
X238800Y-112567D01*
Y-105400D01*
G01X242800Y-115400D02*
Y-105400D01*
X246050Y-113733D01*
X249300Y-105400D01*
Y-115400D01*
G01X257050Y-110067D02*
X257550Y-109567D01*
X257925Y-108734D01*
X258175Y-107567D01*
X257925Y-106567D01*
X257425Y-105900D01*
X256550Y-105400D01*
X253175D01*
Y-115400D01*
X257300D01*
X258175Y-114733D01*
X258675Y-113733D01*
X258925Y-112567D01*
X258675Y-111400D01*
X257925Y-110400D01*
X257050Y-110067D01*
X253175D01*
G01X268550Y-115400D02*
X263550D01*
Y-105400D01*
X268550D01*
G01X266550Y-110233D02*
X263550D01*
G01X273550Y-115400D02*
Y-105400D01*
X276675D01*
X277675Y-105900D01*
X278300Y-106567D01*
X278550Y-107900D01*
X278300Y-109233D01*
X277550Y-110067D01*
X276675Y-110567D01*
X273550D01*
G01X276675D02*
X278550Y-115400D01*
G01X286050Y-115733D02*
X285800Y-115567D01*
Y-115233D01*
X286050Y-115067D01*
X286300Y-115233D01*
Y-115567D01*
X286050Y-115733D01*
G01Y-111234D02*
X285800Y-111067D01*
Y-110733D01*
X286050Y-110567D01*
X286300Y-110733D01*
Y-111067D01*
X286050Y-111234D01*
G01X296050Y-105400D02*
Y-115400D01*
G01X293175Y-105400D02*
X298925D01*
G01X303425Y-114067D02*
X304425Y-114900D01*
X305550Y-115400D01*
X306550D01*
X307550Y-114900D01*
X308300Y-114067D01*
X308675Y-112900D01*
X308425Y-111734D01*
X307800Y-110733D01*
X306675Y-110067D01*
X305175Y-109733D01*
X304300Y-109067D01*
X303925Y-107900D01*
X304175Y-106733D01*
X304800Y-105900D01*
X305675Y-105400D01*
X306550D01*
X307425Y-105733D01*
X308175Y-106567D01*
G01X316050Y-115400D02*
Y-105400D01*
X314550Y-107400D01*
G01Y-115400D02*
X317550D01*
G01X326050Y-105400D02*
X325050Y-105733D01*
X324300Y-106567D01*
X323800Y-107567D01*
X323425Y-108900D01*
X323300Y-110400D01*
X323425Y-111900D01*
X323800Y-113233D01*
X324300Y-114234D01*
X325050Y-115067D01*
X326050Y-115400D01*
X327050Y-115067D01*
X327800Y-114234D01*
X328300Y-113233D01*
X328675Y-111900D01*
X328800Y-110400D01*
X328675Y-108900D01*
X328300Y-107567D01*
X327800Y-106567D01*
X327050Y-105733D01*
X326050Y-105400D01*
G01X336050Y-115400D02*
Y-105400D01*
X334550Y-107400D01*
G01Y-115400D02*
X337550D01*
G01X346050D02*
Y-105400D01*
X344550Y-107400D01*
G01Y-115400D02*
X347550D01*
G01X357550D02*
Y-105400D01*
X352925Y-112567D01*
X359175D01*
G01X362925Y-115400D02*
X366050Y-105400D01*
X369175Y-115400D01*
G01X368050Y-111900D02*
X364050D01*
G01X378800Y-106233D02*
X378050Y-105733D01*
X377175Y-105400D01*
X376175D01*
X375050Y-105900D01*
X374175Y-106733D01*
X373550Y-107733D01*
X373050Y-109400D01*
X372925Y-110900D01*
X373175Y-112400D01*
X373550Y-113400D01*
X374300Y-114400D01*
X375175Y-115067D01*
X376050Y-115400D01*
X376925D01*
X377800Y-115067D01*
X378550Y-114567D01*
X379175Y-113900D01*
G01X386050Y-105400D02*
X385050Y-105733D01*
X384300Y-106567D01*
X383800Y-107567D01*
X383425Y-108900D01*
X383300Y-110400D01*
X383425Y-111900D01*
X383800Y-113233D01*
X384300Y-114234D01*
X385050Y-115067D01*
X386050Y-115400D01*
X387050Y-115067D01*
X387800Y-114234D01*
X388300Y-113233D01*
X388675Y-111900D01*
X388800Y-110400D01*
X388675Y-108900D01*
X388300Y-107567D01*
X387800Y-106567D01*
X387050Y-105733D01*
X386050Y-105400D01*
M02*
